<svg width="15" height="15" viewBox="0 0 15 15" fill="none" xmlns="http://www.w3.org/2000/svg">
<path fill-rule="evenodd" clip-rule="evenodd" d="M4.4625 2.25C2.81754 2.25 1.5 3.56459 1.5 5.16667C1.5 5.947 1.81038 6.65581 2.32011 7.1811L7.4999 12.4319L12.5858 7.27439C12.5909 7.26918 12.5962 7.26404 12.6014 7.25898C13.1577 6.727 13.5 5.98601 13.5 5.16667C13.5 3.56459 12.1825 2.25 10.5375 2.25C10.1804 2.25 9.76232 2.45001 9.29713 2.86204C8.84372 3.26364 8.43771 3.78468 8.11067 4.24336C7.96992 4.44076 7.74244 4.55795 7.5 4.55795C7.25756 4.55795 7.03008 4.44076 6.88933 4.24336C6.56229 3.78468 6.15628 3.26364 5.70287 2.86204C5.23767 2.45001 4.81959 2.25 4.4625 2.25ZM0 5.16667C0 2.71865 2.00674 0.75 4.4625 0.75C5.36102 0.75 6.12574 1.23281 6.69743 1.73917C6.99182 1.99992 7.26112 2.29023 7.5 2.57601C7.73888 2.29023 8.00818 1.99992 8.30257 1.73917C8.87425 1.23281 9.63898 0.75 10.5375 0.75C12.9933 0.75 15 2.71865 15 5.16667C15 6.41092 14.4793 7.53446 13.6465 8.33508L8.03403 14.0266C7.8931 14.1695 7.70078 14.25 7.50007 14.25C7.29936 14.25 7.10702 14.1696 6.96607 14.0267L1.24633 8.22851C0.476182 7.43625 0 6.35641 0 5.16667Z" fill="white"/>
</svg>
