<svg width="24" height="18" viewBox="0 0 24 18" fill="none" xmlns="http://www.w3.org/2000/svg">
<path fill-rule="evenodd" clip-rule="evenodd" d="M0.213696 6.51651C0.437874 6.19303 0.806431 6.00003 1.20001 6.00003H22.8C23.1936 6.00003 23.5621 6.19303 23.7863 6.51651C24.0105 6.84 24.0618 7.25286 23.9236 7.62137L20.3236 17.2214C20.148 17.6897 19.7002 18 19.2 18H4.8C4.29979 18 3.85205 17.6897 3.67641 17.2214L0.0764118 7.62137C-0.0617816 7.25286 -0.0104823 6.84 0.213696 6.51651ZM2.93161 8.40002L5.6316 15.6H18.3684L21.0684 8.40002H2.93161Z" fill="white"/>
<path fill-rule="evenodd" clip-rule="evenodd" d="M10.3496 0.263001C10.8671 0.677011 10.9511 1.43216 10.537 1.94967L5.73705 7.94966C5.32304 8.46717 4.56788 8.55108 4.05037 8.13707C3.53286 7.72306 3.44895 6.96791 3.86296 6.45039L8.66296 0.450409C9.07697 -0.067104 9.83212 -0.151009 10.3496 0.263001Z" fill="white"/>
<path fill-rule="evenodd" clip-rule="evenodd" d="M13.6504 0.263001C13.1329 0.677011 13.0489 1.43216 13.463 1.94967L18.263 7.94966C18.677 8.46717 19.4321 8.55108 19.9496 8.13707C20.4671 7.72306 20.551 6.96791 20.137 6.45039L15.337 0.450409C14.923 -0.067104 14.1679 -0.151009 13.6504 0.263001Z" fill="white"/>
<path fill-rule="evenodd" clip-rule="evenodd" d="M7.2 9.60002C7.86274 9.60002 8.4 10.1373 8.4 10.8V13.2C8.4 13.8628 7.86274 14.4 7.2 14.4C6.53726 14.4 6 13.8628 6 13.2V10.8C6 10.1373 6.53726 9.60002 7.2 9.60002Z" fill="white"/>
<path fill-rule="evenodd" clip-rule="evenodd" d="M16.8 9.60002C17.4627 9.60002 18 10.1373 18 10.8V13.2C18 13.8628 17.4627 14.4 16.8 14.4C16.1373 14.4 15.6 13.8628 15.6 13.2V10.8C15.6 10.1373 16.1373 9.60002 16.8 9.60002Z" fill="white"/>
<path fill-rule="evenodd" clip-rule="evenodd" d="M12 9.60002C12.6627 9.60002 13.2 10.1373 13.2 10.8V13.2C13.2 13.8628 12.6627 14.4 12 14.4C11.3373 14.4 10.8 13.8628 10.8 13.2V10.8C10.8 10.1373 11.3373 9.60002 12 9.60002Z" fill="white"/>
</svg>
