<svg width="10" height="12" viewBox="0 0 10 12" fill="none" xmlns="http://www.w3.org/2000/svg">
<path d="M6.66667 0H3.33333V1.11111H6.66667V0ZM4.44444 7.22222H5.55556V3.88889H4.44444V7.22222ZM8.90556 3.55L9.69445 2.76111C9.45556 2.47778 9.19445 2.21111 8.91111 1.97778L8.12222 2.76667C7.26111 2.07778 6.17778 1.66667 5 1.66667C2.23889 1.66667 0 3.90556 0 6.66667C0 9.42778 2.23333 11.6667 5 11.6667C7.76667 11.6667 10 9.42778 10 6.66667C10 5.48889 9.58889 4.40556 8.90556 3.55ZM5 10.5556C2.85 10.5556 1.11111 8.81667 1.11111 6.66667C1.11111 4.51667 2.85 2.77778 5 2.77778C7.15 2.77778 8.88889 4.51667 8.88889 6.66667C8.88889 8.81667 7.15 10.5556 5 10.5556Z" fill="white"/>
</svg>
