<svg width="220" height="220" viewBox="0 0 220 220" fill="none" xmlns="http://www.w3.org/2000/svg">
<path d="M78.65 33.2904L78.6984 33.8316C78.8741 36.0622 79.6565 38.2023 80.961 40.0202C82.2655 41.838 84.0423 43.2645 86.0992 44.1452C86.6379 44.37 87.1923 44.5553 87.758 44.6996C89.8233 45.1906 91.9778 45.1639 94.0304 44.622C96.0829 44.0801 97.9698 43.0397 99.5236 41.5932C101.341 39.8772 102.753 37.5628 105.059 36.6212C108.064 35.4024 111.382 36.9512 114.228 38.4604C117.075 39.9696 120.388 41.514 123.394 40.282C125.272 39.5076 126.61 37.752 127.415 35.882C129.54 30.91 128.295 24.9172 125.066 20.6492C121.836 16.3812 116.873 13.6972 111.707 12.32C104.474 10.406 96.4216 10.9692 89.8876 14.7444C83.3536 18.5196 78.628 25.7356 78.65 33.2904Z" fill="#F5F5F5"/>
<path d="M190.117 188.494C196.598 183.929 198.151 174.975 193.586 168.495C189.021 162.014 180.067 160.461 173.587 165.026C167.106 169.591 165.553 178.545 170.118 185.025C174.683 191.506 183.637 193.059 190.117 188.494Z" fill="#F5F5F5"/>
<path d="M93.1699 46.6135L87.7843 50.8023C96.3819 61.8639 113.96 67.2319 127.248 70.7387L128.542 64.0243C116.235 60.7595 100.346 55.8447 93.1699 46.6135Z" fill="#FFC700"/>
<path d="M162.391 84.2071C159.421 76.0715 154.18 73.5723 154.18 73.5723C155.72 78.3903 160.34 92.3471 159.192 96.8219C159.021 97.7871 158.756 98.7333 158.4 99.6467V99.6863C157.817 101.178 157.016 102.574 156.024 103.831C147.866 114.25 120.49 116.195 98.494 117.753C95.546 117.964 92.774 118.162 89.9844 118.377L90.5124 125.18C93.2668 124.964 96.0388 124.766 98.978 124.559C124.736 122.729 149.631 120.652 159.654 107.839C164.419 101.75 164.969 91.2823 162.391 84.2071Z" fill="#FFC700"/>
<path d="M140.91 74.5184C144.465 75.8384 156.257 80.6784 158.594 88.4136C159.459 91.1288 159.665 94.0115 159.192 96.822C159.849 94.3254 160.376 91.7964 160.772 89.2452C161.242 86.0517 160.761 82.7905 159.39 79.8681C158.02 76.9457 155.819 74.4914 153.063 72.8112C149.952 70.9361 146.669 69.3626 143.26 68.112C140.686 67.1704 137.1 66.2464 132.942 65.1728C131.547 64.812 130.073 64.4292 128.542 64.0244L127.248 70.7388C128.63 71.104 129.963 71.4472 131.239 71.7772C135.216 72.8068 138.657 73.6912 140.91 74.5184Z" fill="#FFC700"/>
<g opacity="0.3">
<path opacity="0.3" d="M152.786 72.6396C149.756 70.8403 146.568 69.3246 143.26 68.112C140.686 67.1704 137.1 66.2464 132.942 65.1728C131.547 64.812 130.073 64.4292 128.542 64.0244L127.248 70.7388C128.63 71.104 129.963 71.4472 131.239 71.7772C135.199 72.8068 138.657 73.6912 140.919 74.5184C144.474 75.8384 155.971 80.0316 158.308 87.7668C159.188 90.6972 159.68 94.1732 159.188 96.822C163.24 84.1412 160.6 77.352 152.786 72.6396Z" fill="black"/>
</g>
<path d="M152.24 110.031C152.07 109.606 151.952 109.163 151.888 108.711C151.752 108.272 151.668 107.818 151.637 107.36C151.888 107.761 152.05 108.211 152.112 108.68C152.246 109.117 152.29 109.576 152.24 110.031Z" fill="#263238"/>
<path d="M150.59 110.576C150.356 110.258 150.204 109.886 150.15 109.494C150.023 109.122 149.989 108.725 150.049 108.337C150.209 108.688 150.318 109.059 150.374 109.441C150.501 109.807 150.574 110.189 150.59 110.576Z" fill="#263238"/>
<path d="M149.16 113.247C148.885 112.633 148.681 111.989 148.553 111.329C148.351 110.685 148.222 110.021 148.17 109.349C148.648 110.606 148.98 111.914 149.16 113.247Z" fill="#263238"/>
<path d="M157.494 105.767C157.226 104.889 157.025 103.992 156.891 103.083C157.32 103.911 157.528 104.836 157.494 105.767Z" fill="#263238"/>
<path d="M155.967 106.744C155.575 106.065 155.389 105.287 155.43 104.504C155.691 105.229 155.871 105.98 155.967 106.744Z" fill="#263238"/>
<path d="M154.673 109.732C154.402 109.116 154.2 108.473 154.07 107.813C153.868 107.171 153.74 106.509 153.688 105.838C153.958 106.453 154.16 107.097 154.29 107.756C154.492 108.398 154.62 109.061 154.673 109.732Z" fill="#263238"/>
<path d="M147.088 112.284C146.886 111.97 146.751 111.618 146.692 111.25C146.561 110.901 146.503 110.53 146.52 110.158C146.721 110.472 146.856 110.824 146.916 111.192C147.046 111.541 147.105 111.912 147.088 112.284Z" fill="#263238"/>
<path d="M145.451 113.274C145.238 112.921 145.089 112.534 145.011 112.13C144.865 111.746 144.79 111.339 144.791 110.928C145.156 111.662 145.38 112.457 145.451 113.274Z" fill="#263238"/>
<path d="M144.443 115.416C143.913 114.169 143.527 112.866 143.29 111.531C143.589 112.14 143.819 112.781 143.977 113.441C144.203 114.081 144.359 114.743 144.443 115.416Z" fill="#263238"/>
<path d="M142.349 114.677C142.138 114.291 141.997 113.871 141.931 113.436C141.79 113.022 141.725 112.585 141.737 112.147C141.946 112.532 142.086 112.95 142.151 113.384C142.292 113.8 142.359 114.238 142.349 114.677Z" fill="#263238"/>
<path d="M140.624 115.306C140.38 114.965 140.212 114.575 140.131 114.162C139.981 113.77 139.915 113.35 139.938 112.93C140.26 113.692 140.49 114.49 140.624 115.306Z" fill="#263238"/>
<path d="M139.317 117.704C138.802 116.316 138.43 114.878 138.208 113.414C138.729 114.801 139.101 116.239 139.317 117.704Z" fill="#263238"/>
<path d="M158.981 105.538C158.675 104.751 158.441 103.939 158.281 103.11C158.05 102.298 157.892 101.468 157.81 100.628C158.113 101.415 158.346 102.228 158.505 103.057C158.737 103.868 158.896 104.699 158.981 105.538Z" fill="#263238"/>
<path d="M159.641 101.877C159.202 100.869 158.906 99.8042 158.761 98.7139C159.019 99.2029 159.207 99.7258 159.32 100.267C159.502 100.786 159.61 101.328 159.641 101.877Z" fill="#263238"/>
<path d="M160.754 99.6687C160.482 99.0701 160.262 98.4488 160.098 97.8119C159.863 97.1978 159.681 96.5649 159.553 95.9199C159.894 96.4865 160.151 97.1003 160.314 97.7415C160.553 98.3593 160.701 99.0084 160.754 99.6687Z" fill="#263238"/>
<path d="M161.867 98.4104C161.492 97.5681 161.186 96.697 160.952 95.8056C160.646 94.9377 160.414 94.0458 160.257 93.1392C160.634 93.9788 160.94 94.8486 161.172 95.7396C161.477 96.609 161.71 97.5023 161.867 98.4104Z" fill="#263238"/>
<path d="M162.721 88.4663C162.668 88.4663 162.281 87.4675 161.762 86.2355C161.401 85.5045 161.149 84.7248 161.014 83.9211C161.071 83.9211 161.454 84.9199 161.973 86.1475C162.333 86.8803 162.585 87.6613 162.721 88.4663Z" fill="#263238"/>
<path d="M162.135 94.3184C161.804 93.7639 161.537 93.1735 161.339 92.5584C161.072 91.9706 160.876 91.3532 160.754 90.7192C161.09 91.2715 161.357 91.8625 161.55 92.4792C161.817 93.067 162.014 93.6844 162.135 94.3184Z" fill="#263238"/>
<path d="M162.391 91.2295C162.042 90.6548 161.765 90.0403 161.564 89.3991C161.286 88.7887 161.08 88.1478 160.952 87.4895C161.293 88.0671 161.569 88.6811 161.775 89.3199C162.049 89.932 162.256 90.5724 162.391 91.2295Z" fill="#263238"/>
<path d="M77.9196 77.5148C81.2812 61.3932 84.194 42.68 107.536 43.164C107.536 43.164 122.012 45.1924 129.36 55.4224C133.681 61.4416 138.516 88.0924 140.285 109.243C140.36 110.123 140.307 116.138 140.373 116.978L79.0636 125.25L73.986 125.84C73.986 125.84 73.2732 116.028 73.986 99.5456C74.47 88.44 76.7272 83.2216 77.9196 77.5148Z" fill="#263238"/>
<path d="M110.942 49.0688L109.415 47.7488L94.0148 54.89C92.9205 55.0075 91.91 55.5309 91.1827 56.3568C90.4553 57.1827 90.0639 58.2512 90.0856 59.3516L92.84 110.585C92.994 114.061 93.8432 117.036 96.0828 119.698L98.4412 122.5C103.814 128.894 114.145 127.816 117.762 120.3C117.981 119.873 118.145 119.419 118.25 118.95C118.328 118.567 118.385 118.181 118.422 117.792C118.681 113.643 118.527 110.07 118.527 110.07C118.576 105.53 118.576 103.668 118.576 103.708C118.576 103.748 128.15 102.111 130.126 89.628C131.107 83.4152 130.434 74.9672 129.642 66.66C128.546 55.1364 120.204 48.5848 110.942 49.0688Z" fill="#FFBF9D"/>
<path d="M116.983 87.7712C116.818 87.5298 116.606 87.3245 116.359 87.1679C116.113 87.0113 115.837 86.9067 115.548 86.8604H115.421H115.456C113.925 86.7592 112.204 86.6448 111.056 87.2388C110.688 87.4698 110.418 87.8287 110.299 88.2464C110.235 88.4185 110.209 88.6023 110.222 88.7854C110.236 88.9685 110.289 89.1465 110.377 89.3073C110.466 89.4681 110.588 89.6079 110.735 89.7172C110.883 89.8265 111.052 89.9026 111.232 89.9404C112.006 90.0592 112.697 89.4388 113.472 89.342C114.114 89.2488 114.768 89.2592 115.408 89.3728C115.975 89.5092 116.406 89.7908 116.838 89.3992C117.041 89.1836 117.166 88.9058 117.192 88.6104C117.219 88.3151 117.145 88.0195 116.983 87.7712Z" fill="#FF9A6C"/>
<path d="M110.568 81.598C110.541 81.6332 110.128 81.2768 109.366 80.8764C108.374 80.3502 107.275 80.0543 106.152 80.0109C105.029 79.9675 103.911 80.1776 102.881 80.6256C102.084 80.9644 101.649 81.2856 101.627 81.2504C101.709 81.1525 101.807 81.0692 101.917 81.004C102.194 80.8025 102.489 80.6258 102.797 80.476C103.839 79.9743 104.989 79.7356 106.145 79.7808C107.301 79.8261 108.428 80.1539 109.428 80.7356C109.728 80.9108 110.013 81.1094 110.282 81.3296C110.484 81.488 110.576 81.5892 110.568 81.598Z" fill="#FF9A6C"/>
<path d="M123.829 57.1472C123.959 57.3719 124.043 57.6202 124.076 57.8776C124.137 58.1527 124.175 58.4323 124.19 58.7136C124.21 58.8914 124.192 59.0714 124.137 59.2416C124.1 59.3467 124.03 59.4375 123.939 59.5014C123.847 59.5652 123.738 59.599 123.627 59.598C123.523 59.5942 123.421 59.5683 123.327 59.522C123.234 59.4757 123.152 59.4101 123.086 59.3296C122.977 59.1981 122.89 59.0494 122.83 58.8896C122.731 58.618 122.686 58.3294 122.698 58.0404C122.683 57.7744 122.754 57.5104 122.901 57.288C122.94 57.288 122.839 57.5784 122.861 58.0404C122.871 58.305 122.927 58.5657 123.028 58.8104C123.134 59.0832 123.328 59.3868 123.627 59.3868C123.926 59.3868 124.001 59.0304 123.979 58.74C123.974 58.4662 123.954 58.193 123.917 57.9216C123.862 57.6671 123.833 57.4076 123.829 57.1472Z" fill="#FAFAFA"/>
<path d="M107.386 75.7503C107.391 76.1684 107.232 76.5718 106.944 76.8744C106.655 77.1769 106.26 77.3546 105.842 77.3695C105.638 77.3857 105.434 77.3609 105.24 77.2967C105.046 77.2325 104.867 77.1302 104.713 76.9957C104.559 76.8612 104.434 76.6973 104.344 76.5137C104.255 76.33 104.203 76.1303 104.192 75.9263C104.187 75.509 104.345 75.1062 104.633 74.8038C104.921 74.5014 105.315 74.3232 105.732 74.3071C105.936 74.2904 106.141 74.3147 106.336 74.3786C106.53 74.4425 106.71 74.5448 106.864 74.6793C107.018 74.8139 107.144 74.978 107.234 75.1619C107.323 75.3459 107.375 75.546 107.386 75.7503Z" fill="#263238"/>
<path d="M124.696 75.7505C124.7 76.1682 124.54 76.571 124.252 76.8733C123.964 77.1756 123.569 77.3537 123.152 77.3697C122.948 77.3858 122.743 77.3611 122.548 77.297C122.354 77.2328 122.175 77.1305 122.021 76.9961C121.867 76.8616 121.741 76.6978 121.651 76.5141C121.561 76.3304 121.509 76.1307 121.497 75.9265C121.493 75.5087 121.653 75.106 121.941 74.8037C122.229 74.5013 122.624 74.3233 123.042 74.3073C123.245 74.2911 123.45 74.3159 123.645 74.38C123.839 74.4442 124.018 74.5465 124.172 74.6809C124.326 74.8153 124.452 74.9792 124.542 75.1629C124.632 75.3465 124.684 75.5463 124.696 75.7505Z" fill="#263238"/>
<path d="M128.163 70.8665C127.965 71.0777 126.751 70.1801 125.026 70.1845C123.301 70.1889 122.038 71.0645 121.849 70.8445C121.757 70.7521 121.959 70.3737 122.509 69.9645C123.255 69.4456 124.144 69.1705 125.052 69.1769C125.948 69.1727 126.823 69.4548 127.547 69.9821C128.08 70.4001 128.26 70.7741 128.163 70.8665Z" fill="#263238"/>
<path d="M110.466 71.3153C110.246 71.5001 109.146 70.4837 107.413 70.3121C105.679 70.1405 104.333 70.8709 104.188 70.6421C104.108 70.5409 104.346 70.2021 104.936 69.8413C105.731 69.4031 106.642 69.2218 107.545 69.3221C108.437 69.4104 109.279 69.7802 109.947 70.3781C110.44 70.8401 110.572 71.2317 110.466 71.3153Z" fill="#263238"/>
<path d="M117.366 83.292C117.366 83.1952 118.426 83.006 120.164 82.786C120.604 82.7376 121.022 82.6496 121.097 82.346C121.172 82.0424 121.013 81.554 120.802 81.026C120.384 79.9612 119.953 78.848 119.482 77.6776C117.669 72.9036 116.358 68.9788 116.552 68.9084C116.745 68.838 118.369 72.6484 120.182 77.418L121.431 80.7928C121.598 81.29 121.871 81.8576 121.66 82.5176C121.596 82.6729 121.498 82.8117 121.373 82.9237C121.248 83.0357 121.1 83.118 120.938 83.1644C120.694 83.2296 120.443 83.2651 120.19 83.27C118.457 83.38 117.37 83.3888 117.366 83.292Z" fill="#263238"/>
<path d="M118.571 103.695C112.694 103.786 106.906 102.247 101.851 99.2463C101.851 99.2463 106.066 107.892 118.571 106.726V103.695Z" fill="#FF9A6C"/>
<path d="M103.206 66.1275C103.303 65.6435 104.852 65.6875 106.612 65.2079C108.372 64.7283 109.754 64.0155 110.044 64.4027C110.176 64.5919 109.978 65.0583 109.45 65.5819C108.761 66.2261 107.916 66.6809 106.999 66.9019C106.094 67.1392 105.142 67.1316 104.24 66.8799C103.55 66.6775 103.171 66.3563 103.206 66.1275Z" fill="#263238"/>
<path d="M121.946 64.2399C122.254 63.8527 123.433 64.2839 124.863 64.3279C126.293 64.3719 127.503 64.1167 127.776 64.5303C127.895 64.7327 127.697 65.1199 127.16 65.4807C126.442 65.9123 125.612 66.1205 124.775 66.079C123.938 66.0375 123.133 65.748 122.461 65.2475C121.964 64.8339 121.805 64.4291 121.946 64.2399Z" fill="#263238"/>
<path d="M91.52 81.2064C91.52 81.2064 98.2476 80.2736 109.582 61.028C112.081 56.7782 114.005 52.215 115.302 47.4584L109.432 46.9128C109.432 46.9128 92.312 52.69 92.0304 52.9276C91.7488 53.1652 88.1056 62.1324 88.1056 62.1324L91.52 81.2064Z" fill="#263238"/>
<path d="M93.6408 80.2867C93.6408 79.3539 92.5628 77.1627 91.6432 77.0175C89.188 76.6391 84.766 76.8415 84.7308 83.0719C84.6824 91.5903 93.2448 89.8831 93.258 89.6367C93.2712 89.3903 93.654 83.4987 93.6408 80.2867Z" fill="#FFBF9D"/>
<path d="M90.6752 86.394C90.64 86.3676 90.5256 86.4996 90.2748 86.614C89.9192 86.7583 89.5215 86.7583 89.166 86.614C88.286 86.2796 87.5204 84.854 87.4852 83.3096C87.4717 82.5787 87.622 81.854 87.9252 81.1888C88.0062 80.9226 88.1513 80.6804 88.3477 80.4833C88.544 80.2861 88.7857 80.1401 89.0516 80.058C89.2229 80.0105 89.4057 80.0255 89.5669 80.1005C89.7282 80.1755 89.8575 80.3055 89.9316 80.4672C90.046 80.7048 89.9888 80.8764 90.0372 80.9072C90.0856 80.938 90.2176 80.7664 90.1516 80.4144C90.1042 80.2038 89.9881 80.0149 89.8216 79.8776C89.586 79.7007 89.2912 79.6218 88.9988 79.6576C88.3432 79.6972 87.7492 80.3 87.4412 80.9776C87.0767 81.7141 86.8955 82.5277 86.9132 83.3492C86.9572 85.0652 87.8284 86.68 89.0604 87.0408C89.2881 87.1078 89.5279 87.1233 89.7623 87.086C89.9967 87.0487 90.2199 86.9596 90.4156 86.8252C90.662 86.6008 90.706 86.4116 90.6752 86.394Z" fill="#FF9A6C"/>
<path d="M116.015 89.76C115.864 89.649 115.703 89.5518 115.535 89.4696C115.057 89.2943 114.536 89.2774 114.048 89.4212C113.419 89.5488 112.702 89.9228 111.791 89.9536C111.549 89.9648 111.308 89.9273 111.081 89.8434C110.854 89.7595 110.647 89.6309 110.471 89.4652C110.276 89.285 110.144 89.0478 110.092 88.7876C110.046 88.5167 110.091 88.2382 110.22 87.9956C110.343 87.7668 110.504 87.5602 110.695 87.384C110.876 87.1996 111.089 87.0504 111.324 86.944C111.76 86.7715 112.225 86.6863 112.693 86.6932C113.133 86.6932 113.546 86.6932 113.929 86.6932C114.312 86.6932 114.664 86.6932 114.994 86.658C115.522 86.5998 116.056 86.6754 116.547 86.878C116.676 86.9406 116.797 87.0174 116.908 87.1068C116.983 87.1728 117.018 87.208 117.014 87.2168C117.009 87.2256 116.842 87.098 116.508 86.9572C116.023 86.7972 115.508 86.7505 115.003 86.8208C114.677 86.8472 114.316 86.878 113.929 86.8824C113.542 86.8868 113.128 86.8824 112.702 86.8824C112.26 86.8819 111.823 86.9655 111.412 87.1288C110.993 87.3263 110.647 87.6532 110.427 88.0616C110.319 88.2555 110.28 88.48 110.316 88.6988C110.352 88.9175 110.461 89.1178 110.625 89.2672C110.78 89.4143 110.963 89.529 111.163 89.6045C111.364 89.6801 111.577 89.715 111.791 89.7072C112.627 89.7072 113.357 89.342 114.013 89.2276C114.531 89.0926 115.081 89.1375 115.57 89.3552C115.701 89.4182 115.82 89.503 115.922 89.606C115.993 89.694 116.019 89.76 116.015 89.76Z" fill="#263238"/>
<path d="M79.5211 112.2C79.5211 112.2 79.5211 112.134 79.4947 111.997C79.4683 111.861 79.4639 111.65 79.4419 111.39C79.3979 110.849 79.3319 110.07 79.2439 109.071C79.0547 107.043 78.8039 104.13 78.4475 100.535C78.2891 98.7315 78.1263 96.7559 78.0075 94.6263C77.8623 92.3626 77.8623 90.0919 78.0075 87.8283C78.0932 86.6013 78.2504 85.3805 78.4783 84.1719C78.7073 82.9095 79.0279 81.6654 79.4375 80.4495C80.26 77.8677 81.5865 75.4749 83.3403 73.4095C85.1619 71.2931 87.4323 69.7399 89.6499 68.3891C91.8675 67.0383 94.0939 65.8459 96.0607 64.4863C99.5554 62.0994 102.67 59.1995 105.301 55.8843C107.081 53.6525 108.636 51.2501 109.943 48.7123C110.383 47.8059 110.735 47.1019 110.946 46.6091L111.197 46.0591C111.254 45.9359 111.289 45.8743 111.289 45.8743C111.289 45.8743 111.267 45.9403 111.219 46.0679L110.985 46.6311C110.792 47.1239 110.457 47.8367 110.022 48.7519C106.822 55.1425 102.053 60.6167 96.1619 64.6623C94.1907 66.0351 91.9687 67.2275 89.7511 68.5827C87.5335 69.9379 85.2939 71.4735 83.4987 73.5591C81.7745 75.6045 80.4707 77.9699 79.6619 80.5199C79.2554 81.7259 78.9363 82.9596 78.7071 84.2115C78.4807 85.4117 78.3206 86.6236 78.2275 87.8415C78.0848 90.0979 78.0848 92.361 78.2275 94.6175C78.3331 96.7427 78.4827 98.7183 78.6323 100.522C78.9359 104.126 79.2087 107.043 79.3583 109.063C79.4331 110.07 79.4859 110.858 79.5123 111.39C79.5123 111.645 79.5343 111.83 79.5387 111.993C79.5431 112.156 79.5211 112.2 79.5211 112.2Z" fill="#455A64"/>
<path d="M148.179 208.833L138.442 168.617C138.442 168.617 138.587 166.417 140.76 158.325C142.934 150.234 138.6 141.02 138.6 141.02L134.781 115.28C133.078 113.52 119.297 112.147 119.297 112.147C119.297 112.147 117.836 118.422 107.857 119.39C97.878 120.358 92.3516 112.147 92.3516 112.147C85.2412 111.778 76.7536 111.778 76.7536 111.778L77.352 135.731L78.9052 171.512L72.1864 208.846L148.179 208.833Z" fill="#455A64"/>
<path d="M77.3519 111.76C77.3519 111.76 65.1419 113.001 65.3223 129.62C65.4763 143.647 67.0823 159.403 67.0823 159.403L90.5343 149.943L83.8639 126.685C83.8639 126.236 77.3519 111.76 77.3519 111.76Z" fill="#455A64"/>
<path d="M147.4 126.685C145.037 121.691 143.383 119.297 140.36 117.005C138.943 115.918 131.353 113.995 131.353 113.995V136.435L135.89 158.875L158.096 151.87C158.096 151.87 150.48 133.254 147.4 126.685Z" fill="#455A64"/>
<path d="M133.016 132.638C133.106 132.713 133.188 132.795 133.263 132.884C133.417 133.056 133.65 133.302 133.927 133.641C134.724 134.584 135.459 135.577 136.127 136.616C138.342 140.054 139.854 143.898 140.576 147.924C140.977 150.135 141.125 152.384 141.016 154.629C140.91 156.457 140.669 158.275 140.294 160.068C139.982 161.599 139.674 162.822 139.462 163.671C139.352 164.076 139.264 164.397 139.203 164.639C139.177 164.753 139.141 164.865 139.097 164.974C139.107 164.857 139.127 164.743 139.159 164.63C139.212 164.384 139.282 164.058 139.374 163.649C139.564 162.796 139.845 161.568 140.136 160.037C140.484 158.248 140.707 156.436 140.8 154.616C140.9 152.389 140.752 150.158 140.36 147.963C139.639 143.966 138.159 140.144 136 136.704C135.347 135.662 134.637 134.658 133.874 133.694C133.606 133.351 133.382 133.1 133.241 132.915C133.158 132.829 133.083 132.737 133.016 132.638Z" fill="#263238"/>
<path d="M134.534 134.64C134.936 132.919 135.487 131.236 136.18 129.611C136.016 130.48 135.778 131.334 135.467 132.163C135.23 133.015 134.918 133.843 134.534 134.64Z" fill="#263238"/>
<path d="M81.8399 124.96C81.8971 124.938 83.7891 130.601 86.0595 137.601C88.3299 144.602 90.1251 150.291 90.0635 150.313C90.0019 150.335 88.1143 144.672 85.8439 137.672C83.5735 130.671 81.7783 124.96 81.8399 124.96Z" fill="#263238"/>
<g opacity="0.3">
<path opacity="0.3" d="M78.1307 181.245C82.1435 182.473 88.4091 185.205 92.4219 186.437C96.6195 187.717 101.38 188.949 105.182 186.793C106.181 186.23 107.105 185.434 108.262 185.28C109.419 185.126 110.559 185.671 111.624 186.16C120.969 190.524 133.113 190.12 143.304 188.448L140.712 182.516L107.096 174.35L81.9147 177.184L78.1307 181.245Z" fill="black"/>
</g>
<path d="M100.382 169.088C100.382 169.088 88.9416 163.253 86.2576 162.576C83.5736 161.898 75.0772 163.786 74.9804 165.832C74.9182 166.916 74.9182 168.003 74.9804 169.088C74.9804 169.088 72.4768 170.848 73.5372 172.7C74.5976 174.552 75.658 174.535 75.658 174.535C75.658 174.535 74.1136 175.877 74.9804 177.131C75.8472 178.385 76.7404 179.929 76.7404 179.929C76.7404 179.929 76.3708 181.566 77.374 182.239C78.3772 182.912 85.2192 183.977 90.134 183.687C95.0488 183.396 97.46 182.723 97.46 182.723L100.382 169.088Z" fill="#FFBF9D"/>
<path d="M156.279 152.425C156.675 153.512 160.169 173.43 159.887 180.347C159.601 187.449 155.927 191.154 148.733 190.498C141.539 189.842 108.618 185.297 100.434 177.606L95.6956 174.68L100.76 163.275C100.76 163.275 108.288 167.13 113.362 168.604C118.435 170.078 140.932 168.683 140.932 168.683L140.175 161.04L140.677 157.34L156.279 152.425Z" fill="#FFBF9D"/>
<path d="M150.234 178.64C150.19 178.64 150.128 177.795 149.701 176.51C149.154 174.823 148.204 173.294 146.934 172.055C145.664 170.816 144.111 169.905 142.41 169.4C141.09 169.008 140.259 168.96 140.263 168.929C140.461 168.908 140.66 168.908 140.857 168.929C141.397 168.983 141.932 169.083 142.454 169.228C144.2 169.701 145.796 170.611 147.091 171.873C148.386 173.135 149.338 174.707 149.855 176.44C150.015 176.959 150.13 177.49 150.198 178.028C150.234 178.23 150.246 178.435 150.234 178.64Z" fill="#FF9A6C"/>
<path d="M104.381 114.123L92.8971 156.033L89.8171 150.247L70.3119 158.11C71.7663 162.026 73.45 165.853 75.3543 169.572C83.7407 185.588 94.8771 186.516 101.754 184.347C108.631 182.178 113.001 159.034 114.483 149.147C116.199 137.707 116.477 113.067 116.477 113.067L104.381 114.123Z" fill="#FFBF9D"/>
<path d="M91.0448 174.288C90.9334 174.059 90.8392 173.823 90.7632 173.58C90.6543 173.3 90.5632 173.013 90.4904 172.722C90.4068 172.383 90.2836 172.005 90.2088 171.569C90.134 171.133 90.0284 170.663 89.98 170.143C89.9316 169.624 89.8744 169.079 89.8392 168.498C89.7943 167.233 89.8473 165.966 89.9976 164.709C90.2776 162.43 90.8377 160.194 91.6652 158.052C91.8192 157.639 91.9732 157.269 92.1052 156.952C92.2372 156.635 92.3692 156.358 92.4836 156.138C92.5849 155.905 92.7072 155.681 92.8488 155.469C92.7714 155.712 92.6758 155.949 92.5628 156.178C92.4616 156.402 92.3516 156.679 92.224 157.001C92.0964 157.322 91.9468 157.691 91.806 158.105C91.0267 160.25 90.4924 162.476 90.2132 164.74C90.064 165.984 90.0052 167.237 90.0372 168.489C90.068 169.065 90.0856 169.615 90.156 170.121C90.2264 170.627 90.2836 171.107 90.3584 171.538C90.4332 171.969 90.53 172.352 90.6004 172.691C90.6708 173.03 90.7588 173.316 90.8336 173.549C90.9243 173.789 90.9949 174.036 91.0448 174.288Z" fill="#FF9A6C"/>
<path d="M111.782 162.501C111.792 162.583 111.792 162.665 111.782 162.747C111.782 162.906 111.729 163.143 111.681 163.442C111.588 164.045 111.434 164.916 111.21 165.986C110.629 168.781 109.875 171.538 108.953 174.24C107.888 177.408 106.449 180.118 105.063 181.826C104.533 182.513 103.909 183.123 103.211 183.638C103.022 183.781 102.82 183.905 102.608 184.008C102.538 184.05 102.465 184.086 102.388 184.114C102.447 184.057 102.514 184.008 102.586 183.968C102.785 183.847 102.976 183.713 103.158 183.568C103.819 183.029 104.41 182.409 104.918 181.724C106.238 180.013 107.659 177.324 108.72 174.165C109.627 171.476 110.393 168.741 111.016 165.972C111.258 164.908 111.456 164.045 111.558 163.447C111.615 163.165 111.663 162.941 111.698 162.756C111.714 162.667 111.742 162.581 111.782 162.501Z" fill="#FF9A6C"/>
<path d="M116.314 121.312C116.314 121.312 116.618 114.219 116.754 111.412C116.89 108.605 112.354 97.5831 112.257 97.3323C112.16 97.0815 111.628 93.6099 111.628 93.6099C111.628 93.6099 112.627 94.1247 113.577 92.7959C114.127 92.0171 113.225 89.5443 112.402 89.0163C111.58 88.4883 110.176 88.9679 110.176 88.9679C110.176 88.9679 110.176 87.3707 107.76 87.4191C107.76 87.4191 107.422 84.9507 102.392 85.7735C102.392 85.7735 102.441 85.1443 100.94 85.2411C99.44 85.3379 95.1368 86.2575 94.8464 87.2739C94.556 88.2903 95.766 94.3139 95.766 96.0255C95.766 97.7371 95.8144 97.8647 96.5404 99.3607C97.2664 100.857 103.14 110.462 104.535 112.561L102.903 119.486" fill="#FFBF9D"/>
<path d="M102.912 119.491C102.908 119.451 102.908 119.411 102.912 119.372C102.912 119.284 102.956 119.17 102.986 119.024L103.29 117.669C103.563 116.477 103.963 114.743 104.469 112.548V112.596C103.409 111.003 102.221 109.076 100.879 106.911C99.5367 104.746 98.0495 102.331 96.5491 99.6336C96.3643 99.2904 96.2059 98.9428 96.0387 98.582C95.8678 98.2138 95.7521 97.8223 95.6955 97.4204C95.6075 96.6064 95.6955 95.8056 95.5679 94.996C95.3787 93.3636 95.0971 91.6872 94.8727 89.958C94.8155 89.518 94.7627 89.078 94.7231 88.638C94.6659 88.1836 94.6659 87.7239 94.7231 87.2696C94.8062 87.0321 94.9717 86.8322 95.1895 86.7064C95.3816 86.5771 95.5848 86.4652 95.7967 86.372C96.2149 86.1838 96.6457 86.025 97.0859 85.8968C97.9734 85.6301 98.8774 85.4214 99.7919 85.272C100.258 85.1869 100.73 85.1354 101.204 85.118C101.451 85.1131 101.697 85.1427 101.935 85.206C102.085 85.2256 102.224 85.2947 102.33 85.4023C102.436 85.5099 102.503 85.6499 102.52 85.8L102.388 85.6768L103.237 85.5668C103.532 85.5668 103.831 85.5228 104.117 85.514C104.864 85.4847 105.61 85.5951 106.317 85.8396C106.683 85.9577 107.014 86.1633 107.283 86.4386C107.551 86.7139 107.748 87.0504 107.857 87.4192L107.743 87.3224C108.299 87.2914 108.853 87.3987 109.358 87.6348C109.614 87.7603 109.834 87.9504 109.995 88.1864C110.156 88.4225 110.254 88.6963 110.277 88.9812L110.128 88.8756C110.499 88.7561 110.886 88.688 111.276 88.6732C111.675 88.6442 112.074 88.7313 112.424 88.924C112.738 89.1547 112.993 89.4562 113.168 89.804C113.344 90.1337 113.491 90.4782 113.608 90.8336C113.726 91.1869 113.802 91.5533 113.832 91.9248C113.845 92.1147 113.833 92.3054 113.797 92.4924C113.755 92.6853 113.664 92.8642 113.533 93.0116C113.303 93.3122 113 93.5497 112.653 93.7024C112.478 93.7787 112.29 93.8181 112.099 93.8181C111.908 93.8181 111.719 93.7787 111.544 93.7024L111.698 93.5924C111.857 94.622 112.015 95.6384 112.182 96.624C112.22 96.8639 112.27 97.1018 112.332 97.3368C112.429 97.5656 112.521 97.7944 112.609 98.0232C112.794 98.4632 112.97 98.934 113.146 99.3828C113.846 101.174 114.488 102.903 115.051 104.526C115.614 106.15 116.116 107.708 116.468 109.182C116.543 109.551 116.644 109.908 116.688 110.273C116.714 110.453 116.75 110.629 116.767 110.81C116.785 110.99 116.767 111.166 116.767 111.342C116.767 112.037 116.706 112.697 116.675 113.326C116.547 115.839 116.45 117.828 116.38 119.205C116.34 119.878 116.314 120.402 116.292 120.767C116.292 120.938 116.27 121.07 116.266 121.167C116.27 121.212 116.27 121.258 116.266 121.304V121.167C116.266 121.07 116.266 120.938 116.266 120.767C116.266 120.402 116.296 119.887 116.318 119.2C116.376 117.823 116.455 115.83 116.556 113.322C116.578 112.693 116.604 112.033 116.631 111.338C116.631 111.17 116.631 110.994 116.609 110.823C116.587 110.651 116.556 110.475 116.53 110.295C116.481 109.938 116.376 109.586 116.301 109.217C115.944 107.756 115.421 106.216 114.871 104.584C114.321 102.951 113.652 101.24 112.948 99.4532L112.468 98.12L112.187 97.4336C112.117 97.1864 112.062 96.9351 112.024 96.6812C111.852 95.6912 111.694 94.6792 111.531 93.6452L111.5 93.456L111.685 93.5352C111.833 93.5971 111.991 93.629 112.152 93.629C112.312 93.629 112.47 93.5971 112.618 93.5352C112.924 93.3925 113.19 93.1764 113.392 92.906C113.497 92.7768 113.573 92.6268 113.616 92.466C113.658 92.3052 113.666 92.1372 113.639 91.9732C113.608 91.6197 113.536 91.2712 113.423 90.9348C113.309 90.5914 113.161 90.2599 112.983 89.9448C112.823 89.6284 112.595 89.3518 112.314 89.1352C112.014 88.9581 111.669 88.8696 111.32 88.88C110.952 88.8958 110.588 88.9609 110.238 89.0736L110.097 89.1176V88.968C110.073 88.7239 109.987 88.4902 109.846 88.2891C109.706 88.0879 109.517 87.9263 109.296 87.8196C108.826 87.599 108.309 87.5007 107.791 87.5336H107.699L107.677 87.4324C107.591 87.1063 107.414 86.8115 107.166 86.5832C106.908 86.3502 106.61 86.1654 106.286 86.0376C105.603 85.8025 104.883 85.6966 104.161 85.7252C103.866 85.7252 103.576 85.756 103.281 85.778L102.445 85.888H102.313V85.7472C102.313 85.6108 102.12 85.4568 101.917 85.4084C101.7 85.3509 101.477 85.3243 101.253 85.3292C100.792 85.3439 100.333 85.3939 99.8799 85.4788C98.9744 85.6263 98.0794 85.8321 97.2003 86.0948C96.7698 86.221 96.3479 86.3754 95.9375 86.5568C95.7376 86.6448 95.5462 86.7508 95.3655 86.8736C95.1904 86.9697 95.056 87.126 94.9871 87.3136C94.9366 87.7418 94.9366 88.1745 94.9871 88.6028C95.0267 89.0428 95.0795 89.4828 95.1323 89.9228C95.3523 91.652 95.6339 93.324 95.8187 94.9652C95.9419 95.788 95.8583 96.624 95.9463 97.394C96.1 98.1503 96.378 98.8758 96.7691 99.5412C98.2519 102.221 99.7523 104.641 101.068 106.823C102.384 109.006 103.572 110.928 104.614 112.543V112.565V112.592L103.382 117.696C103.237 118.281 103.123 118.73 103.048 119.046L102.956 119.39C102.944 119.425 102.93 119.459 102.912 119.491Z" fill="#FF9A6C"/>
<path d="M111.32 91.4541C111.32 91.4541 111.452 91.5333 111.562 91.7401C111.697 92.0148 111.775 92.3142 111.791 92.6201C111.849 93.0309 111.828 93.4492 111.729 93.8521C111.604 93.4614 111.548 93.0521 111.562 92.6421C111.512 92.2405 111.431 91.8433 111.32 91.4541Z" fill="#FF9A6C"/>
<path d="M110.185 88.9768C109.854 89.2453 109.481 89.4565 109.08 89.6016C108.663 89.756 108.281 89.994 107.958 90.3012C107.606 90.7112 107.42 91.2391 107.439 91.7796C107.419 92.7897 107.52 93.7985 107.738 94.7848C107.892 95.546 108.033 96.008 107.998 96.0212C107.805 95.6417 107.664 95.2376 107.58 94.82C107.309 93.8255 107.185 92.7968 107.21 91.7664C107.22 91.4677 107.27 91.1716 107.36 90.8864C107.449 90.6139 107.6 90.3655 107.8 90.1604C108.149 89.8407 108.563 89.6005 109.014 89.4564C109.749 89.1836 110.167 88.946 110.185 88.9768Z" fill="#FF9A6C"/>
<path d="M107.756 87.4368C107.616 87.504 107.468 87.5528 107.316 87.582L106.066 87.89L104.214 88.33C103.87 88.3898 103.559 88.569 103.334 88.836C103.129 89.1587 103.028 89.5364 103.044 89.9184C103.044 90.3188 103.088 90.7192 103.114 91.1108C103.14 91.5024 103.171 91.872 103.202 92.2328C103.25 92.9324 103.294 93.5528 103.334 94.1292C103.374 94.7056 103.391 95.1104 103.4 95.414C103.422 95.5702 103.422 95.7286 103.4 95.8848C103.352 95.7336 103.324 95.5768 103.316 95.4184C103.277 95.1192 103.228 94.6836 103.176 94.1424C103.123 93.6012 103.061 92.9456 102.995 92.2504C102.964 91.8896 102.929 91.5156 102.894 91.1284C102.859 90.7412 102.815 90.3408 102.819 89.914C102.803 89.4852 102.922 89.0622 103.158 88.704C103.417 88.394 103.78 88.1891 104.179 88.1276L106.044 87.7448C106.577 87.6392 107.008 87.5556 107.307 87.5072C107.454 87.4663 107.604 87.4426 107.756 87.4368Z" fill="#FF9A6C"/>
<path d="M104.799 100.575C104.799 100.602 104.601 100.575 104.359 100.395C104.031 100.168 103.777 99.8483 103.632 99.4768C103.486 99.1053 103.454 98.6988 103.541 98.3091C103.611 98.0187 103.721 97.8691 103.748 97.8691C103.664 98.3774 103.697 98.898 103.844 99.3915C104.068 99.854 104.394 100.259 104.799 100.575Z" fill="#FF9A6C"/>
<path d="M110 100.351C110 100.377 109.806 100.351 109.56 100.153C109.234 99.9265 108.969 99.6245 108.786 99.2729C108.6 98.917 108.503 98.5215 108.504 98.1201C108.504 97.8121 108.574 97.6317 108.601 97.6361C108.61 98.1684 108.742 98.6913 108.986 99.1644C109.23 99.6375 109.58 100.048 110.009 100.364L110 100.351Z" fill="#FF9A6C"/>
<path d="M101.297 101.231C101.297 101.253 101.081 101.156 100.826 100.905C100.496 100.575 100.245 100.174 100.092 99.7328C99.94 99.2915 99.8899 98.8212 99.946 98.3576C99.9944 98.0056 100.091 97.8032 100.118 97.812C100.075 98.434 100.138 99.0587 100.302 99.66C100.542 100.237 100.878 100.768 101.297 101.231Z" fill="#FF9A6C"/>
<path d="M102.586 85.7559C102.443 85.8174 102.296 85.8703 102.146 85.9143C101.86 86.0155 101.451 86.1783 100.954 86.3939L100.14 86.7547C99.8328 86.8818 99.5466 87.0538 99.2904 87.2651C98.9946 87.4943 98.7622 87.7953 98.6151 88.1395C98.468 88.4836 98.4112 88.8596 98.45 89.2319C98.5512 90.0371 98.7316 90.8247 98.8504 91.5331C98.9692 92.2415 99.0792 92.8531 99.176 93.4163C99.2728 93.9795 99.3344 94.3931 99.3784 94.6923C99.4146 94.8479 99.4294 95.0078 99.4224 95.1675C99.3594 95.0272 99.315 94.8793 99.2904 94.7275C99.22 94.4327 99.1276 94.0015 99.0176 93.4647C98.9076 92.9279 98.78 92.2811 98.6392 91.5903C98.4984 90.8995 98.3312 90.1163 98.2212 89.2715C98.172 88.8475 98.2405 88.4182 98.4192 88.0307C98.5935 87.6763 98.8445 87.3652 99.154 87.1199C99.4295 86.9004 99.7365 86.7239 100.065 86.5963L100.892 86.2619C101.425 86.0016 101.997 85.8307 102.586 85.7559Z" fill="#FF9A6C"/>
<path d="M89.9272 184.096C89.8458 184.076 89.7663 184.05 89.6895 184.017L89.0163 183.748C88.1956 183.41 87.3962 183.022 86.6227 182.587C84.069 181.129 81.8109 179.205 79.9656 176.915C78.1521 174.614 76.5818 172.13 75.2795 169.506C74.7647 168.511 74.3643 167.693 74.0959 167.125C73.9727 166.861 73.876 166.646 73.7924 166.47C73.7544 166.395 73.7235 166.317 73.7 166.236C73.7545 166.302 73.8004 166.374 73.8364 166.452C73.9244 166.619 74.0387 166.83 74.1795 167.086C74.4875 167.666 74.9056 168.463 75.4204 169.431C76.7607 172.02 78.3414 174.477 80.1416 176.77C81.9759 179.035 84.197 180.956 86.702 182.446C87.4642 182.891 88.2484 183.298 89.0515 183.665L89.7072 183.973C89.7852 184.005 89.859 184.046 89.9272 184.096Z" fill="#FF9A6C"/>
<path d="M91.8851 90.6003C91.8851 91.0652 91.7472 91.5197 91.4888 91.9062C91.2305 92.2926 90.8632 92.5938 90.4337 92.7715C90.0041 92.9492 89.5314 92.9955 89.0755 92.9045C88.6196 92.8134 88.201 92.5892 87.8725 92.2602C87.5441 91.9312 87.3207 91.5121 87.2305 91.056C87.1404 90.5999 87.1875 90.1274 87.366 89.6981C87.5445 89.2689 87.8464 88.9022 88.2333 88.6446C88.6203 88.3869 89.075 88.2499 89.5399 88.2507C89.8484 88.2502 90.154 88.3106 90.4391 88.4285C90.7242 88.5464 90.9831 88.7195 91.2011 88.9379C91.419 89.1562 91.5917 89.4155 91.709 89.7008C91.8264 89.9861 91.8863 90.2918 91.8851 90.6003Z" fill="#455A64"/>
<path d="M144.443 121.066C142.384 117.04 140.743 112.35 139.986 105.855L118.558 106.256C118.765 114.176 117.238 123.587 117.053 131.028C124.289 131.808 131.595 131.66 138.794 130.588C138.983 128.432 137.667 126.43 137.856 124.274C138.499 125.84 140.646 127.244 141.288 128.81C143.413 127.97 147.246 125.497 147.246 125.497C147.246 125.743 145.442 123.015 144.443 121.066Z" fill="#263238"/>
<path d="M129.439 128.198C129.409 128.098 129.392 127.995 129.386 127.89C129.356 127.666 129.32 127.371 129.272 127.01C129.175 126.236 129.065 125.114 128.946 123.728C128.713 120.947 128.506 117.102 128.542 112.847C128.577 108.592 128.832 104.742 129.109 101.97C129.246 100.584 129.373 99.4619 129.483 98.6919C129.532 98.3223 129.576 98.0275 129.606 97.8119C129.615 97.7072 129.636 97.6039 129.668 97.5039C129.674 97.608 129.674 97.7123 129.668 97.8163C129.646 98.0451 129.615 98.3399 129.584 98.6963C129.501 99.4707 129.4 100.593 129.281 101.983C129.048 104.755 128.819 108.583 128.784 112.842C128.748 117.101 128.929 120.934 129.122 123.71C129.219 125.096 129.307 126.223 129.373 126.997C129.404 127.367 129.426 127.666 129.444 127.877C129.453 127.984 129.452 128.092 129.439 128.198Z" fill="#455A64"/>
<path d="M142.617 124.52C142.592 124.492 142.571 124.461 142.556 124.428L142.397 124.142L141.799 123.037C141.539 122.558 141.231 121.964 140.919 121.277C140.606 120.591 140.175 119.794 139.788 118.901C139.401 118.008 138.943 117.04 138.516 115.975C138.09 114.91 137.636 113.775 137.196 112.561C136.316 110.136 135.436 107.435 134.666 104.557C133.896 101.68 133.346 98.8945 132.906 96.3513C132.704 95.0797 132.502 93.8697 132.374 92.7301C132.246 91.5905 132.114 90.5301 132.026 89.5533C131.938 88.5765 131.881 87.7009 131.828 86.9133C131.776 86.1257 131.745 85.4701 131.732 84.9245C131.718 84.3789 131.732 83.9785 131.701 83.6705V83.3449C131.699 83.3082 131.699 83.2715 131.701 83.2349C131.708 83.2711 131.708 83.3086 131.701 83.3449L131.727 83.6705C131.727 83.9741 131.771 84.3921 131.802 84.9245C131.833 85.4569 131.864 86.1345 131.934 86.9045C132.004 87.6745 132.048 88.5545 132.163 89.5225C132.277 90.4905 132.374 91.5509 132.537 92.6861C132.7 93.8213 132.884 95.0269 133.091 96.2985C133.531 98.8329 134.125 101.609 134.882 104.482C135.639 107.356 136.519 110.048 137.386 112.473C137.826 113.678 138.266 114.827 138.706 115.883C139.146 116.939 139.52 117.92 139.92 118.8C140.32 119.68 140.694 120.485 141.02 121.189C141.346 121.893 141.64 122.487 141.9 122.971L142.459 124.098L142.6 124.392C142.617 124.478 142.623 124.52 142.617 124.52Z" fill="#455A64"/>
<g opacity="0.3">
<path opacity="0.3" d="M145.429 199.25L125.84 195.945L99.4399 193.182L76.9427 189.033L75.4247 190.793C79.3847 196.442 93.4647 198.651 102.19 199.245C109.67 199.756 116.969 200.323 124.463 200.521C131.956 200.719 141.548 201.287 147.043 206.386L145.429 199.25Z" fill="black"/>
</g>
<path d="M108.632 189.328C95.7087 188.58 81.7915 185.953 74.8835 183.396C68.4243 180.998 61.1379 177.549 56.7115 168.516C55.4413 166.24 54.5497 163.773 54.0715 161.212C53.0463 156.539 51.2951 145.688 54.1683 135.353C51.9683 137.381 50.2083 141.288 48.9631 147.281C46.7983 157.78 48.1447 166.162 51.1059 172.361C55.2991 181.113 64.7811 187.488 71.2007 189.618C83.5207 193.706 94.5691 195.298 108.218 196.086C126.566 197.146 147.347 199.263 156.592 207.636L160.82 202.968C149.56 192.764 129.206 190.52 108.632 189.328Z" fill="#FFC700"/>
<path d="M54.0584 161.212C52.9276 155.663 53.3544 149.829 55.4928 145.79C58.1724 140.734 64.0024 137.43 65.3664 137.302H65.3224V129.628C62.1324 129.628 57.7984 132 54.1552 135.348C51.282 145.688 53.0332 156.539 54.0584 161.212Z" fill="#FFC700"/>
<g opacity="0.3">
<path opacity="0.3" d="M54.0584 161.212C52.9276 155.663 53.3544 149.829 55.4928 145.79C58.1724 140.734 64.0024 137.43 65.3664 137.302H65.3224V129.628C62.8804 129.628 59.7696 131.019 56.8128 133.17C55.0783 134.486 53.873 136.379 53.416 138.508C51.3128 147.4 53.1344 157.01 54.0584 161.212Z" fill="black"/>
</g>
<path d="M55.0571 164.877C55.0037 164.786 54.9623 164.688 54.9339 164.586C54.8635 164.388 54.7447 164.102 54.6303 163.706C54.2888 162.642 54.0082 161.56 53.7899 160.464C53.5039 159.078 53.2487 157.41 53.0507 155.549C52.8527 153.688 52.7075 151.637 52.5403 149.49C52.3447 147.466 52.3093 145.43 52.4347 143.4C52.5376 141.741 52.8329 140.099 53.3147 138.508C53.645 137.443 54.0752 136.411 54.5995 135.428C54.7799 135.076 54.9515 134.82 55.0395 134.64C55.0886 134.546 55.1461 134.456 55.2111 134.372C55.1776 134.473 55.1334 134.57 55.0791 134.662C54.9867 134.847 54.8283 135.102 54.6655 135.472C54.1709 136.468 53.7646 137.506 53.4511 138.574C52.9927 140.151 52.7108 141.774 52.6107 143.414C52.4983 145.433 52.5395 147.459 52.7339 149.472C52.9011 151.62 53.0375 153.67 53.2267 155.527C53.4159 157.384 53.6667 159.047 53.9131 160.433C54.1595 161.819 54.4587 162.923 54.6787 163.68C54.7843 164.063 54.8855 164.353 54.9427 164.56C54.9873 164.663 55.0255 164.769 55.0571 164.877Z" fill="#263238"/>
<path d="M69.4495 184.026C69.3513 183.569 69.3513 183.096 69.4495 182.64C69.4661 182.172 69.58 181.714 69.7839 181.293C69.8014 181.754 69.7645 182.214 69.6739 182.666C69.6506 183.126 69.5753 183.582 69.4495 184.026Z" fill="#263238"/>
<path d="M71.1391 184.395C71.1125 184.009 71.1421 183.62 71.2271 183.242C71.2427 182.856 71.3123 182.474 71.4339 182.107C71.5649 182.882 71.4622 183.679 71.1391 184.395Z" fill="#263238"/>
<path d="M72.8288 186.899C72.8074 186.227 72.865 185.555 73.0004 184.897C73.0595 184.225 73.1938 183.563 73.4008 182.921C73.3622 184.259 73.1702 185.587 72.8288 186.881V186.899Z" fill="#263238"/>
<path d="M63.7647 180.338C63.6691 179.881 63.6691 179.409 63.7647 178.952C63.7837 178.486 63.8975 178.027 64.0991 177.606C64.0641 178.524 63.9582 179.437 63.7823 180.338H63.7647Z" fill="#263238"/>
<path d="M65.384 181.152C65.3576 180.766 65.3887 180.377 65.4764 179.999C65.4869 179.613 65.5567 179.23 65.6832 178.864C65.7761 179.247 65.7761 179.647 65.6832 180.03C65.6765 180.423 65.5738 180.808 65.384 181.152Z" fill="#263238"/>
<path d="M66.9856 183.986C67.0242 182.648 67.2161 181.32 67.5576 180.026C67.5789 180.699 67.5213 181.372 67.386 182.032C67.3253 182.696 67.191 183.352 66.9856 183.986Z" fill="#263238"/>
<path d="M74.8 185.724C74.74 185.356 74.7595 184.979 74.8572 184.619C74.8799 184.248 74.9772 183.884 75.1432 183.55C75.1766 184.291 75.0599 185.03 74.8 185.724Z" fill="#263238"/>
<path d="M76.5292 186.533C76.4844 186.125 76.5158 185.712 76.6216 185.315C76.6552 184.904 76.7626 184.503 76.9384 184.131C76.9858 184.541 76.9544 184.956 76.846 185.354C76.8153 185.764 76.7078 186.164 76.5292 186.533Z" fill="#263238"/>
<path d="M77.7611 188.558C77.7715 187.88 77.8571 187.206 78.0163 186.547C78.1018 185.874 78.2626 185.213 78.4959 184.576C78.4012 185.926 78.1547 187.262 77.7611 188.558Z" fill="#263238"/>
<path d="M79.7676 187.603C79.706 187.163 79.7254 186.716 79.8248 186.283C79.8442 185.846 79.9395 185.416 80.1064 185.011C80.1686 185.451 80.1492 185.898 80.0492 186.331C80.0289 186.768 79.9336 187.198 79.7676 187.603Z" fill="#263238"/>
<path d="M81.5451 188.047C81.5322 187.632 81.5812 187.216 81.6903 186.815C81.7247 186.401 81.8211 185.995 81.9763 185.61C82.0466 186.024 82.0256 186.449 81.9147 186.855C81.8771 187.274 81.7511 187.68 81.5451 188.047Z" fill="#263238"/>
<path d="M83.0984 190.295C83.0934 189.557 83.1641 188.82 83.3096 188.095C83.3827 187.358 83.5301 186.63 83.7496 185.922C83.7571 186.661 83.6863 187.398 83.5384 188.122C83.4673 188.86 83.3198 189.588 83.0984 190.295Z" fill="#263238"/>
<path d="M85.6723 189.116C85.6121 188.687 85.63 188.25 85.7251 187.827C85.7444 187.396 85.8397 186.971 86.0067 186.573C86.0644 187.001 86.0465 187.436 85.9539 187.858C85.9334 188.291 85.8382 188.716 85.6723 189.116Z" fill="#263238"/>
<path d="M87.4015 189.411C87.3467 188.479 87.4433 187.545 87.6875 186.644C87.752 187.107 87.7431 187.578 87.6611 188.038C87.6517 188.507 87.5639 188.971 87.4015 189.411Z" fill="#263238"/>
<path d="M89.4124 191.105C89.426 189.814 89.5944 188.528 89.914 187.277C89.9366 187.922 89.885 188.567 89.76 189.2C89.7168 189.846 89.6002 190.485 89.4124 191.105Z" fill="#263238"/>
<path d="M92.1228 190.256C92.0394 189.81 92.0305 189.354 92.0964 188.905C92.0876 188.45 92.156 187.996 92.2988 187.563C92.3932 188.464 92.3337 189.375 92.1228 190.256Z" fill="#263238"/>
<path d="M94.0499 190.52C94.007 189.635 94.1156 188.75 94.3711 187.902C94.4285 188.341 94.4121 188.788 94.3227 189.222C94.3087 189.667 94.2164 190.107 94.0499 190.52Z" fill="#263238"/>
<path d="M95.8188 192.399C95.79 191.69 95.8357 190.981 95.9552 190.282C95.9982 189.574 96.1207 188.873 96.3204 188.192C96.3061 189.609 96.1379 191.019 95.8188 192.399Z" fill="#263238"/>
<path d="M98.472 191.325C98.3885 190.842 98.3811 190.349 98.45 189.864C98.4428 189.373 98.5111 188.883 98.6524 188.412C98.7482 189.387 98.6873 190.37 98.472 191.325Z" fill="#263238"/>
<path d="M100.865 191.44C100.793 190.552 100.876 189.658 101.112 188.8C101.185 189.236 101.185 189.683 101.112 190.12C101.107 190.571 101.024 191.017 100.865 191.44Z" fill="#263238"/>
<path d="M102.96 193.503C102.941 192.737 102.981 191.971 103.079 191.211C103.098 190.445 103.175 189.682 103.308 188.927C103.403 189.691 103.403 190.464 103.308 191.228C103.284 191.998 103.167 192.762 102.96 193.503Z" fill="#263238"/>
<path d="M105.728 191.84C105.608 190.943 105.646 190.032 105.838 189.147C105.931 189.591 105.95 190.048 105.895 190.498C105.912 190.951 105.856 191.405 105.728 191.84Z" fill="#263238"/>
<path d="M108.35 192.139C108.254 191.69 108.232 191.227 108.284 190.771C108.261 190.31 108.316 189.849 108.447 189.407C108.543 189.858 108.565 190.321 108.513 190.78C108.535 191.239 108.48 191.698 108.35 192.139Z" fill="#263238"/>
<path d="M110.722 194.278C110.725 192.653 110.88 191.033 111.184 189.438C111.186 191.062 111.031 192.683 110.722 194.278Z" fill="#263238"/>
<path d="M113.758 192.544C113.649 192.085 113.615 191.611 113.656 191.14C113.625 190.67 113.668 190.198 113.784 189.741C113.893 190.201 113.927 190.675 113.885 191.145C113.916 191.615 113.873 192.087 113.758 192.544Z" fill="#263238"/>
<path d="M116.213 192.914C116.114 192.426 116.106 191.925 116.191 191.435C116.207 190.941 116.312 190.453 116.503 189.996C116.535 190.486 116.507 190.978 116.42 191.462C116.408 191.952 116.338 192.439 116.213 192.914Z" fill="#263238"/>
<path d="M118.017 194.48C117.986 193.744 118.028 193.007 118.144 192.28C118.183 191.536 118.303 190.798 118.501 190.08C118.532 190.816 118.489 191.553 118.373 192.28C118.328 193.023 118.209 193.76 118.017 194.48Z" fill="#263238"/>
<path d="M120.613 193.389C120.539 192.854 120.539 192.313 120.613 191.778C120.619 191.237 120.7 190.7 120.855 190.181C120.93 190.717 120.93 191.26 120.855 191.796C120.85 192.336 120.769 192.872 120.613 193.389Z" fill="#263238"/>
<path d="M123.094 193.283C123.037 192.823 123.055 192.356 123.147 191.902C123.167 191.439 123.261 190.984 123.424 190.551C123.485 191.011 123.468 191.478 123.376 191.932C123.355 192.395 123.26 192.851 123.094 193.283Z" fill="#263238"/>
<path d="M125.4 194.942C125.405 194.265 125.466 193.59 125.58 192.922C125.619 192.248 125.714 191.578 125.866 190.92C125.946 192.278 125.788 193.639 125.4 194.942Z" fill="#263238"/>
<path d="M127.904 193.798C127.852 193.325 127.874 192.847 127.969 192.381C127.994 191.906 128.094 191.439 128.264 190.995C128.321 191.468 128.299 191.947 128.198 192.412C128.174 192.887 128.074 193.354 127.904 193.798Z" fill="#263238"/>
<path d="M130.319 194.313C130.259 193.823 130.278 193.327 130.376 192.843C130.401 192.349 130.504 191.862 130.68 191.4C130.715 192.384 130.597 193.368 130.332 194.317L130.319 194.313Z" fill="#263238"/>
<path d="M132.106 196.086C132.174 194.628 132.394 193.182 132.761 191.77C132.767 192.5 132.694 193.228 132.546 193.943C132.473 194.671 132.326 195.389 132.106 196.086Z" fill="#263238"/>
<path d="M134.314 194.757C134.367 193.862 134.522 192.977 134.776 192.117C134.835 192.57 134.806 193.03 134.693 193.472C134.651 193.921 134.522 194.357 134.314 194.757Z" fill="#263238"/>
<path d="M136.519 195.162C136.487 194.251 136.608 193.341 136.875 192.469C136.932 192.923 136.909 193.383 136.809 193.829C136.787 194.286 136.689 194.737 136.519 195.162Z" fill="#263238"/>
<path d="M138.076 197.371C138.072 196.632 138.144 195.895 138.292 195.171C138.364 194.433 138.512 193.705 138.732 192.997C138.734 193.736 138.66 194.473 138.512 195.197C138.44 195.934 138.294 196.663 138.076 197.371Z" fill="#263238"/>
<path d="M140.131 195.936C140.089 195.493 140.128 195.046 140.246 194.616C140.287 194.175 140.403 193.743 140.589 193.34C140.625 193.784 140.584 194.23 140.47 194.66C140.431 195.102 140.317 195.534 140.131 195.936Z" fill="#263238"/>
<path d="M142.221 196.491C142.172 196.049 142.202 195.602 142.309 195.171C142.34 194.725 142.446 194.288 142.622 193.877C142.666 194.319 142.636 194.765 142.534 195.197C142.504 195.643 142.398 196.081 142.221 196.491Z" fill="#263238"/>
<path d="M144.17 198.04C144.158 197.437 144.22 196.836 144.355 196.249C144.419 195.647 144.558 195.056 144.769 194.489C144.781 195.091 144.719 195.693 144.584 196.28C144.52 196.881 144.381 197.473 144.17 198.04Z" fill="#263238"/>
<path d="M146.177 197.419C146.132 197.021 146.163 196.618 146.269 196.231C146.301 195.831 146.41 195.441 146.59 195.083C146.632 195.481 146.601 195.884 146.498 196.271C146.465 196.671 146.356 197.06 146.177 197.419Z" fill="#263238"/>
<path d="M148.179 198.26C148.147 197.841 148.193 197.42 148.315 197.019C148.362 196.602 148.482 196.197 148.672 195.822C148.706 196.242 148.662 196.664 148.54 197.067C148.49 197.483 148.368 197.886 148.179 198.26Z" fill="#263238"/>
<path d="M149.16 200.389C149.343 199.036 149.678 197.707 150.159 196.429C150.103 197.113 149.973 197.789 149.772 198.444C149.641 199.113 149.436 199.766 149.16 200.389Z" fill="#263238"/>
<path d="M151.408 199.76C151.442 199.335 151.53 198.916 151.672 198.515C151.741 198.093 151.864 197.682 152.038 197.292C152.087 197.722 152.038 198.159 151.892 198.568C151.823 198.996 151.658 199.404 151.408 199.76Z" fill="#263238"/>
<path d="M153.336 200.548C153.322 200.146 153.385 199.746 153.52 199.368C153.584 198.973 153.723 198.594 153.93 198.251C153.877 199.047 153.675 199.826 153.336 200.548Z" fill="#263238"/>
<path d="M154.497 202.347C154.621 201.825 154.801 201.317 155.034 200.834C155.2 200.322 155.419 199.829 155.69 199.364C155.504 200.431 155.098 201.447 154.497 202.347Z" fill="#263238"/>
<path d="M61.2964 180.84C61.3618 179.153 61.5783 177.476 61.9432 175.828C61.8778 177.515 61.6613 179.192 61.2964 180.84Z" fill="#263238"/>
<path d="M59.9411 177.408C59.9221 176.856 59.9783 176.304 60.1083 175.767C60.1646 175.219 60.2963 174.681 60.4999 174.17C60.4637 175.27 60.2757 176.36 59.9411 177.408Z" fill="#263238"/>
<path d="M58.3923 175.151C58.347 174.667 58.3902 174.18 58.5199 173.712C58.579 173.232 58.7283 172.768 58.9599 172.344C58.9466 172.824 58.8697 173.3 58.7311 173.76C58.6774 174.236 58.5636 174.703 58.3923 175.151Z" fill="#263238"/>
<path d="M56.694 175.151C56.7403 174.308 56.8625 173.472 57.0592 172.652C57.1796 171.816 57.3739 170.993 57.64 170.192C57.5936 171.036 57.4714 171.874 57.2748 172.695C57.154 173.529 56.9597 174.351 56.694 175.151Z" fill="#263238"/>
<path d="M55.4399 171.771C55.4921 171.127 55.6221 170.492 55.8271 169.879C55.9568 169.248 56.1606 168.633 56.4343 168.049C56.2512 169.325 55.9174 170.574 55.4399 171.771Z" fill="#263238"/>
<path d="M154.497 206.206L157.78 200.548L161.52 203.377L156.666 208.314L154.497 206.206Z" fill="#E0E0E0"/>
<path d="M163.495 84.3523C156.92 83.73 150.733 80.9554 145.895 76.4587L139.348 77.2023L141.24 70.9719C137.467 65.2673 135.745 58.4493 136.357 51.6371C136.969 44.8248 139.88 38.4232 144.61 33.483C149.34 28.5427 155.609 25.3574 162.389 24.45C169.168 23.5425 176.054 24.9668 181.917 28.489C187.78 32.0112 192.272 37.4221 194.654 43.8334C197.036 50.2448 197.168 57.2756 195.028 63.7718C192.888 70.268 188.603 75.8436 182.876 79.5834C177.149 83.3231 170.321 85.0048 163.513 84.3523H163.495Z" fill="white"/>
<path d="M163.495 84.3524H164.001C164.336 84.3524 164.828 84.4272 165.48 84.4228C167.375 84.4775 169.271 84.3523 171.142 84.0488C172.493 83.8209 173.827 83.5079 175.138 83.1116C176.691 82.6276 178.205 82.0245 179.665 81.3076C184.022 79.1596 187.793 75.9878 190.656 72.0637C193.519 68.1397 195.389 63.5803 196.104 58.7759C196.82 53.9715 196.361 49.0652 194.767 44.477C193.172 39.8888 190.489 35.7553 186.948 32.4305C183.407 29.1057 179.112 26.6885 174.433 25.386C169.753 24.0834 164.828 23.9343 160.078 24.9512C155.328 25.9682 150.896 28.1211 147.16 31.2255C143.424 34.33 140.496 38.2935 138.626 42.7768C136.733 47.3245 135.986 52.2677 136.451 57.1718C136.916 62.0759 138.579 66.7907 141.293 70.9016L141.315 70.9368V70.972L139.423 77.2024L139.339 77.1056L145.886 76.3664H145.917V76.3884C149.464 79.6898 153.755 82.0854 158.426 83.3712C159.661 83.7063 160.914 83.9693 162.18 84.1588L163.156 84.2864C163.376 84.3128 163.486 84.3348 163.486 84.3348L163.156 84.304L162.171 84.1984C160.903 84.0242 159.646 83.7729 158.409 83.446C153.712 82.1824 149.393 79.795 145.825 76.4896H145.878L139.335 77.2464H139.216L139.251 77.132L141.13 70.8972V70.9676C138.561 67.0929 136.92 62.6784 136.334 58.0668C135.64 52.5925 136.459 47.0328 138.701 41.9909C140.944 36.949 144.524 32.6176 149.054 29.4668C154.308 25.7994 160.591 23.8957 166.996 24.0301C173.402 24.1645 179.599 26.3302 184.694 30.2148C189.376 33.7762 192.916 38.6269 194.881 44.1717C196.845 49.7164 197.148 55.714 195.752 61.4284C194.703 65.7281 192.723 69.7452 189.952 73.196C187.18 76.6469 183.685 79.4475 179.714 81.4C177.017 82.7435 174.134 83.6735 171.16 84.1588C169.282 84.4557 167.379 84.5677 165.48 84.4932C164.828 84.4932 164.336 84.4184 164.001 84.4008L163.495 84.3524Z" fill="#263238"/>
<path d="M146.494 40.9198C146.494 40.9198 151.989 41.5446 155.016 45.069C158.044 48.5934 158.844 51.1982 158.844 51.1982C158.844 51.1982 160.684 51.2687 163.165 49.7198C164.574 48.8896 165.735 47.6969 166.527 46.2659C166.527 46.2659 164.996 44.9195 162.444 40.8319C159.892 36.7443 162.171 31.1254 162.171 31.1254L159.394 30.7646C159.394 30.7646 158.198 35.1646 158.264 38.1214L154.88 32.7006L151.206 34.993L154.766 40.6866C151.892 38.6274 147.858 38.2446 147.858 38.2446L146.494 40.9198Z" fill="#455A64"/>
<g opacity="0.3">
<path opacity="0.3" d="M146.494 40.9198C146.494 40.9198 151.989 41.5446 155.016 45.069C158.044 48.5934 158.844 51.1982 158.844 51.1982C158.844 51.1982 160.684 51.2687 163.165 49.7198C164.574 48.8896 165.735 47.6969 166.527 46.2659C166.527 46.2659 164.996 44.9195 162.444 40.8319C159.892 36.7443 162.171 31.1254 162.171 31.1254L159.394 30.7646C159.394 30.7646 158.198 35.1646 158.264 38.1214L154.88 32.7006L151.206 34.993L154.766 40.6866C151.892 38.6274 147.858 38.2446 147.858 38.2446L146.494 40.9198Z" fill="black"/>
</g>
<path d="M146.652 44.7127C143.383 47.2867 139.537 46.1031 138.186 42.9923C136.924 43.5599 132.739 43.2079 131.472 39.4723C130.398 36.3087 132.845 33.3123 135.432 32.3839C134.617 31.3456 134.138 30.0832 134.059 28.7655C133.981 27.4478 134.306 26.1374 134.992 25.0095C135.724 23.8931 136.77 23.019 137.999 22.4981C139.228 21.9772 140.584 21.8329 141.896 22.0835C141.925 20.4522 142.438 18.8664 143.372 17.528C144.305 16.1897 145.615 15.1594 147.136 14.5683C148.664 14.022 150.322 13.9497 151.892 14.3611C153.462 14.7725 154.872 15.6483 155.936 16.8739C156.895 14.3615 160.125 12.9491 162.602 13.9611C165.079 14.9731 166.307 18.2071 165.141 20.6359C166.256 20.5752 167.363 20.8622 168.309 21.4572C169.255 22.0522 169.993 22.9259 170.421 23.9579C170.799 25.0131 170.846 26.1588 170.554 27.2411C170.262 28.3233 169.646 29.2904 168.788 30.0123C167.028 31.4423 164.855 31.8867 162.972 30.7119C162.496 32.1375 160.644 32.9735 159.148 33.1187C158.402 33.1834 157.653 33.0309 156.992 32.6796C156.331 32.3283 155.785 31.7931 155.421 31.1387C155.624 33.0439 154.414 34.7951 152.891 36.0139C151.369 37.2327 150.11 37.0963 147.778 36.5463C149.6 40.0399 149.45 42.5127 146.652 44.7127Z" fill="#455A64"/>
<g opacity="0.3">
<path opacity="0.3" d="M156.873 23.2407C156.842 23.2407 156.684 23.0515 156.323 22.7567C155.808 22.3542 155.205 22.0783 154.563 21.9515C154.039 21.83 153.494 21.8218 152.966 21.9275C152.438 22.0331 151.938 22.2501 151.5 22.5641C151.063 22.878 150.697 23.2817 150.428 23.7482C150.159 24.2146 149.992 24.7331 149.939 25.2691C149.843 25.9361 149.933 26.6166 150.198 27.2359L150.449 27.8079L149.93 27.4603C149.541 27.2136 149.101 27.0595 148.643 27.0099C148.186 26.9603 147.723 27.0165 147.29 27.1743C146.586 27.4326 146.009 27.9528 145.68 28.6263C145.394 29.2432 145.28 29.9257 145.35 30.6019C145.259 30.4376 145.21 30.253 145.209 30.0651C145.161 29.5394 145.25 29.0103 145.468 28.5295C145.631 28.1552 145.867 27.8169 146.161 27.5344C146.456 27.2519 146.804 27.0308 147.184 26.8839C147.664 26.6972 148.181 26.6251 148.693 26.6732C149.206 26.7214 149.7 26.8884 150.137 27.1611L149.868 27.3899C149.568 26.712 149.465 25.9634 149.569 25.2295C149.652 24.59 149.876 23.977 150.226 23.4356C150.577 22.8943 151.044 22.4383 151.593 22.1011C152.517 21.591 153.599 21.4465 154.625 21.6963C155.299 21.8515 155.921 22.1807 156.429 22.6511C156.617 22.814 156.768 23.0149 156.873 23.2407Z" fill="black"/>
</g>
<g opacity="0.3">
<path opacity="0.3" d="M137.839 41.36C137.804 41.36 137.606 41.1576 137.504 40.6956C137.389 40.0836 137.49 39.4504 137.79 38.9048C138.076 38.3489 138.541 37.9056 139.11 37.6464C139.55 37.466 139.858 37.4968 139.858 37.5364C139.858 37.576 139.594 37.6596 139.229 37.8796C138.756 38.17 138.368 38.5817 138.107 39.072C137.848 39.5582 137.726 40.1059 137.755 40.656C137.79 41.0564 137.892 41.3116 137.839 41.36Z" fill="black"/>
</g>
<path d="M179.08 34.6807C179.393 34.0944 179.586 33.4517 179.649 32.7901C179.712 32.1284 179.642 31.4609 179.445 30.8263C179.028 29.5343 178.121 28.4571 176.92 27.8255C176.813 27.7553 176.685 27.7257 176.559 27.7419C176.387 27.7859 176.312 27.9839 176.268 28.1555C175.962 29.4062 176.061 30.722 176.55 31.9131C177.054 33.1138 177.92 34.1275 179.027 34.8127" fill="#455A64"/>
<path d="M169.193 41.0475C169.541 43.9427 170.707 46.2263 172.854 47.0711C173.294 47.2383 173.708 47.0711 174.134 47.1987C174.358 47.3366 174.561 47.5055 174.737 47.7003C174.835 47.7888 174.949 47.8588 175.072 47.9071C177.36 48.5803 179.824 47.7047 182.032 45.5707C185.112 42.5743 185.94 38.4823 183.88 36.4231C183.609 36.1499 183.315 35.9011 183 35.6795C182.636 35.431 182.237 35.2369 181.817 35.1031C180.829 34.8235 179.803 34.6988 178.776 34.7335H178.64C176.937 33.1495 175.327 32.5775 173.505 32.7667C170.614 33.0835 168.683 36.7883 169.193 41.0475Z" fill="#FFC700"/>
<path d="M170.54 37.3999C170.499 37.1323 170.517 36.8591 170.592 36.5991C170.738 35.9496 171.04 35.3454 171.472 34.8391C171.899 34.3359 172.439 33.9408 173.048 33.6863C173.295 33.5672 173.565 33.4998 173.84 33.4883C173.84 33.5191 173.545 33.5895 173.1 33.8007C172.524 34.0794 172.013 34.4767 171.6 34.9667C171.194 35.4485 170.894 36.0108 170.72 36.6167C170.584 37.0831 170.57 37.3999 170.54 37.3999Z" fill="#FAFAFA"/>
<path d="M170.381 39.2743C170.333 39.2743 170.315 39.0675 170.342 38.8343C170.368 38.6011 170.43 38.3943 170.478 38.3943C170.526 38.3943 170.548 38.6011 170.522 38.8343C170.496 39.0675 170.434 39.2787 170.381 39.2743Z" fill="#FAFAFA"/>
<path d="M186.305 30.549C186.305 30.5842 185.768 30.593 184.923 30.7558C184.432 30.854 183.948 30.9879 183.476 31.1562C182.903 31.3706 182.35 31.6326 181.821 31.9394C181.299 32.2495 180.804 32.6043 180.343 32.9998C179.972 33.33 179.626 33.6874 179.309 34.069C178.772 34.7598 178.517 35.1998 178.486 35.1998C178.528 35.0829 178.583 34.9708 178.649 34.8654C178.717 34.7367 178.792 34.6119 178.873 34.4914C178.97 34.3506 179.071 34.1834 179.208 34.0162C179.517 33.6164 179.86 33.244 180.233 32.903C180.692 32.4839 181.19 32.1096 181.72 31.7854C182.259 31.4727 182.826 31.2106 183.414 31.0022C183.897 30.8366 184.393 30.7129 184.897 30.6326C185.108 30.5886 185.306 30.5798 185.478 30.5578C185.624 30.5503 185.771 30.5503 185.918 30.5578C186.046 30.543 186.176 30.54 186.305 30.549Z" fill="#263238"/>
<path d="M168.837 60.192C170.157 58.7796 170.878 56.1352 171.164 54.2124C171.447 52.2704 171.129 50.2884 170.254 48.532C170.207 48.4023 170.113 48.2953 169.99 48.2328C169.847 48.203 169.699 48.2298 169.576 48.3076C168.494 48.8429 167.572 49.6542 166.904 50.6596C166.235 51.6649 165.844 52.8288 165.769 54.0337C165.694 55.2387 165.938 56.4421 166.477 57.5226C167.015 58.603 167.829 59.5223 168.837 60.1876" fill="#455A64"/>
<path d="M173.056 55.1847C174.482 54.8283 176.004 53.4247 176.968 52.3159C177.935 51.1932 178.536 49.8027 178.693 48.3295C178.713 48.2272 178.695 48.1212 178.644 48.0303C178.564 47.9554 178.459 47.913 178.35 47.9115C177.444 47.8162 176.528 47.9612 175.696 48.3319C174.864 48.7025 174.144 49.2858 173.609 50.0231C173.074 50.7603 172.742 51.6255 172.647 52.5316C172.553 53.4377 172.698 54.3528 173.07 55.1847" fill="#455A64"/>
<path d="M172.326 60.0468C172.424 59.5583 172.39 59.0526 172.228 58.5816C172.065 58.1106 171.78 57.6914 171.402 57.3672C170.63 56.724 169.652 56.3803 168.648 56.3992C167.768 56.375 166.9 56.6057 166.148 57.0636C165.721 57.315 165.359 57.6651 165.094 58.0848C164.829 58.5044 164.668 58.9813 164.625 59.4757C164.582 59.9701 164.658 60.4676 164.847 60.9267C165.035 61.3858 165.331 61.7932 165.708 62.1148C166.538 62.8493 167.615 63.2437 168.722 63.2192C169.653 63.2489 170.56 62.9178 171.252 62.2952C171.912 61.6528 172.414 60.7728 172.339 60.0468" fill="#FFC700"/>
<path d="M181.861 62.7791C185.596 63.4523 189.314 59.3075 190.221 56.6191C190.314 56.4872 190.36 56.3279 190.353 56.1667C190.345 56.0054 190.284 55.8512 190.179 55.7285C190.074 55.6058 189.931 55.5217 189.773 55.4893C189.615 55.457 189.45 55.4783 189.306 55.5499C187.454 55.8028 185.732 56.6427 184.393 57.9462C183.054 59.2497 182.168 60.9482 181.865 62.7923" fill="#455A64"/>
<path d="M186.067 60.7199C186.167 60.2307 186.133 59.724 185.971 59.252C185.808 58.7801 185.523 58.3602 185.143 58.0359C184.37 57.396 183.393 57.0541 182.389 57.0723C181.509 57.0481 180.641 57.2788 179.89 57.7367C179.463 57.9888 179.102 58.3392 178.837 58.7588C178.573 59.1784 178.413 59.655 178.37 60.149C178.327 60.6431 178.402 61.1403 178.59 61.5993C178.778 62.0582 179.073 62.4657 179.45 62.7879C180.279 63.5224 181.356 63.9168 182.464 63.8923C183.394 63.922 184.301 63.5909 184.994 62.9683C185.654 62.3215 186.155 61.4459 186.08 60.7199" fill="#FFC700"/>
<path d="M158.704 54.859C158.803 54.3699 158.77 53.8631 158.607 53.3912C158.445 52.9193 158.159 52.4994 157.78 52.175C157.006 51.5351 156.029 51.1933 155.025 51.2114C154.146 51.1873 153.278 51.418 152.526 51.8758C152.099 52.1279 151.738 52.4783 151.474 52.8979C151.21 53.3175 151.049 53.7942 151.006 54.2882C150.963 54.7823 151.039 55.2794 151.226 55.7384C151.414 56.1974 151.709 56.6049 152.086 56.927C152.916 57.6616 153.992 58.056 155.1 58.0314C156.031 58.0616 156.938 57.7305 157.63 57.1074C158.29 56.4606 158.792 55.585 158.717 54.859" fill="#FFC700"/>
<path d="M166.76 61.5208C166.729 59.5716 165.387 57.1912 164.248 55.616C163.093 54.0289 161.481 52.8328 159.628 52.1883C159.502 52.1304 159.36 52.1195 159.227 52.1575C159.105 52.2365 159.019 52.3594 158.985 52.5007C158.585 53.6403 158.493 54.8651 158.717 56.0518C158.942 57.2384 159.475 58.3449 160.264 59.2596C161.052 60.1744 162.068 60.8651 163.208 61.2621C164.349 61.659 165.574 61.7483 166.76 61.5208Z" fill="#455A64"/>
<path d="M153.12 58.1635C152.378 57.3106 151.718 56.3899 151.149 55.4135C150.574 54.4328 150.285 53.3113 150.313 52.1751C150.291 52.0903 150.295 52.0011 150.325 51.9187C150.354 51.8364 150.408 51.7647 150.478 51.7127C150.548 51.6608 150.632 51.631 150.72 51.6271C150.807 51.6233 150.894 51.6456 150.968 51.6911C153.084 52.1649 154.997 53.2914 156.437 54.9116C157.877 56.5318 158.772 58.5636 158.994 60.7199L159.1 61.2787C157.316 62.3249 155.197 62.6403 153.186 62.1587C151.56 61.8665 150.009 61.2532 148.623 60.3547C147.226 59.4381 146.232 58.021 145.847 56.3947C147.115 56.1395 148.423 56.1656 149.68 56.4713C150.937 56.7769 152.111 57.3545 153.12 58.1635Z" fill="#455A64"/>
<path d="M176.44 54.8899C178.2 53.0947 180.624 52.1135 183.066 51.5415C183.218 52.7823 183.121 54.0409 182.782 55.2439C182.442 56.447 181.867 57.5704 181.089 58.5487C180.311 59.5271 179.345 60.3408 178.25 60.9424C177.154 61.5441 175.95 61.9216 174.706 62.0531L174.561 61.7847C173.73 59.4219 174.68 56.6851 176.44 54.8899Z" fill="#455A64"/>
<path d="M189.358 60.1128C189.358 60.1128 187.524 68.2968 181.843 75.2708C173.54 85.47 154.849 82.61 149.767 74.6196C147.814 71.5396 142.648 60.1656 142.648 60.1656L189.358 60.1128Z" fill="white"/>
<path d="M189.358 60.1127H188.426H185.786L175.952 60.1655L142.661 60.2667L142.789 60.0731C144.302 63.3863 145.9 66.8139 147.629 70.2767C148.072 71.1567 148.528 72.0367 148.997 72.9167C149.434 73.7883 149.963 74.61 150.577 75.3675C151.783 76.8342 153.281 78.0332 154.977 78.8875C158.187 80.568 161.739 81.4949 165.361 81.5979C168.629 81.7731 171.898 81.2558 174.953 80.0799C177.605 79.0218 179.957 77.3298 181.804 75.1519C184.377 71.9062 186.441 68.2875 187.924 64.4203C188.456 63.0519 188.804 61.9695 189.028 61.2303L189.358 60.0995C189.031 61.5846 188.589 63.0423 188.038 64.4599C186.589 68.3591 184.542 72.0093 181.971 75.2795C180.112 77.4934 177.736 79.216 175.054 80.2955C171.978 81.5105 168.678 82.0579 165.374 81.9015C161.71 81.804 158.116 80.8709 154.867 79.1735C153.131 78.3004 151.596 77.0745 150.361 75.5743C149.738 74.8029 149.199 73.9664 148.755 73.0795C148.284 72.1995 147.827 71.3195 147.382 70.4395C145.658 66.9723 144.065 63.5447 142.542 60.2271L142.45 60.0291H142.666L176.062 60.0599L185.86 60.0863H188.5L189.358 60.1127Z" fill="#263238"/>
<path d="M186.287 67.7334C186.287 67.8126 177.32 67.8654 166.258 67.8522C155.197 67.839 146.23 67.7686 146.23 67.6894C146.23 67.6102 155.197 67.5574 166.258 67.5706C177.32 67.5838 186.287 67.6542 186.287 67.7334Z" fill="#FFC700"/>
<path d="M187.097 66.5808C187.097 66.66 177.808 66.7128 166.355 66.6996C154.902 66.6864 145.614 66.616 145.614 66.5368C145.614 66.4576 154.902 66.4048 166.355 66.418C177.808 66.4312 187.097 66.506 187.097 66.5808Z" fill="#FFC700"/>
<path d="M56.4784 101.2C58.454 97.1036 57.1472 91.696 53.5128 88.9592C49.8784 86.2224 44.3256 86.46 40.9332 89.4872C40.8938 88.5343 40.6336 87.6034 40.1732 86.7681C39.7128 85.9328 39.0647 85.2158 38.28 84.6736C36.6878 83.6034 34.8128 83.032 32.8944 83.0324C31.0669 82.9947 29.2506 83.3259 27.554 84.0063C25.8575 84.6867 24.3157 85.7024 23.0208 86.9924C20.4512 89.584 19.0608 94.6352 19.1752 98.2784C17.1424 97.9616 14.1768 99.9196 12.9184 101.548C11.2587 103.696 10.2846 106.295 10.1232 109.005C9.96171 111.715 10.6203 114.411 12.0132 116.741C13.4061 119.071 15.4686 120.928 17.932 122.069C20.3953 123.21 23.1453 123.583 25.8236 123.138C26.582 125.279 27.9357 127.159 29.7256 128.558C31.5155 129.956 33.6673 130.814 35.9281 131.032C38.1889 131.249 40.4649 130.817 42.4887 129.786C44.5124 128.755 46.1999 127.168 47.3528 125.211C47.828 124.401 48.2328 123.499 49.0028 122.949C49.8828 122.316 51.0224 122.272 52.0828 122.096C54.369 121.731 56.4907 120.681 58.1674 119.084C59.8442 117.488 60.9972 115.42 61.4739 113.155C61.9507 110.889 61.7288 108.532 60.8377 106.395C59.9465 104.258 58.428 102.442 56.4828 101.187L56.4784 101.2Z" fill="white"/>
<path d="M56.4784 101.2L56.7248 101.367C56.9683 101.526 57.202 101.699 57.4244 101.886C58.3073 102.594 59.0721 103.438 59.6904 104.386C60.6981 105.893 61.351 107.61 61.6 109.406C61.9463 111.823 61.4706 114.287 60.2492 116.402C59.5296 117.629 58.6055 118.725 57.5168 119.64C56.9322 120.125 56.3032 120.554 55.638 120.921C55.2964 121.111 54.9454 121.285 54.5864 121.44L54.032 121.656L53.7504 121.761L53.46 121.845C52.6689 122.074 51.8591 122.233 51.04 122.32C50.2044 122.383 49.4078 122.699 48.7564 123.226C48.136 123.803 47.7752 124.617 47.3088 125.374C46.8388 126.149 46.2774 126.866 45.6368 127.508C45.3109 127.834 44.9687 128.144 44.6116 128.436C44.2376 128.718 43.8636 129.004 43.4588 129.25C42.6462 129.756 41.7818 130.173 40.8804 130.495C38.9955 131.153 36.975 131.324 35.0064 130.992C32.9544 130.611 31.034 129.711 29.4272 128.379C27.7502 127.017 26.4718 125.228 25.7268 123.2L25.8192 123.253C24.1921 123.506 22.5324 123.46 20.922 123.116C19.2662 122.758 17.6862 122.111 16.2536 121.207C14.7872 120.28 13.5081 119.086 12.4828 117.687C11.461 116.233 10.7454 114.586 10.3796 112.847C10.0381 111.225 9.97853 109.556 10.2036 107.914C10.431 106.3 10.9356 104.737 11.6952 103.294C11.8932 102.942 12.0956 102.595 12.3112 102.26L12.6588 101.768L12.8348 101.526L13.0284 101.292C13.5485 100.695 14.1396 100.163 14.7884 99.7084C15.4306 99.2522 16.1248 98.8741 16.8564 98.582C17.5813 98.2716 18.3728 98.1491 19.1576 98.2256L19.0608 98.3136C19.0295 96.6817 19.2219 95.0532 19.6328 93.4736C19.8228 92.6988 20.0638 91.9374 20.3544 91.1944C20.6362 90.4594 20.9746 89.7474 21.3664 89.0648C22.1375 87.7235 23.1879 86.5636 24.4464 85.6636C25.648 84.7787 26.9854 84.0951 28.4064 83.6396C29.7665 83.1925 31.1899 82.9681 32.6216 82.9752C33.9972 82.9608 35.3626 83.2118 36.6432 83.7144C37.8742 84.1922 38.9524 84.9951 39.7628 86.0376C40.5416 87.0271 40.9799 88.2416 41.0124 89.5004L40.9068 89.4564C42.4344 88.1391 44.3234 87.3126 46.3276 87.0848C48.1121 86.8736 49.9209 87.1235 51.5812 87.8108C52.3265 88.1227 53.0277 88.531 53.6668 89.0252C54.2491 89.4945 54.7788 90.0256 55.2464 90.6092C56.0527 91.6429 56.6504 92.8235 57.0064 94.0852C57.3008 95.0853 57.4489 96.1227 57.4464 97.1652C57.4356 97.5818 57.4018 97.9975 57.3452 98.4104C57.2994 98.7543 57.2333 99.0951 57.1472 99.4312C57.0398 99.8833 56.8926 100.325 56.7072 100.751L56.5136 101.191C56.5136 101.191 56.5708 101.042 56.6896 100.751C56.8715 100.324 57.0186 99.8823 57.1296 99.4312C57.2106 99.0962 57.2723 98.7568 57.3144 98.4148C57.3699 98.0019 57.4007 97.5861 57.4068 97.1696C57.4087 96.1271 57.2605 95.0898 56.9668 94.0896C56.6044 92.8425 56.007 91.6761 55.2068 90.6532C54.9817 90.3673 54.7392 90.0954 54.4808 89.8392C54.2168 89.5693 53.9345 89.3179 53.636 89.0868C53.003 88.5976 52.3075 88.1951 51.568 87.89C49.9241 87.2167 48.1354 86.9744 46.3716 87.186C44.3927 87.4143 42.5284 88.2331 41.0212 89.5356L40.9156 89.6324V89.4916C40.8799 88.2605 40.4478 87.0738 39.6836 86.108C38.8839 85.0827 37.8187 84.296 36.6036 83.8332C35.3417 83.342 33.9977 83.0956 32.6436 83.1072C31.9436 83.1027 31.2445 83.1571 30.5536 83.27C29.8486 83.3793 29.1539 83.547 28.4768 83.7716C27.063 84.2268 25.7339 84.9121 24.5432 85.8C23.3041 86.6867 22.2727 87.8322 21.5204 89.1572C21.133 89.8311 20.799 90.5343 20.5216 91.2604C20.2326 91.9904 19.9915 92.7386 19.8 93.5C19.3965 95.0643 19.2085 96.6764 19.2412 98.2916V98.3884H19.14C18.3891 98.3176 17.6325 98.4371 16.94 98.736C15.4981 99.3192 14.2074 100.222 13.1648 101.376L12.98 101.605L12.8084 101.842L12.4652 102.326C12.2496 102.661 12.0516 103.004 11.8536 103.347C11.1059 104.773 10.6088 106.316 10.384 107.91C10.16 109.536 10.2196 111.188 10.56 112.794C10.9244 114.505 11.6309 116.124 12.6368 117.555C13.6464 118.941 14.9077 120.124 16.3548 121.044C17.7723 121.937 19.334 122.577 20.9704 122.936C22.5625 123.272 24.2023 123.317 25.8104 123.068H25.8808V123.134C26.615 125.144 27.8783 126.918 29.5372 128.269C31.1221 129.582 33.0146 130.471 35.0372 130.852C36.9806 131.179 38.9752 131.011 40.8364 130.363C41.7278 130.048 42.5821 129.637 43.384 129.136C43.777 128.888 44.1573 128.621 44.5236 128.335C44.8779 128.046 45.2171 127.739 45.54 127.415C46.1743 126.783 46.7298 126.077 47.1944 125.312C47.6344 124.568 48.0172 123.741 48.6684 123.138C48.9939 122.846 49.3757 122.623 49.7904 122.483C50.193 122.352 50.6069 122.259 51.0268 122.206C51.8355 122.117 52.6349 121.958 53.416 121.73L53.702 121.651L53.9792 121.546L54.5292 121.334C54.8812 121.163 55.242 121.022 55.572 120.824C57.4757 119.78 59.0581 118.236 60.148 116.358C61.36 114.264 61.8385 111.825 61.5076 109.428C61.2685 107.641 60.6293 105.931 59.6376 104.425C59.0258 103.479 58.2719 102.633 57.4024 101.917C57.1807 101.727 56.9486 101.549 56.7072 101.385L56.4784 101.2Z" fill="#263238"/>
<path d="M67.3748 99.3333C67.6635 97.5584 66.4587 95.8855 64.6838 95.5968C62.9089 95.308 61.236 96.5128 60.9473 98.2877C60.6585 100.063 61.8633 101.736 63.6382 102.024C65.4131 102.313 67.086 101.108 67.3748 99.3333Z" fill="white"/>
<path d="M67.4212 98.8064C67.4212 98.8064 67.4212 98.516 67.2848 98.0188C67.1259 97.4294 66.8037 96.8969 66.3553 96.4828C65.9069 96.0686 65.3506 95.7896 64.7504 95.678C64.1901 95.5763 63.6128 95.6264 63.0784 95.8232C62.7896 95.9258 62.5191 96.0743 62.2776 96.2632C62.0162 96.4469 61.7872 96.673 61.6 96.932C61.1998 97.475 60.9839 98.1318 60.9839 98.8064C60.9839 99.4809 61.1998 100.138 61.6 100.681C61.9723 101.188 62.4847 101.575 63.074 101.794C63.6094 101.986 64.1855 102.036 64.746 101.939C65.3469 101.828 65.9039 101.548 66.3524 101.133C66.801 100.718 67.1227 100.184 67.2804 99.594C67.408 99.0968 67.3948 98.8064 67.4168 98.8064C67.4356 99.0768 67.4119 99.3485 67.3464 99.6116C67.2004 100.227 66.8799 100.787 66.4233 101.225C65.9668 101.663 65.3935 101.96 64.7724 102.08C64.1841 102.193 63.5763 102.146 63.0124 101.944C62.708 101.842 62.4214 101.694 62.1632 101.504C61.8912 101.306 61.6521 101.067 61.4548 100.795C61.0298 100.223 60.8003 99.5283 60.8003 98.8152C60.8003 98.102 61.0298 97.4078 61.4548 96.8352C61.6533 96.5641 61.8922 96.3252 62.1632 96.1268C62.4223 95.9377 62.7086 95.7894 63.0124 95.6868C63.5763 95.4847 64.1841 95.4376 64.7724 95.5504C65.3935 95.6705 65.9668 95.9673 66.4233 96.4051C66.8799 96.843 67.2004 97.4033 67.3464 98.0188C67.412 98.2758 67.4372 98.5415 67.4212 98.8064Z" fill="#263238"/>
<path d="M30.36 88.0615L32.9384 110.537C32.9768 110.873 33.1402 111.183 33.396 111.404C33.6519 111.626 33.9816 111.743 34.32 111.733L43.4764 111.452C43.8196 111.444 44.1471 111.306 44.3922 111.066C44.6374 110.826 44.7819 110.501 44.7964 110.158L45.7776 87.7183L30.36 88.0615Z" fill="#FFC700"/>
<path d="M30.36 88.0615H30.6372L31.4468 88.0395L34.5488 87.9647L45.7688 87.7051H45.804V87.7403C45.5532 93.7199 45.232 101.129 44.88 109.12L44.8404 110.07C44.8362 110.392 44.7229 110.702 44.5192 110.95C44.3115 111.202 44.0219 111.374 43.7008 111.434C43.545 111.458 43.3875 111.468 43.23 111.465H42.7636L39.1072 111.575L35.5872 111.685L34.7072 111.711H34.2672C34.1178 111.716 33.9688 111.693 33.8272 111.645C33.549 111.557 33.3058 111.383 33.132 111.148C32.9653 110.916 32.869 110.641 32.8548 110.356C32.3576 105.956 31.9088 102.023 31.5348 98.7095C31.1608 95.3963 30.8616 92.7167 30.6548 90.8643C30.5536 89.9403 30.4744 89.2231 30.4172 88.7347C30.3908 88.4971 30.3732 88.2947 30.36 88.1847C30.3468 88.0747 30.36 87.9999 30.36 87.9999C30.36 87.9999 30.36 88.0659 30.3864 88.1891C30.4128 88.3123 30.426 88.5059 30.4524 88.7479C30.5096 89.2363 30.5976 89.9579 30.7032 90.8863C30.9232 92.7387 31.2356 95.4183 31.6184 98.7271C32.0012 102.036 32.4588 105.974 32.9648 110.347C32.9772 110.619 33.069 110.88 33.2288 111.1C33.382 111.344 33.6107 111.531 33.88 111.632C34.1522 111.697 34.4337 111.714 34.7116 111.681L35.5916 111.654L39.1116 111.544L42.7724 111.43H43.2124C43.3595 111.428 43.5064 111.418 43.6524 111.399C43.9505 111.345 44.2209 111.189 44.418 110.959C44.6142 110.72 44.7201 110.419 44.7172 110.11C44.7172 109.797 44.748 109.481 44.7612 109.159C45.1132 101.151 45.4388 93.7595 45.7028 87.7579L45.738 87.7931L34.54 88.0131L31.4292 88.0703H30.6152L30.36 88.0615Z" fill="#263238"/>
<g opacity="0.3">
<path opacity="0.3" d="M45.3597 97.3411C40.7101 97.7159 36.0436 97.8379 31.3809 97.7063L32.0849 104.465C32.0849 104.465 40.3129 105.534 45.0825 103.646L45.3597 97.3411Z" fill="black"/>
</g>
<g opacity="0.3">
<path opacity="0.3" d="M45.7248 88.9415C45.7248 88.9415 41.91 90.9523 35.7984 90.8115C31.3588 90.7059 30.5184 89.6631 30.5184 89.6631L30.426 88.6511L45.76 88.0879L45.7248 88.9415Z" fill="black"/>
</g>
<path d="M46.3803 86.4731L46.7939 88.0087C46.7939 88.0087 45.0955 89.5355 37.9367 89.7159C31.5303 89.8787 29.9287 88.7567 29.9287 88.7567L29.4095 88.3475L29.7879 86.8647L46.3803 86.4731Z" fill="#E0E0E0"/>
<path d="M46.3803 86.4732H46.2923H46.0459L45.0955 86.504L41.5755 86.6008L29.7835 86.8956L29.8275 86.8648C29.7043 87.3356 29.5767 87.8372 29.4491 88.3476V88.3036L29.9859 88.7216C30.1938 88.8331 30.4119 88.9244 30.6371 88.9944C30.7515 89.034 30.8615 89.0692 30.9759 89.1L31.3191 89.188C31.7737 89.295 32.2333 89.3787 32.6963 89.4388C33.5864 89.5593 34.4824 89.6313 35.3803 89.6544C37.0061 89.7058 38.6335 89.6705 40.2555 89.5488C41.5779 89.4629 42.8915 89.2746 44.1847 88.9856C44.6949 88.8756 45.1964 88.7285 45.6851 88.5456C46.0789 88.4116 46.452 88.2235 46.7939 87.9868C46.6663 87.494 46.5651 87.1068 46.4947 86.8472C46.4639 86.7196 46.4375 86.6228 46.4199 86.5524C46.4181 86.5172 46.4181 86.482 46.4199 86.4468L46.4463 86.5436C46.4463 86.614 46.4947 86.7108 46.5299 86.8384C46.6047 87.098 46.7103 87.4852 46.8511 87.978C46.5095 88.2223 46.1346 88.4164 45.7379 88.5544C45.2462 88.7329 44.7436 88.8798 44.2331 88.9944C42.93 89.2891 41.6061 89.4833 40.2731 89.5752C38.6498 89.7001 37.021 89.7383 35.3935 89.6896C34.4913 89.6663 33.5909 89.5944 32.6963 89.474C32.2319 89.4139 31.7707 89.3302 31.3147 89.2232L30.9671 89.1352C30.8527 89.1059 30.7383 89.0707 30.6239 89.0296C30.3908 88.9601 30.1664 88.8641 29.9551 88.7436C29.7615 88.5984 29.5811 88.4532 29.4095 88.3036V88.2772C29.5371 87.7668 29.6691 87.2652 29.7879 86.7944V86.7636H29.8187L41.6371 86.4996L45.1571 86.4292H46.0987H46.4243L46.3803 86.4732Z" fill="#263238"/>
<path d="M29.7836 86.9968C29.7836 87.7448 33.5104 88.1408 38.1436 88.0792C41.294 88.0396 45.8568 87.2564 46.3936 86.4512C46.8116 85.8264 42.636 85.2148 38.0336 85.3644C33.4312 85.514 29.7572 86.24 29.7836 86.9968Z" fill="white"/>
<path d="M29.7837 86.9967C29.7788 86.9676 29.7788 86.9378 29.7837 86.9087C29.8157 86.8249 29.8705 86.7517 29.9421 86.6975C30.2145 86.4989 30.5198 86.3499 30.8441 86.2575C32.0274 85.9186 33.2397 85.6903 34.4653 85.5755C36.2767 85.3736 38.0986 85.2796 39.9213 85.2939C40.9509 85.2939 42.0289 85.3511 43.1465 85.4567C43.7053 85.5139 44.2685 85.5799 44.8405 85.6855C45.1282 85.7349 45.4132 85.7995 45.6941 85.8791C45.844 85.9205 45.991 85.9719 46.1341 86.0331C46.2042 86.0636 46.2706 86.1019 46.3321 86.1475C46.3694 86.172 46.4001 86.2052 46.4216 86.2444C46.4431 86.2835 46.4546 86.3273 46.4553 86.3719C46.4515 86.4163 46.4329 86.4582 46.4025 86.4907C46.3769 86.5221 46.3489 86.5516 46.3189 86.5787C46.2625 86.629 46.2022 86.6746 46.1385 86.7151C46.0096 86.7913 45.8758 86.8589 45.7381 86.9175C45.4663 87.0279 45.1887 87.1234 44.9065 87.2035C44.3521 87.3619 43.7933 87.4807 43.2433 87.5863C42.1389 87.7887 41.0433 87.9251 40.0401 88.0263C39.5253 88.0703 39.0237 88.0967 38.5353 88.1143C38.0469 88.1319 37.5761 88.1143 37.1185 88.1143C36.2033 88.1143 35.3585 88.0879 34.5753 88.0483C33.3446 88.007 32.1198 87.8598 30.9145 87.6083C30.5854 87.544 30.2698 87.4234 29.9817 87.2519C29.907 87.2033 29.8476 87.1347 29.8101 87.0539C29.8057 87.0336 29.8057 87.0126 29.8101 86.9923V86.9703C29.8101 86.9703 29.8101 87.0011 29.8365 87.0539C29.8744 87.1309 29.9341 87.1952 30.0081 87.2387C30.2973 87.4033 30.6129 87.5164 30.9409 87.5731C32.1449 87.8077 33.3666 87.9401 34.5929 87.9691C35.3717 88.0043 36.2209 88.0219 37.1361 88.0219C37.5761 88.0219 38.0689 88.0219 38.5529 88.0219C39.0369 88.0219 39.5385 87.9779 40.0489 87.9339C41.1203 87.8408 42.1865 87.6939 43.2433 87.4939C43.7933 87.3883 44.3477 87.2695 44.9021 87.1111C45.1801 87.0331 45.4533 86.9391 45.7205 86.8295C45.8543 86.7732 45.9837 86.7071 46.1077 86.6315C46.1692 86.5951 46.2267 86.5523 46.2793 86.5039C46.3061 86.4823 46.3297 86.4571 46.3497 86.4291C46.371 86.4094 46.385 86.383 46.3893 86.3543C46.3861 86.3246 46.3761 86.2961 46.3601 86.2709C46.3441 86.2457 46.3224 86.2245 46.2969 86.2091C46.2409 86.1672 46.1804 86.1318 46.1165 86.1035C45.9844 86.0426 45.8475 85.9926 45.7073 85.9539C45.4293 85.8743 45.1473 85.8097 44.8625 85.7603C44.2949 85.6591 43.7273 85.5887 43.1729 85.5315C42.0597 85.4259 40.9729 85.3775 39.9565 85.3643C38.1358 85.3459 36.3156 85.4326 34.5049 85.6239C33.2834 85.7353 32.0744 85.9562 30.8925 86.2839C30.5697 86.3689 30.2633 86.5072 29.9861 86.6931C29.9188 86.7461 29.8646 86.8138 29.8277 86.8911C29.7837 86.9659 29.7881 86.9967 29.7837 86.9967Z" fill="#263238"/>
<path d="M42.7504 85.1619L42.9836 86.0419C42.9836 86.0419 42.0332 86.9791 38.0028 87.0011C33.9724 87.0231 33.5016 86.4599 33.5016 86.4599L33.3784 86.3235L33.4268 85.3995L42.7504 85.1619Z" fill="#E0E0E0"/>
<path d="M42.7505 85.1619H42.5613L42.0245 85.1839L40.0489 85.2411L33.4489 85.4171L33.4885 85.3775C33.4885 85.6679 33.4621 85.9847 33.4445 86.3015V86.2707L33.5325 86.3675C33.5551 86.4005 33.5852 86.4277 33.6205 86.4467C33.8422 86.5554 34.0775 86.6338 34.3201 86.6799C34.5753 86.7327 34.8349 86.7679 35.0901 86.7987C35.6005 86.8603 36.1021 86.8867 36.5905 86.9087C37.5673 86.9395 38.4869 86.9395 39.3141 86.8867C40.0548 86.8467 40.7908 86.7437 41.5141 86.5787C41.799 86.5157 42.0785 86.4304 42.3501 86.3235C42.5683 86.2456 42.7732 86.1343 42.9573 85.9935C42.8869 85.7207 42.8341 85.5051 42.7945 85.3555L42.7549 85.1883V85.1267C42.7565 85.1443 42.7565 85.1619 42.7549 85.1795C42.7549 85.2191 42.7857 85.2719 42.8033 85.3423L42.9881 85.9847C42.802 86.1307 42.5941 86.2465 42.3721 86.3279C42.0994 86.4404 41.8184 86.5316 41.5317 86.6007C40.8088 86.7701 40.0728 86.8775 39.3317 86.9219C38.5001 86.9791 37.5717 86.9835 36.6037 86.9527C36.1109 86.9527 35.6093 86.9087 35.0945 86.8515C34.8349 86.8163 34.5753 86.7855 34.3157 86.7283C34.0468 86.6823 33.786 86.5978 33.5413 86.4775C33.4998 86.4512 33.4627 86.4185 33.4313 86.3807L33.3433 86.2839C33.3433 85.9671 33.3741 85.6503 33.3873 85.3599H33.4401L40.0885 85.2235L42.0597 85.1883H42.5877H42.7681L42.7505 85.1619Z" fill="#263238"/>
<path d="M33.44 85.4522C33.44 85.8922 35.552 86.1474 38.1304 86.0638C40.7088 85.9802 42.7812 85.571 42.768 85.1486C42.7548 84.7262 40.656 84.4534 38.0776 84.537C35.4992 84.6206 33.4092 85.0342 33.44 85.4522Z" fill="white"/>
<path d="M33.4399 85.4524C33.436 85.4365 33.436 85.4199 33.4399 85.404C33.4578 85.3571 33.4882 85.316 33.5279 85.2852C33.6806 85.1735 33.8519 85.0901 34.0339 85.0388C34.6994 84.8452 35.3814 84.7141 36.0711 84.6472C37.0937 84.5322 38.1222 84.4779 39.1511 84.4844C39.7275 84.4844 40.3391 84.5064 40.9683 84.5636C41.2807 84.5944 41.6019 84.634 41.9231 84.6956C42.0856 84.7278 42.2458 84.7705 42.4027 84.8232C42.4838 84.8486 42.562 84.8826 42.6359 84.9244C42.6805 84.9447 42.7196 84.9752 42.7502 85.0134C42.7807 85.0517 42.8019 85.0965 42.8119 85.1444C42.806 85.1931 42.7885 85.2396 42.761 85.2802C42.7334 85.3208 42.6966 85.3542 42.6535 85.3776C42.5806 85.4233 42.5041 85.463 42.4247 85.4964C42.2715 85.5597 42.1143 85.6126 41.9539 85.6548C41.6371 85.7384 41.3203 85.7956 41.0079 85.8484C40.3875 85.9496 39.7803 86.0068 39.1995 86.0464C38.1745 86.1199 37.1461 86.1331 36.1195 86.086C35.4267 86.0655 34.7373 85.9801 34.0603 85.8308C33.8752 85.7902 33.6982 85.7188 33.5367 85.6196C33.4973 85.5894 33.4656 85.5502 33.4443 85.5052C33.4397 85.4879 33.4397 85.4697 33.4443 85.4524C33.452 85.4839 33.4661 85.5135 33.4858 85.5393C33.5055 85.565 33.5303 85.5864 33.5587 85.602C33.7184 85.698 33.8944 85.7637 34.0779 85.7956C34.7545 85.9341 35.4423 86.0107 36.1327 86.0244C37.1597 86.0629 38.188 86.0438 39.2127 85.9672C39.7891 85.9276 40.3919 85.866 41.0123 85.7648C41.328 85.7172 41.6409 85.6526 41.9495 85.5712C42.0988 85.5277 42.2457 85.4763 42.3895 85.4172C42.463 85.3867 42.5337 85.3499 42.6007 85.3072C42.6623 85.2632 42.7195 85.206 42.7195 85.1488C42.7195 85.0916 42.6579 85.0388 42.5875 84.9992C42.5191 84.9599 42.4468 84.9275 42.3719 84.9024C42.2174 84.8526 42.0603 84.8115 41.9011 84.7792C41.5843 84.7176 41.2675 84.678 40.9551 84.6472C40.3303 84.59 39.7231 84.568 39.1467 84.5636C38.1182 84.5539 37.0899 84.6023 36.0667 84.7088C35.3799 84.7694 34.6997 84.8901 34.0339 85.0696C33.8521 85.1164 33.6795 85.1937 33.5235 85.2984C33.5002 85.3173 33.4808 85.3407 33.4664 85.3671C33.4521 85.3935 33.4431 85.4225 33.4399 85.4524Z" fill="#263238"/>
<path d="M37.3164 85.1135L36.7004 75.0551L37.9676 74.9495L38.5836 85.0695C38.0864 85.0783 37.7784 85.2543 37.3164 85.1135Z" fill="white"/>
<path d="M37.3164 85.1135C37.4234 85.138 37.5324 85.1527 37.642 85.1575C37.7734 85.1551 37.9044 85.1419 38.0336 85.1179C38.215 85.0819 38.3989 85.0599 38.5836 85.0519C38.456 83.2171 38.214 79.3847 37.9456 74.9671V74.9319L37.9896 74.9715L36.7224 75.0771L36.762 75.0331C36.9292 77.8579 37.0788 80.3703 37.202 82.1743C37.2504 83.0763 37.29 83.8023 37.3208 84.3083C37.3208 84.5591 37.3428 84.7483 37.3472 84.8891V85.0387C37.3472 85.0739 37.3472 85.0915 37.3472 85.0915C37.3472 85.0915 37.3472 85.0915 37.3472 85.0431V84.8979C37.3472 84.7615 37.3472 84.5723 37.3076 84.3259C37.2724 83.8243 37.224 83.1027 37.1624 82.2051C37.048 80.3923 36.8896 77.8755 36.7224 75.0375V74.9935H36.7664L38.0336 74.8879H38.0732V74.9671C38.3416 79.3671 38.5616 83.2171 38.6628 85.0563C38.4798 85.0619 38.2974 85.0811 38.1172 85.1135C37.9849 85.1353 37.8509 85.1456 37.7168 85.1443C37.635 85.1399 37.5538 85.1266 37.4748 85.1047L37.3164 85.1135Z" fill="#263238"/>
<path d="M37.5848 75.0244L38.1876 85.1092H37.7168L37.0436 75.0596L37.5848 75.0244Z" fill="#455A64"/>
<path d="M36.8456 85.03C36.8456 85.0036 37.4088 85.0872 38.104 85.0608C38.7992 85.0344 39.3492 84.9244 39.3536 84.9508C39.2394 84.9981 39.1196 85.0307 38.9972 85.0476C38.7071 85.1051 38.4128 85.139 38.1172 85.1488C37.8232 85.1565 37.529 85.1418 37.2372 85.1048C37.1039 85.0974 36.9722 85.0722 36.8456 85.03Z" fill="#263238"/>
<path d="M46.024 88.4398C45.9073 88.2066 45.8201 87.9598 45.7644 87.705C45.6793 87.4579 45.6188 87.2029 45.584 86.9438C45.7006 87.1771 45.7878 87.4239 45.8436 87.6786C45.9261 87.9266 45.9864 88.1813 46.024 88.4398Z" fill="#263238"/>
<path d="M44.7217 88.8798C44.6013 88.6402 44.5083 88.3878 44.4445 88.1274C44.3513 87.874 44.285 87.6115 44.2465 87.3442C44.3675 87.5851 44.4605 87.839 44.5237 88.101C44.6165 88.3531 44.6829 88.6141 44.7217 88.8798Z" fill="#263238"/>
<path d="M43.3004 89.2715C43.1902 89.0171 43.1076 88.7516 43.054 88.4795C42.9713 88.2134 42.9182 87.9389 42.8956 87.6611C42.9956 87.9128 43.0707 88.1737 43.12 88.4399C43.2094 88.71 43.2699 88.9887 43.3004 89.2715Z" fill="#263238"/>
<path d="M41.6153 89.5223C41.5236 89.2579 41.4573 88.9853 41.4173 88.7083C41.3536 88.4352 41.3153 88.1568 41.3029 87.8767C41.3993 88.1397 41.4658 88.4128 41.5009 88.6907C41.5674 88.9633 41.6057 89.2419 41.6153 89.5223Z" fill="#263238"/>
<path d="M39.8464 89.672C39.7877 89.1177 39.7877 88.5587 39.8464 88.0044C39.8992 88.559 39.8992 89.1174 39.8464 89.672Z" fill="#263238"/>
<path d="M38.3944 89.6807C38.3559 89.4185 38.347 89.1528 38.368 88.8887C38.3629 88.6219 38.3835 88.3552 38.4296 88.0923C38.4679 88.353 38.4768 88.6172 38.456 88.8799C38.4622 89.1482 38.4416 89.4165 38.3944 89.6807Z" fill="#263238"/>
<path d="M36.8588 89.6894C36.8338 89.4254 36.8427 89.1593 36.8852 88.8974C36.9037 88.6324 36.9554 88.3708 37.0392 88.1187C37.0377 88.3825 37.0156 88.6458 36.9732 88.9062C36.9575 89.1701 36.9192 89.4321 36.8588 89.6894Z" fill="#263238"/>
<path d="M35.0416 89.6412C35.0638 89.3658 35.1124 89.0932 35.1868 88.8272C35.2375 88.5559 35.3156 88.2905 35.42 88.0352C35.3975 88.3108 35.3474 88.5835 35.2704 88.8492C35.2232 89.1207 35.1465 89.3863 35.0416 89.6412Z" fill="#263238"/>
<path d="M33.3872 89.5797C33.4006 89.3014 33.4449 89.0254 33.5192 88.7569C33.5666 88.482 33.6403 88.2124 33.7392 87.9517C33.7228 88.23 33.6771 88.5058 33.6028 88.7745C33.558 89.0494 33.4858 89.3191 33.3872 89.5797Z" fill="#263238"/>
<path d="M31.4204 89.2804C31.4501 89.0172 31.5121 88.7585 31.6052 88.5104C31.6677 88.2522 31.7576 88.0015 31.8736 87.7625C31.8386 88.0262 31.7767 88.2857 31.6888 88.5368C31.6255 88.7934 31.5355 89.0426 31.4204 89.2804Z" fill="#263238"/>
<path d="M29.9464 88.7964C29.9692 88.5617 30.0225 88.3309 30.1048 88.11C30.1619 87.8786 30.2445 87.6543 30.3512 87.4412C30.27 87.9072 30.1342 88.3621 29.9464 88.7964Z" fill="#263238"/>
<path d="M28.3404 100.879C27.5439 100.51 26.6892 100.284 25.8148 100.21C24.09 100.082 21.7976 100.544 21.8196 103.95C21.8548 109.393 28.336 113.454 36.8192 115.007C45.3024 116.56 50.0192 114.004 51.568 111.593C52.9408 109.445 53.1608 105.098 48.752 104.812C43.824 104.495 44 107.914 28.3404 100.879Z" fill="#FFBF9D"/>
<path d="M19.3601 106.577C19.0354 106.315 18.7694 105.987 18.5793 105.615C18.3892 105.244 18.2792 104.836 18.2564 104.42C18.2336 104.003 18.2985 103.586 18.4469 103.196C18.5954 102.806 18.824 102.451 19.1181 102.155C19.8442 101.481 20.8027 101.114 21.7933 101.13C22.7691 101.157 23.7326 101.355 24.6401 101.715C24.6401 101.715 33.7481 106.022 38.4649 106.577C43.1817 107.131 46.7105 106.102 48.0173 105.864C49.3241 105.626 52.4965 105.468 53.2093 107.369C53.9221 109.27 52.9321 111.074 51.3085 112.174C49.6849 113.274 41.3997 115.337 31.3677 112.482C23.1661 110.145 19.3601 106.577 19.3601 106.577Z" fill="#B4675E"/>
<path d="M47.4496 108.922C47.3509 108.923 47.2523 108.916 47.1548 108.9C46.5843 108.766 46.0621 108.476 45.6456 108.064C45.358 107.772 45.0028 107.556 44.6116 107.435C44.0836 107.338 43.5776 107.677 42.988 108.068C42.4341 108.506 41.7761 108.793 41.0784 108.9C39.952 108.975 39.094 108.209 38.3372 107.532C37.664 106.933 37.0172 106.37 36.3044 106.388C35.8755 106.439 35.4604 106.572 35.0812 106.779C34.4696 107.056 33.7612 107.369 33.022 107.175C32.142 106.938 31.658 106.132 31.262 105.415C30.9144 104.812 30.5888 104.245 30.074 104.095C29.6516 104.032 29.2199 104.083 28.8244 104.245C28.2883 104.445 27.7101 104.508 27.1436 104.425C26.51 104.223 25.949 103.841 25.5288 103.325L25.5024 103.299C25.2093 102.921 24.7992 102.652 24.3364 102.533C24.2416 102.529 24.1471 102.547 24.0602 102.585C23.9733 102.623 23.8962 102.681 23.8348 102.753C23.806 102.779 23.784 102.811 23.7709 102.847C23.7579 102.883 23.7541 102.922 23.76 102.96C23.7832 103.072 23.7644 103.189 23.7071 103.288C23.6499 103.387 23.5581 103.462 23.4495 103.497C23.3408 103.533 23.2227 103.528 23.1177 103.482C23.0127 103.437 22.9281 103.354 22.88 103.25C22.8229 103.066 22.8136 102.87 22.8528 102.68C22.892 102.491 22.9786 102.315 23.1044 102.168C23.2622 101.974 23.4647 101.821 23.6946 101.722C23.9245 101.623 24.1749 101.581 24.4244 101.6C25.1172 101.726 25.7418 102.096 26.1844 102.643L26.2108 102.67C26.5107 103.05 26.9095 103.341 27.3636 103.51C27.7756 103.556 28.1925 103.5 28.578 103.347C29.1381 103.13 29.7486 103.076 30.338 103.193C31.218 103.444 31.658 104.24 32.098 104.953C32.4456 105.556 32.7756 106.128 33.2948 106.273C33.7348 106.388 34.1748 106.176 34.7336 105.93C35.2254 105.666 35.766 105.506 36.322 105.459C37.4132 105.424 38.258 106.181 38.9972 106.841C39.7364 107.501 40.3172 108.024 41.052 107.967C41.5882 107.868 42.0907 107.635 42.5128 107.29C43.1728 106.85 43.9208 106.357 44.8184 106.52C45.3583 106.672 45.8495 106.961 46.244 107.36C46.5366 107.656 46.9001 107.873 47.3 107.989C47.8104 108.068 48.3208 107.721 48.8664 107.351C49.4824 106.938 50.1864 106.471 51.0224 106.546C51.1455 106.558 51.2587 106.619 51.3371 106.715C51.4155 106.81 51.4527 106.933 51.4404 107.056C51.4282 107.18 51.3675 107.293 51.2718 107.371C51.1761 107.45 51.0531 107.487 50.93 107.474C50.4284 107.426 49.9224 107.769 49.39 108.13C48.8358 108.58 48.1605 108.856 47.4496 108.922Z" fill="#FFC700"/>
<path d="M31.1696 104.192C30.9692 103.964 30.7329 103.771 30.47 103.62C30.1886 103.512 29.8911 103.453 29.59 103.444C29.59 103.444 29.6868 103.387 29.8628 103.373C30.0914 103.36 30.3198 103.404 30.5272 103.501C30.7351 103.603 30.9149 103.754 31.0508 103.941C31.152 104.077 31.1828 104.183 31.1696 104.192Z" fill="white"/>
<path d="M36.6872 105.648C36.6872 105.688 36.3044 105.648 35.86 105.745C35.4156 105.842 35.0768 106.018 35.0592 105.983C35.2727 105.783 35.5436 105.655 35.8336 105.617C36.114 105.535 36.4135 105.546 36.6872 105.648Z" fill="white"/>
<path d="M37.5804 106.04C37.5804 106.071 37.466 106.04 37.3604 106.005C37.2548 105.97 37.1844 105.882 37.1976 105.851C37.2108 105.82 37.312 105.851 37.4176 105.886C37.5232 105.921 37.598 106.005 37.5804 106.04Z" fill="white"/>
<path d="M44.88 106.942C44.5442 106.901 44.2052 106.894 43.868 106.92C43.5394 106.985 43.2181 107.082 42.9088 107.21C43.174 106.982 43.4997 106.836 43.8465 106.789C44.1932 106.742 44.5461 106.797 44.8624 106.946L44.88 106.942Z" fill="white"/>
<path d="M51.04 106.7C51.04 106.74 50.644 106.757 50.1864 106.898C49.7288 107.039 49.3856 107.237 49.3636 107.206C49.5771 106.987 49.849 106.834 50.1468 106.766C50.4328 106.662 50.7419 106.639 51.04 106.7Z" fill="white"/>
<path d="M25.3307 102.186C25.0174 102.022 24.672 101.929 24.3187 101.913C23.967 101.943 23.6261 102.049 23.3199 102.225C23.3199 102.225 23.3859 102.111 23.5575 102.005C23.7863 101.863 24.0494 101.785 24.3187 101.781C24.5864 101.778 24.8503 101.844 25.0843 101.974C25.2603 102.08 25.3439 102.177 25.3307 102.186Z" fill="white"/>
<path d="M26.1712 102.96C26.1448 102.986 25.9996 102.89 25.8456 102.736C25.6916 102.582 25.586 102.445 25.6124 102.419C25.6388 102.392 25.7796 102.494 25.938 102.643C26.0964 102.793 26.1976 102.96 26.1712 102.96Z" fill="white"/>
<path d="M25.5199 105.098C24.5389 104.701 23.4974 104.473 22.4399 104.425C20.5171 104.35 18.1147 104.909 18.1367 108.174C18.1719 113.617 25.5199 117.678 35.1999 119.24C44.8799 120.802 50.2083 118.237 51.9595 115.826C53.5215 113.678 53.7723 109.327 48.7607 109.045C43.1199 108.72 43.3267 112.143 25.5199 105.098Z" fill="#FFBF9D"/>
<path d="M30.0872 115.236C29.8004 115.514 29.6331 115.893 29.6208 116.292C29.6252 116.426 29.6773 116.553 29.7677 116.652C29.8581 116.75 29.9809 116.813 30.1137 116.829C30.4789 116.855 30.7121 116.477 30.8221 116.138C30.852 116.047 30.8712 115.952 30.8792 115.856C30.9804 114.62 30.382 114.981 30.0872 115.236Z" fill="white"/>
<path d="M33.5632 112.776C33.2758 113.052 33.1083 113.43 33.0968 113.828C33.1019 113.962 33.1541 114.089 33.2443 114.189C33.3345 114.288 33.4568 114.352 33.5896 114.369C33.9548 114.395 34.188 114.013 34.298 113.674C34.328 113.583 34.3472 113.488 34.3552 113.392C34.4564 112.156 33.88 112.517 33.5632 112.776Z" fill="white"/>
<path d="M24.4156 112.438C24.129 112.714 23.9616 113.091 23.9492 113.489C23.9525 113.624 24.0042 113.752 24.0947 113.852C24.1852 113.951 24.3085 114.015 24.442 114.03C24.8028 114.057 25.036 113.674 25.1504 113.34C25.18 113.248 25.1992 113.154 25.2076 113.058C25.3044 111.817 24.7104 112.2 24.4156 112.438Z" fill="white"/>
<path d="M41.668 116.2C41.4864 116.555 41.4501 116.967 41.5668 117.348C41.6151 117.473 41.7061 117.577 41.8236 117.641C41.9412 117.706 42.0778 117.727 42.2092 117.7C42.5612 117.603 42.6492 117.168 42.6492 116.82C42.6491 116.725 42.6357 116.63 42.6096 116.538C42.3104 115.324 41.8616 115.861 41.668 116.2Z" fill="white"/>
<path d="M34.8084 116.191C34.6273 116.546 34.591 116.958 34.7072 117.339C34.7548 117.465 34.8456 117.569 34.9634 117.634C35.0812 117.698 35.2182 117.719 35.3496 117.691C35.7016 117.599 35.7896 117.159 35.7896 116.811C35.7891 116.715 35.7772 116.619 35.7544 116.525C35.4508 115.32 35.002 115.856 34.8084 116.191Z" fill="white"/>
<path d="M38.1216 115.007C37.9404 115.362 37.9041 115.774 38.0204 116.156C38.0679 116.281 38.1587 116.386 38.2765 116.45C38.3943 116.515 38.5313 116.535 38.6628 116.508C39.0148 116.415 39.1028 115.975 39.1028 115.628C39.1029 115.531 39.0895 115.435 39.0632 115.342C38.764 114.136 38.3152 114.673 38.1216 115.007Z" fill="white"/>
<path d="M28.2392 112.961C27.9005 113.17 27.6548 113.501 27.5528 113.885C27.5278 114.017 27.5503 114.153 27.6164 114.27C27.6824 114.387 27.7877 114.477 27.9136 114.523C28.2612 114.629 28.5736 114.308 28.7584 114.004C28.8072 113.921 28.8456 113.832 28.8728 113.74C29.2468 112.556 28.6 112.776 28.2392 112.961Z" fill="white"/>
<path d="M25.2164 105.631C25.1094 105.61 25.0048 105.58 24.904 105.538C24.706 105.472 24.42 105.376 24.0592 105.274C23.1358 104.979 22.155 104.91 21.1992 105.072C20.6783 105.173 20.1866 105.39 19.7604 105.706C19.4118 105.967 19.1249 106.302 18.92 106.687C18.7426 107.045 18.6408 107.436 18.6208 107.835C18.6208 107.835 18.6208 107.809 18.6208 107.752C18.6118 107.671 18.6118 107.59 18.6208 107.51C18.6406 107.204 18.7182 106.906 18.8496 106.63C19.0448 106.225 19.3309 105.871 19.6856 105.596C20.1215 105.261 20.6291 105.032 21.1684 104.927C21.7033 104.822 22.2518 104.805 22.792 104.878C23.2297 104.938 23.6611 105.037 24.0812 105.173C24.442 105.288 24.7236 105.398 24.9172 105.477C25.0223 105.517 25.1226 105.569 25.2164 105.631Z" fill="white"/>
<path d="M31.9484 108.152C31.8655 108.144 31.7842 108.124 31.7064 108.095L31.0684 107.901C30.5316 107.725 29.7924 107.461 28.9872 107.175C28.182 106.889 27.4604 106.564 26.95 106.322C26.6948 106.198 26.51 106.097 26.3516 106.022C26.2753 105.99 26.2042 105.947 26.1404 105.895C26.4301 105.992 26.7137 106.107 26.9896 106.238C27.5088 106.458 28.226 106.748 29.0312 107.052L31.0992 107.813L31.724 108.046C31.8024 108.073 31.8776 108.109 31.9484 108.152Z" fill="white"/>
<path d="M33.88 108.869C33.6919 108.848 33.5079 108.799 33.3344 108.724C33.0396 108.627 32.7976 108.561 32.8064 108.522C32.9988 108.491 33.1959 108.517 33.374 108.596C33.682 108.68 33.902 108.838 33.88 108.869Z" fill="white"/>
<path d="M52.008 111.54C52.008 111.54 51.898 111.364 51.6604 111.1C51.3158 110.711 50.895 110.396 50.424 110.176C49.7239 109.851 48.9647 109.673 48.1932 109.652C47.2458 109.645 46.2998 109.729 45.3684 109.903C44.431 110.077 43.4828 110.186 42.5304 110.229C41.7521 110.258 40.9727 110.23 40.1984 110.145C39.6767 110.087 39.1582 110.002 38.6452 109.89C38.4648 109.85 38.324 109.815 38.2316 109.789C38.182 109.779 38.1334 109.764 38.0864 109.745C38.136 109.738 38.1864 109.738 38.236 109.745L38.654 109.82C39.0192 109.886 39.534 109.974 40.2072 110.035C40.978 110.105 41.7527 110.124 42.526 110.092C43.4738 110.041 44.4173 109.929 45.3508 109.758C46.289 109.58 47.2428 109.498 48.1976 109.512C48.9837 109.541 49.7551 109.733 50.4636 110.075C50.9408 110.306 51.3625 110.638 51.7 111.047C51.7906 111.159 51.8715 111.278 51.942 111.404C51.9702 111.446 51.9924 111.492 52.008 111.54Z" fill="white"/>
<path d="M26.224 96.7295C23.2676 96.2964 20.5967 94.7274 18.7792 92.3559C18.2248 91.6255 17.7452 90.6443 18.1456 89.8171C18.546 88.9899 19.602 88.7611 20.482 88.9371C21.2472 89.0922 21.9489 89.4718 22.4975 90.0274C23.0461 90.583 23.4166 91.2895 23.562 92.0567C23.0868 90.9875 22.8712 89.7203 23.3552 88.6511C23.8392 87.5819 25.1988 86.8911 26.246 87.4103C26.8651 87.7859 27.3099 88.3921 27.4824 89.0955C28.292 91.6255 27.3284 94.3491 26.3736 96.8263" fill="#FFC700"/>
</svg>
