<svg width="220" height="220" viewBox="0 0 220 220" fill="none" xmlns="http://www.w3.org/2000/svg">
<path opacity="0.7" d="M29.8892 73.5195C29.8892 73.5195 17.622 105.2 34.8612 137.1C52.1004 169 87.6084 185.852 116.028 200.262C144.448 214.672 173.958 207.654 187.981 184.052C202.004 160.45 182.772 143.603 182.745 109.947C182.719 76.2915 187.783 67.3815 169.545 38.9487C151.307 10.5159 106.599 4.2195 72.7892 25.3087C38.9796 46.3979 29.8892 73.5195 29.8892 73.5195Z" fill="white"/>
<path d="M58.08 188.131C68.464 199.095 93.9576 195.078 105.002 188.131C140.862 165.581 203.685 128.04 206.532 73.6558C207.742 50.5426 187.356 38.403 178.842 34.8434C158.4 26.2898 135.96 23.7246 113.806 22.7346C90.6752 21.7006 65.846 22.5058 45.0296 33.7918C37.136 38.0642 29.6912 43.5598 24.596 51.0398C19.4216 58.643 16.4428 67.6982 15.6508 76.837C14.3792 91.577 18.3436 106.357 24.3408 119.882C30.338 133.408 38.3328 145.93 45.672 158.778C50.4636 167.151 49.3504 178.895 58.08 188.131Z" fill="#FFC700"/>
<path opacity="0.7" d="M58.08 188.131C68.464 199.095 93.9576 195.078 105.002 188.131C140.862 165.581 203.685 128.04 206.532 73.6558C207.742 50.5426 187.356 38.403 178.842 34.8434C158.4 26.2898 135.96 23.7246 113.806 22.7346C90.6752 21.7006 65.846 22.5058 45.0296 33.7918C37.136 38.0642 29.6912 43.5598 24.596 51.0398C19.4216 58.643 16.4428 67.6982 15.6508 76.837C14.3792 91.577 18.3436 106.357 24.3408 119.882C30.338 133.408 38.3328 145.93 45.672 158.778C50.4636 167.151 49.3504 178.895 58.08 188.131Z" fill="white"/>
<path d="M62.133 61.8701L41.0341 55.4965C40.2153 55.2491 39.351 55.7124 39.1036 56.5312L35.3509 68.954C35.1036 69.7728 35.5668 70.6371 36.3857 70.8845L57.4845 77.2581C58.3034 77.5055 59.1677 77.0422 59.4151 76.2234L63.1678 63.8006C63.4151 62.9817 62.9518 62.1174 62.133 61.8701Z" stroke="#263238" stroke-width="1.00285" stroke-miterlimit="10"/>
<path d="M38.3593 58.4497L62.3437 65.7185" stroke="#263238" stroke-miterlimit="10"/>
<path d="M37.6288 60.8564L61.6176 68.1252" stroke="#263238" stroke-miterlimit="10"/>
<path d="M54.318 72.6264C54.2569 72.829 54.2376 73.0418 54.261 73.252C54.2845 73.4622 54.3502 73.6655 54.4544 73.8496C54.0948 74.0272 53.6813 74.0618 53.2972 73.9464C53.0526 73.8725 52.8299 73.7398 52.6485 73.5598C52.4672 73.3798 52.3328 73.1581 52.2571 72.9141C52.1813 72.67 52.1666 72.4112 52.2142 72.1601C52.2618 71.9091 52.3703 71.6736 52.5301 71.4742C52.6899 71.2749 52.8962 71.1178 53.1308 71.0167C53.3655 70.9156 53.6213 70.8736 53.876 70.8943C54.1306 70.9151 54.3763 70.9981 54.5914 71.1359C54.8066 71.2737 54.9846 71.4622 55.11 71.6848C54.9218 71.781 54.7548 71.9139 54.6188 72.0756C54.4828 72.2373 54.3805 72.4246 54.318 72.6264Z" stroke="#263238" stroke-miterlimit="10"/>
<path d="M57.3056 73.5328C57.2156 73.8284 57.0399 74.0906 56.8008 74.2863C56.5618 74.482 56.27 74.6024 55.9625 74.6323C55.655 74.6622 55.3455 74.6002 55.0732 74.4542C54.8009 74.3082 54.5781 74.0847 54.4328 73.812C54.2875 73.5394 54.2264 73.2297 54.2571 72.9223C54.2879 72.6149 54.4091 72.3234 54.6054 72.0849C54.8018 71.8464 55.0645 71.6714 55.3603 71.5822C55.6561 71.493 55.9717 71.4935 56.2672 71.5836C56.6633 71.7045 56.9952 71.9777 57.19 72.3432C57.3847 72.7087 57.4263 73.1366 57.3056 73.5328Z" stroke="#263238" stroke-miterlimit="10"/>
<path d="M205.54 91.8571L188.094 86.57C187.278 86.3226 186.415 86.7838 186.168 87.6001L183.11 97.6893C182.863 98.5056 183.324 99.3679 184.14 99.6153L201.586 104.902C202.402 105.15 203.265 104.689 203.512 103.872L206.57 93.783C206.817 92.9667 206.356 92.1045 205.54 91.8571Z" stroke="#263238" stroke-miterlimit="10"/>
<path d="M185.698 89.1528L206.101 95.3348" stroke="#263238" stroke-miterlimit="10"/>
<path d="M185.077 91.2031L205.476 97.3851" stroke="#263238" stroke-miterlimit="10"/>
<path d="M199.272 101.2C199.219 101.372 199.202 101.553 199.222 101.731C199.241 101.91 199.297 102.082 199.386 102.238C199.193 102.332 198.981 102.378 198.767 102.371C198.553 102.364 198.343 102.305 198.157 102.2C197.971 102.094 197.813 101.944 197.697 101.764C197.582 101.584 197.512 101.378 197.493 101.165C197.475 100.951 197.509 100.736 197.592 100.539C197.675 100.342 197.805 100.167 197.971 100.032C198.136 99.8955 198.332 99.8019 198.542 99.7586C198.752 99.7154 198.969 99.7238 199.175 99.7833C199.501 99.8814 199.777 100.102 199.945 100.399C199.784 100.48 199.641 100.592 199.525 100.73C199.41 100.868 199.323 101.028 199.272 101.2V101.2Z" stroke="#263238" stroke-miterlimit="10"/>
<path d="M201.81 101.983C201.733 102.232 201.583 102.452 201.38 102.615C201.178 102.779 200.931 102.879 200.672 102.903C200.413 102.927 200.152 102.874 199.923 102.75C199.694 102.626 199.507 102.437 199.385 102.207C199.263 101.977 199.211 101.716 199.237 101.457C199.263 101.198 199.365 100.952 199.53 100.751C199.696 100.55 199.917 100.402 200.166 100.326C200.415 100.25 200.681 100.249 200.93 100.324C201.098 100.375 201.253 100.457 201.388 100.568C201.523 100.679 201.635 100.816 201.717 100.97C201.799 101.124 201.849 101.293 201.865 101.467C201.881 101.641 201.863 101.816 201.81 101.983V101.983Z" stroke="#263238" stroke-miterlimit="10"/>
<path d="M177.619 43.6543L152.151 55.3145L158.217 68.5646L183.685 56.9044L177.619 43.6543Z" stroke="#263238" stroke-miterlimit="10"/>
<path d="M181.496 55.0001L177.641 46.5829C177.281 46.7474 176.871 46.7623 176.499 46.6246C176.128 46.4869 175.827 46.2077 175.661 45.8481L155.074 55.2729C155.238 55.633 155.253 56.0436 155.115 56.4148C154.978 56.7859 154.698 57.0873 154.339 57.2529L158.193 65.6701C158.372 65.5883 158.565 65.5425 158.761 65.5353C158.957 65.5282 159.153 65.5599 159.337 65.6286C159.521 65.6972 159.689 65.8016 159.833 65.9356C159.976 66.0695 160.092 66.2305 160.173 66.4093L180.756 56.9801C180.675 56.8017 180.629 56.6088 180.622 56.4125C180.615 56.2163 180.646 56.0206 180.715 55.8366C180.784 55.6527 180.888 55.4841 181.022 55.3405C181.156 55.197 181.317 55.0813 181.496 55.0001Z" stroke="#263238" stroke-miterlimit="10"/>
<path d="M170.25 59.149C171.926 57.8611 172.242 55.4579 170.954 53.7813C169.666 52.1047 167.263 51.7896 165.586 53.0775C163.909 54.3654 163.594 56.7686 164.882 58.4452C166.17 60.1218 168.573 60.4369 170.25 59.149Z" stroke="#263238" stroke-miterlimit="10"/>
<path d="M168.96 57.9655L169.246 58.5903L168.973 58.7135L168.692 58.0975C168.21 58.3073 167.669 58.3415 167.165 58.1943V57.8115C167.611 57.9465 168.089 57.9232 168.52 57.7455L167.873 56.3199C167.204 56.4475 166.514 56.5443 166.184 55.8227C165.946 55.3035 166.113 54.6787 166.914 54.2343L166.628 53.6051L166.901 53.4819L167.2 54.1199C167.596 53.9482 168.032 53.8903 168.458 53.9527V54.3355C168.083 54.2813 167.699 54.3252 167.345 54.4631L168.005 55.9063C168.687 55.7699 169.413 55.6467 169.765 56.3771C169.985 56.8831 169.796 57.5211 168.96 57.9655ZM167.702 55.9371L167.077 54.5599C166.536 54.8635 166.417 55.2683 166.575 55.6115C166.76 56.0427 167.2 56.0251 167.697 55.9371H167.702ZM169.36 56.5575C169.167 56.1175 168.7 56.1615 168.181 56.2627L168.802 57.6223C169.4 57.3055 169.514 56.9051 169.356 56.5575H169.36Z" fill="#263238"/>
<path d="M37.0673 104.013L17.4829 105.775L18.3996 115.961L37.984 114.199L37.0673 104.013Z" stroke="#263238" stroke-width="1.00404" stroke-miterlimit="10"/>
<path d="M36.4101 112.138L35.8557 105.692C35.5799 105.716 35.3061 105.629 35.0942 105.45C34.8823 105.272 34.7495 105.018 34.7249 104.742L18.9553 106.106C18.9773 106.382 18.8899 106.655 18.7121 106.866C18.5342 107.078 18.2801 107.211 18.0049 107.237L18.5593 113.683C18.696 113.671 18.8337 113.686 18.9646 113.727C19.0955 113.768 19.2169 113.835 19.322 113.923C19.427 114.011 19.5136 114.12 19.5768 114.241C19.64 114.363 19.6785 114.496 19.6901 114.633L35.4597 113.269C35.4377 112.994 35.525 112.72 35.7029 112.509C35.8808 112.297 36.1348 112.164 36.4101 112.138V112.138Z" stroke="#263238" stroke-miterlimit="10"/>
<path d="M29.876 109.459C29.9219 109.987 29.8102 110.517 29.5549 110.981C29.2997 111.446 28.9124 111.824 28.442 112.069C27.9717 112.313 27.4394 112.413 26.9125 112.354C26.3857 112.296 25.8879 112.083 25.4822 111.742C25.0764 111.401 24.781 110.947 24.6331 110.438C24.4853 109.929 24.4918 109.388 24.6518 108.882C24.8117 108.377 25.118 107.93 25.5318 107.599C25.9455 107.268 26.4483 107.067 26.9764 107.021C27.3269 106.99 27.6801 107.029 28.0156 107.135C28.3512 107.241 28.6626 107.412 28.9319 107.638C29.2013 107.865 29.4233 108.142 29.5853 108.455C29.7473 108.767 29.8461 109.108 29.876 109.459V109.459Z" stroke="#263238" stroke-miterlimit="10"/>
<path d="M27.456 111.157L27.4956 111.637H27.2888L27.2448 111.162C26.8791 111.186 26.5165 111.082 26.2196 110.867L26.3164 110.621C26.579 110.811 26.8985 110.908 27.2228 110.893L27.1304 109.798C26.6596 109.727 26.18 109.626 26.136 109.076C26.1008 108.676 26.356 108.302 26.9896 108.196L26.95 107.717H27.1568L27.1964 108.187C27.5016 108.168 27.8062 108.233 28.0764 108.377L27.9928 108.627C27.758 108.505 27.4961 108.445 27.2316 108.451L27.324 109.556C27.8036 109.626 28.314 109.719 28.3624 110.277C28.3888 110.687 28.1116 111.061 27.456 111.157ZM27.104 109.525L27.0116 108.482C26.5716 108.557 26.4132 108.795 26.4352 109.059C26.4572 109.323 26.752 109.468 27.104 109.525ZM28.05 110.326C28.0192 109.996 27.7068 109.886 27.3416 109.851L27.4296 110.893C27.8872 110.819 28.072 110.59 28.05 110.326Z" fill="#263238"/>
<path d="M195.505 49.5925C197.619 49.5925 199.333 47.8787 199.333 45.7645C199.333 43.6504 197.619 41.9365 195.505 41.9365C193.391 41.9365 191.677 43.6504 191.677 45.7645C191.677 47.8787 193.391 49.5925 195.505 49.5925Z" stroke="#263238" stroke-miterlimit="10"/>
<path d="M195.677 47.8897V48.5761H195.36V47.8941C194.835 47.8837 194.33 47.6926 193.93 47.3529L194.102 47.0097C194.451 47.3169 194.895 47.4968 195.36 47.5201V45.9493C194.7 45.7865 194.04 45.5841 194.04 44.7921C194.04 44.2201 194.454 43.7229 195.36 43.6525V42.9529H195.659V43.6349C196.091 43.644 196.511 43.7736 196.874 44.0089L196.724 44.3609C196.405 44.1551 196.038 44.0353 195.659 44.0133V45.5973C196.332 45.7601 197.045 45.9493 197.045 46.7545C197.063 47.3309 196.627 47.8369 195.677 47.8897ZM195.378 45.5181V44.0265C194.762 44.0793 194.498 44.3961 194.498 44.7745C194.48 45.2277 194.885 45.3949 195.36 45.5181H195.378ZM196.627 46.7765C196.627 46.3057 196.187 46.1429 195.677 46.0153V47.5201C196.332 47.4629 196.627 47.1593 196.627 46.7765Z" fill="#263238"/>
<path d="M170.293 96.9767C172.35 96.4918 173.625 94.4305 173.14 92.3727C172.656 90.3149 170.594 89.0399 168.536 89.5248C166.479 90.0097 165.204 92.071 165.689 94.1288C166.173 96.1866 168.235 97.4616 170.293 96.9767Z" stroke="#263238" stroke-miterlimit="10"/>
<path d="M168.45 95.1456L168.093 95.7308L167.838 95.5724L168.195 94.9916C167.751 94.71 167.421 94.2818 167.262 93.7816L167.587 93.5792C167.725 94.0221 168.009 94.4052 168.393 94.666L169.22 93.324C168.74 92.8444 168.278 92.3208 168.692 91.6476C168.991 91.1592 169.603 90.9524 170.421 91.3704L170.782 90.7808L171.037 90.9392L170.681 91.52C171.041 91.7551 171.332 92.0835 171.521 92.4704L171.209 92.6948C171.043 92.3534 170.793 92.0597 170.483 91.8412L169.651 93.192C170.144 93.6848 170.65 94.2172 170.227 94.9036C169.924 95.3964 169.29 95.5944 168.45 95.1456ZM169.44 92.9456L170.219 91.674C169.669 91.3968 169.268 91.52 169.07 91.8412C168.833 92.2504 169.083 92.6068 169.44 92.9676V92.9456ZM169.845 94.6704C170.091 94.27 169.805 93.9048 169.431 93.5264L168.648 94.8024C169.233 95.128 169.642 95.04 169.84 94.6924L169.845 94.6704Z" fill="#263238"/>
<path d="M114.479 19.36C114.794 20.0487 114.897 20.8152 114.776 21.5625C114.654 22.3098 114.314 23.0043 113.799 23.5584C113.283 24.1125 112.614 24.5011 111.877 24.6752C111.14 24.8493 110.369 24.801 109.659 24.5365C108.95 24.2719 108.335 23.803 107.892 23.189C107.449 22.575 107.199 21.8434 107.171 21.0869C107.144 20.3303 107.342 19.5827 107.74 18.9386C108.138 18.2944 108.717 17.7827 109.406 17.468C109.863 17.2585 110.357 17.1412 110.86 17.1229C111.363 17.1046 111.864 17.1856 112.335 17.3614C112.806 17.5371 113.238 17.8042 113.606 18.1471C113.974 18.4901 114.271 18.9023 114.479 19.36V19.36Z" stroke="#263238" stroke-miterlimit="10"/>
<path d="M112.037 22.8051L112.323 23.4299L112.05 23.5575L111.76 22.9371C111.278 23.1469 110.738 23.1811 110.233 23.0339V22.6511C110.677 22.7854 111.154 22.7636 111.584 22.5895L110.933 21.1551C110.264 21.2827 109.573 21.3751 109.243 20.6579C109.006 20.1343 109.173 19.5139 109.978 19.0695L109.692 18.4403L109.96 18.3171L110.246 18.9375C110.642 18.7658 111.078 18.7079 111.505 18.7703V19.1531C111.129 19.0999 110.746 19.1438 110.392 19.2807L111.052 20.7239C111.734 20.5875 112.46 20.4687 112.812 21.1947C113.08 21.7227 112.878 22.3607 112.037 22.8051ZM110.779 20.7767L110.158 19.4171C109.617 19.7207 109.498 20.1255 109.657 20.4643C109.846 20.8779 110.282 20.8647 110.779 20.7767ZM112.438 21.3971C112.24 20.9571 111.778 21.0055 111.258 21.1023L111.879 22.4619C112.455 22.1451 112.596 21.7491 112.438 21.3971Z" fill="#263238"/>
<path d="M101.587 174.385C102.059 175.42 102.214 176.571 102.032 177.694C101.85 178.817 101.34 179.86 100.565 180.693C99.7895 181.525 98.7851 182.109 97.6782 182.37C96.5713 182.632 95.4117 182.559 94.3461 182.162C93.2804 181.764 92.3566 181.06 91.6913 180.137C91.0261 179.215 90.6493 178.116 90.6087 176.979C90.568 175.843 90.8653 174.72 91.463 173.752C92.0606 172.784 92.9318 172.015 93.9663 171.543C94.6533 171.229 95.3954 171.054 96.1502 171.027C96.9051 171 97.6578 171.122 98.3655 171.386C99.0732 171.649 99.7219 172.05 100.275 172.565C100.827 173.08 101.273 173.698 101.587 174.385V174.385Z" stroke="#263238" stroke-miterlimit="10"/>
<path d="M97.9132 179.568L98.3532 180.51L97.944 180.695L97.504 179.762C96.781 180.079 95.9697 180.132 95.2116 179.912L95.238 179.34C95.9058 179.539 96.6217 179.503 97.2664 179.238L96.2852 177.091C95.2864 177.28 94.2436 177.421 93.7508 176.343C93.39 175.56 93.6452 174.623 94.8508 173.954L94.4108 173.017L94.8156 172.828L95.2556 173.76C95.8512 173.504 96.5059 173.417 97.1476 173.51V174.082C96.5843 174.002 96.0101 174.069 95.48 174.275L96.4656 176.44C97.4908 176.238 98.582 176.057 99.0836 177.148C99.462 177.945 99.1804 178.904 97.9132 179.568ZM96.03 176.519L95.0928 174.478C94.2876 174.918 94.1072 175.538 94.3448 176.057C94.6264 176.678 95.2776 176.656 96.03 176.519ZM98.5204 177.456C98.2256 176.81 97.526 176.862 96.7604 177.016L97.6932 179.058C98.56 178.578 98.758 177.98 98.5204 177.456Z" fill="#263238"/>
<path d="M19.2104 85.0212C18.356 85.7717 17.2982 86.2521 16.1707 86.4015C15.0433 86.5509 13.8969 86.3626 12.8764 85.8606C11.856 85.3585 11.0073 84.5651 10.4377 83.5808C9.86811 82.5964 9.60316 81.4653 9.67636 80.3304C9.74956 79.1954 10.1576 78.1077 10.849 77.2047C11.5403 76.3016 12.4839 75.6239 13.5604 75.2571C14.6369 74.8902 15.7979 74.8508 16.8968 75.1438C17.9957 75.4368 18.9831 76.0491 19.734 76.9032C20.2329 77.4705 20.615 78.1306 20.8587 78.8456C21.1023 79.5607 21.2027 80.3168 21.1541 81.0707C21.1055 81.8245 20.9088 82.5614 20.5753 83.2393C20.2418 83.9171 19.778 84.5226 19.2104 85.0212Z" stroke="#263238" stroke-miterlimit="10"/>
<path d="M13.2 82.9972L12.4256 83.6792L12.1264 83.3404L12.8964 82.6672C12.3862 82.0635 12.1016 81.3014 12.0912 80.5112L12.65 80.3704C12.6503 81.0635 12.8843 81.7363 13.3144 82.28L15.0744 80.7224C14.6036 79.8204 14.168 78.8612 15.0744 78.0824C15.7256 77.5148 16.6936 77.4884 17.6792 78.4476L18.48 77.77L18.7748 78.1044L18.0048 78.782C18.4144 79.2802 18.6792 79.8814 18.7704 80.52L18.2248 80.7004C18.1371 80.1378 17.9086 79.6065 17.5604 79.156L15.7696 80.7268C16.258 81.6464 16.7464 82.6408 15.8444 83.4372C15.1888 84.0092 14.19 84.04 13.2 82.9972ZM15.576 80.3132L17.2612 78.8304C16.5924 78.188 15.9412 78.1924 15.5364 78.5664C15.0084 79.0152 15.2196 79.64 15.5628 80.3132H15.576ZM15.3956 82.9532C15.9324 82.4868 15.6816 81.8312 15.312 81.1272L13.6268 82.61C14.3176 83.3184 14.96 83.3448 15.4 82.9664L15.3956 82.9532Z" fill="#263238"/>
<path d="M45.5367 134.072C45.598 132.539 44.4047 131.246 42.8713 131.185C41.338 131.123 40.0452 132.317 39.9839 133.85C39.9225 135.383 41.1159 136.676 42.6492 136.738C44.1826 136.799 45.4753 135.606 45.5367 134.072Z" stroke="#263238" stroke-width="1.0008" stroke-miterlimit="10"/>
<path d="M43.56 134.499L43.8768 134.882L43.714 135.018L43.3972 134.64C43.0995 134.879 42.7275 135.007 42.3456 135.001L42.284 134.728C42.6199 134.737 42.9488 134.631 43.2168 134.429L42.4864 133.549C42.0464 133.764 41.58 133.962 41.2104 133.522C40.9464 133.206 40.9464 132.735 41.4216 132.268L41.1004 131.886L41.2676 131.749L41.5844 132.128C41.8294 131.933 42.1232 131.81 42.4336 131.771L42.5128 132.035C42.2408 132.073 41.9824 132.177 41.7604 132.339L42.4952 133.219C42.9352 132.994 43.4324 132.779 43.8152 133.219C44.0836 133.544 44.0748 134.028 43.56 134.499ZM42.3016 133.32L41.6064 132.488C41.2896 132.805 41.2852 133.109 41.4568 133.32C41.6284 133.531 41.9716 133.474 42.3016 133.32ZM43.582 133.439C43.362 133.179 43.0452 133.289 42.702 133.461L43.3972 134.292C43.736 133.958 43.758 133.65 43.582 133.434V133.439Z" fill="#263238"/>
<path d="M130.94 188.835C131.291 189.257 131.509 189.773 131.567 190.319C131.624 190.865 131.519 191.416 131.264 191.902C131.008 192.388 130.614 192.788 130.132 193.05C129.65 193.312 129.101 193.426 128.554 193.376C128.007 193.326 127.487 193.115 127.06 192.77C126.633 192.425 126.318 191.961 126.155 191.437C125.992 190.913 125.987 190.352 126.143 189.825C126.298 189.299 126.606 188.83 127.028 188.478C127.594 188.008 128.324 187.781 129.057 187.848C129.791 187.915 130.468 188.27 130.94 188.835V188.835Z" stroke="#263238" stroke-miterlimit="10"/>
<path d="M129.884 191.717L130.205 192.1L130.038 192.236L129.721 191.858C129.425 192.097 129.054 192.225 128.674 192.218L128.612 191.946C128.948 191.957 129.278 191.851 129.545 191.646L128.814 190.766C128.374 190.982 127.904 191.18 127.538 190.74C127.27 190.423 127.27 189.952 127.745 189.486L127.428 189.103L127.596 188.967L127.912 189.345C128.156 189.149 128.451 189.026 128.762 188.989L128.841 189.253C128.567 189.291 128.308 189.395 128.084 189.556L128.823 190.436C129.263 190.212 129.76 189.996 130.143 190.436C130.398 190.762 130.39 191.246 129.884 191.717ZM128.621 190.52L127.926 189.688C127.604 190.005 127.6 190.309 127.776 190.52C127.952 190.731 128.286 190.692 128.621 190.52ZM129.897 190.643C129.677 190.379 129.36 190.489 129.017 190.643L129.712 191.475C130.055 191.176 130.077 190.868 129.897 190.656V190.643Z" fill="#263238"/>
<path d="M54.9504 30.6608C55.0904 29.1338 53.9661 27.7825 52.4392 27.6424C50.9122 27.5024 49.5608 28.6267 49.4208 30.1537C49.2808 31.6806 50.4051 33.032 51.932 33.172C53.459 33.3121 54.8104 32.1877 54.9504 30.6608Z" stroke="#263238" stroke-miterlimit="10"/>
<path d="M53.2709 31.5129L53.5877 31.8957L53.4205 32.0321L53.1037 31.6537C52.8081 31.8937 52.4372 32.0215 52.0565 32.0145L51.9949 31.7417C52.3307 31.7506 52.6596 31.6451 52.9277 31.4425L52.1973 30.5625C51.7573 30.7781 51.2865 30.9761 50.9213 30.5361C50.6573 30.2193 50.6529 29.7485 51.1325 29.2821L50.8113 28.8993L50.9785 28.7629L51.2953 29.1413C51.5398 28.946 51.8338 28.8226 52.1445 28.7849L52.2237 29.0489C51.9517 29.0867 51.6933 29.1909 51.4713 29.3525L52.2061 30.2325C52.6461 30.0081 53.1433 29.7925 53.5261 30.2325C53.7857 30.5581 53.7725 31.0421 53.2709 31.5129ZM52.0037 30.3293L51.3085 29.4801C50.9917 29.7969 50.9829 30.1005 51.1589 30.3117C51.3349 30.5229 51.6693 30.4877 52.0037 30.3293ZM53.2841 30.4481C53.0641 30.1885 52.7429 30.2985 52.4041 30.4481L53.0993 31.2797C53.4381 30.9717 53.4601 30.6637 53.2841 30.4481Z" fill="#263238"/>
<path opacity="0.2" d="M114.756 144.236C114.756 144.236 111.364 161.454 90.5565 165.356C90.5565 165.356 85.1225 169.69 83.3141 172.256C81.5057 174.821 71.8741 179.181 62.0621 192.786C52.2501 206.391 37.6421 163.187 37.6421 163.187L69.9293 121.255L114.756 144.236Z" fill="black" fill-opacity="0.7"/>
<path d="M133.25 63.3953C133.25 63.3953 144.47 57.9085 146.938 58.8545C149.406 59.8005 151.778 65.4765 142.34 70.9105C132.902 76.3445 135.718 86.4689 135.718 86.4689H142.45C142.45 86.4689 146.489 88.1145 148.06 90.2309C149.631 92.3473 150.753 99.5633 151.65 102.01C152.548 104.456 152.09 106.907 149.631 107.703C149.631 107.703 148.06 114.55 148.509 117.586C148.958 120.622 148.733 122.575 145.816 122.945C145.082 123.021 144.34 122.937 143.642 122.699C142.943 122.46 142.305 122.072 141.772 121.563C141.238 121.053 140.822 120.433 140.551 119.746C140.281 119.06 140.163 118.322 140.206 117.586L137.962 125.717L139.533 128.841C141.752 129.7 143.803 130.942 145.592 132.511C148.733 135.203 151.875 135.938 150.977 138.939C150.08 141.94 148.284 145.174 138.86 141.425C129.435 137.676 121.581 122.945 121.581 122.945L115.918 71.5793L133.25 63.3953Z" fill="white"/>
<path opacity="0.4" d="M145.059 92.9017C139.973 99.8361 145.6 107.822 145.6 107.822C145.6 107.822 142.08 109.785 141.979 114.792C141.94 116.873 142.463 119.781 143.088 122.474C142.173 122.042 141.41 121.345 140.897 120.473C140.383 119.601 140.144 118.595 140.21 117.586L137.962 125.717L139.533 128.837C141.185 129.469 142.743 130.326 144.162 131.384C142.767 134.587 142.34 138.547 142.463 142.631C141.238 142.305 140.034 141.902 138.86 141.425C129.435 137.672 121.581 122.945 121.581 122.945L115.918 71.5749L133.25 63.3953C133.25 63.3953 139.379 60.3989 143.576 59.2153C143.251 63.1401 144.016 67.2013 144.571 69.4629C143.855 69.9869 143.11 70.4702 142.34 70.9105C132.915 76.3445 135.718 86.4689 135.718 86.4689H142.454C142.454 86.4689 146.291 88.0353 147.937 90.0725C146.811 90.8301 145.836 91.7893 145.059 92.9017Z" fill="#FFC700"/>
<path d="M115.72 135.96C115.72 135.96 103.514 159.892 81.5145 165.321C81.5145 165.321 80.6741 170.056 76.9517 172.089C74.9629 173.171 66.9373 185.196 59.8929 196.174L20.8737 172.238C23.2761 169.862 26.0129 167.125 28.7937 164.27C36.9337 155.971 45.6193 146.67 48.2769 142.067C50.6529 137.975 53.6581 130.874 56.2761 124.199C59.6289 115.663 62.3569 107.822 62.3569 107.822L75.3633 93.3637L95.8101 70.6289L96.6901 73.5373L115.72 135.96Z" fill="white"/>
<path opacity="0.4" d="M95.8277 70.6289L115.72 135.96C115.72 135.96 103.514 159.892 81.5145 165.321C81.5145 165.321 80.6741 170.056 76.9517 172.089C75.1653 173.061 68.5169 182.851 62.0841 192.768C64.4689 184.584 71.3725 171.538 71.3725 171.538C66.9417 166.289 68.2353 160.759 70.0085 162.334C71.7817 163.909 76.2389 168.335 76.5205 168.613C74.5625 166.307 74.1093 162.695 74.1093 162.695C74.1093 162.695 79.6005 166.347 80.0449 160.495C80.4893 154.643 76.7537 140.342 76.7537 140.342L66.9461 102.74L95.8277 70.6289Z" fill="#FFC700"/>
<path d="M115.918 71.5793L133.25 63.3953C133.25 63.3953 144.47 57.9085 146.938 58.8545C149.406 59.8005 151.778 65.4765 142.34 70.9105C132.902 76.3445 135.718 86.4689 135.718 86.4689H142.45C142.45 86.4689 146.489 88.1145 148.06 90.2309C149.631 92.3473 150.753 99.5633 151.65 102.01C152.548 104.456 152.09 106.907 149.631 107.703C149.631 107.703 148.06 114.55 148.509 117.586C148.958 120.622 148.733 122.575 145.816 122.945C145.082 123.021 144.34 122.937 143.642 122.699C142.943 122.46 142.305 122.072 141.772 121.563C141.238 121.053 140.822 120.433 140.551 119.746C140.281 119.06 140.163 118.322 140.206 117.586L137.962 125.717L139.533 128.841C141.752 129.7 143.803 130.942 145.592 132.511C148.733 135.203 151.875 135.938 150.977 138.939C150.08 141.94 148.284 145.174 138.86 141.425C129.435 137.676 121.581 122.945 121.581 122.945" stroke="#263238" stroke-linecap="round" stroke-linejoin="round"/>
<path d="M149.631 107.703C146.265 108.614 142.34 107.941 140.879 101.983C139.418 96.0257 142.34 89.6633 144.245 89.0781" stroke="#263238" stroke-linecap="round" stroke-linejoin="round"/>
<path d="M140.206 117.586C140.206 117.586 139.982 109.925 142.789 108.033" stroke="#263238" stroke-linecap="round" stroke-linejoin="round"/>
<path opacity="0.4" d="M58.3529 155.632C58.3529 155.632 50.1293 154.607 48.2945 150.929C46.7765 147.884 38.5485 159.289 28.8113 164.27C36.9513 155.971 45.6369 146.67 48.2945 142.067C50.6705 137.975 53.6757 130.874 56.2937 124.199C56.1617 129.734 53.2137 138.208 54.0541 142.622C53.1536 142.86 52.3831 143.443 51.9096 144.245C51.4361 145.047 51.2976 146.004 51.5241 146.907C52.1533 150.414 58.3529 155.632 58.3529 155.632Z" fill="#FFC700"/>
<path d="M115.72 135.96C115.72 135.96 103.514 159.892 81.51 165.321C81.51 165.321 80.674 170.056 76.9516 172.088C74.9628 173.171 66.9416 185.196 59.8884 196.174" stroke="#263238" stroke-linecap="round" stroke-linejoin="round"/>
<path d="M20.8737 172.238C30.2721 162.95 44.7173 148.223 48.2945 142.067C53.7065 132.753 62.3745 107.818 62.3745 107.818L95.8145 70.6289" stroke="#263238" stroke-linecap="round" stroke-linejoin="round"/>
<path d="M76.7317 99.0308C76.7317 99.0308 81.8709 103.633 83.3317 107.831" stroke="#263238" stroke-linecap="round" stroke-linejoin="round"/>
<path d="M137.394 31.9968H82.0996C80.4642 31.9968 79.1384 33.3226 79.1384 34.958V152.671C79.1384 154.307 80.4642 155.632 82.0996 155.632H137.394C139.03 155.632 140.356 154.307 140.356 152.671V34.958C140.356 33.3226 139.03 31.9968 137.394 31.9968Z" fill="#263238"/>
<path d="M121.88 35.3628L120.71 37.5056C120.586 37.7381 120.401 37.9328 120.176 38.0692C119.951 38.2055 119.693 38.2783 119.429 38.28H100.069C99.8062 38.2786 99.5484 38.2068 99.3225 38.0722C99.0966 37.9376 98.9108 37.745 98.7844 37.5144L97.6184 35.3716C97.4931 35.14 97.3076 34.9466 97.0814 34.8119C96.8553 34.6771 96.5969 34.606 96.3336 34.606H82.8036C82.6108 34.6065 82.42 34.6451 82.2422 34.7196C82.0644 34.794 81.903 34.9028 81.7673 35.0398C81.6316 35.1767 81.5242 35.3391 81.4514 35.5176C81.3785 35.6961 81.3416 35.8872 81.3428 36.08V151.8C81.3428 152.188 81.4966 152.56 81.7704 152.834C82.0442 153.109 82.4158 153.264 82.8036 153.265H136.686C136.879 153.266 137.071 153.229 137.249 153.156C137.428 153.083 137.591 152.975 137.728 152.839C137.865 152.703 137.973 152.541 138.048 152.363C138.122 152.184 138.16 151.993 138.16 151.8V36.08C138.16 35.6914 138.006 35.3187 137.731 35.0439C137.456 34.7691 137.083 34.6148 136.695 34.6148H123.169C122.907 34.6122 122.649 34.6803 122.422 34.812C122.195 34.9436 122.008 35.1338 121.88 35.3628Z" fill="#FFC700" stroke="#263238" stroke-linecap="round" stroke-linejoin="round"/>
<path d="M105.547 36.4011C105.982 36.4011 106.335 36.0485 106.335 35.6135C106.335 35.1785 105.982 34.8259 105.547 34.8259C105.112 34.8259 104.76 35.1785 104.76 35.6135C104.76 36.0485 105.112 36.4011 105.547 36.4011Z" stroke="white" stroke-miterlimit="10"/>
<path d="M114.73 35.6137C114.729 35.7101 114.7 35.804 114.646 35.8838C114.591 35.9635 114.515 36.0254 114.425 36.0617C114.336 36.098 114.238 36.1071 114.144 36.0877C114.049 36.0684 113.963 36.0215 113.895 35.9531C113.827 35.8846 113.781 35.7975 113.762 35.7029C113.744 35.6083 113.754 35.5103 113.791 35.4213C113.828 35.3324 113.89 35.2563 113.971 35.2029C114.051 35.1494 114.145 35.1209 114.242 35.1208C114.306 35.1208 114.37 35.1336 114.429 35.1584C114.489 35.1833 114.543 35.2196 114.588 35.2654C114.634 35.3113 114.67 35.3656 114.694 35.4254C114.718 35.4852 114.731 35.5491 114.73 35.6137V35.6137Z" stroke="white" stroke-miterlimit="10"/>
<path d="M112.539 35.3057H107.752C107.711 35.3057 107.672 35.3137 107.634 35.3292C107.597 35.3447 107.564 35.3675 107.535 35.3961C107.507 35.4248 107.485 35.4588 107.47 35.4961C107.455 35.5335 107.447 35.5734 107.448 35.6137C107.448 35.6942 107.48 35.7714 107.537 35.8283C107.594 35.8853 107.671 35.9173 107.752 35.9173H112.539C112.619 35.9173 112.697 35.8853 112.754 35.8283C112.81 35.7714 112.842 35.6942 112.842 35.6137C112.843 35.5734 112.836 35.5335 112.821 35.4961C112.806 35.4588 112.783 35.4248 112.755 35.3961C112.727 35.3675 112.693 35.3447 112.656 35.3292C112.619 35.3137 112.579 35.3057 112.539 35.3057Z" fill="white"/>
<path d="M91.3616 37.5408H86.2004V39.732H91.3616V37.5408Z" stroke="#263238" stroke-linecap="round" stroke-linejoin="round"/>
<path d="M92.158 37.9104H91.3572V39.3668H92.158V37.9104Z" stroke="#263238" stroke-linecap="round" stroke-linejoin="round"/>
<path d="M127.934 38.9399H127.019V39.7363H127.934V38.9399Z" stroke="#263238" stroke-linecap="round" stroke-linejoin="round"/>
<path d="M129.721 38.1392H128.806V39.7364H129.721V38.1392Z" stroke="#263238" stroke-linecap="round" stroke-linejoin="round"/>
<path d="M131.507 37.3384H130.592V39.732H131.507V37.3384Z" stroke="#263238" stroke-linecap="round" stroke-linejoin="round"/>
<path d="M133.289 36.5376H132.374V39.732H133.289V36.5376Z" stroke="#263238" stroke-linecap="round" stroke-linejoin="round"/>
<path opacity="0.5" d="M137.782 60.1743H81.708V113.656H137.782V60.1743Z" fill="white"/>
<path d="M97.196 51.634V52.5624C97.196 53.7108 96.646 54.3224 95.5196 54.3224H94.9872V57.0108H93.8608V49.8608H95.5196C96.646 49.8608 97.196 50.4856 97.196 51.634ZM94.996 50.886V53.3104H95.5284C95.8848 53.3104 96.0784 53.1476 96.0784 52.6372V51.5592C96.0784 51.0488 95.8848 50.886 95.5284 50.886H94.996Z" fill="#263238"/>
<path d="M101.231 57.024H100.096L99.8978 55.726H98.5206L98.3226 57.024H97.2886L98.437 49.8608H100.083L101.231 57.024ZM98.6614 54.7536H99.7482L99.2158 51.1324H99.1938L98.6614 54.7536Z" fill="#263238"/>
<path d="M102.304 54.6524L100.883 49.8608H102.08L102.929 53.1256H102.951L103.801 49.8608H104.874L103.453 54.6524V57.024H102.327L102.304 54.6524Z" fill="#263238"/>
<path d="M107.677 54.9472H107.699L108.456 49.8608H110.022V57.024H108.957V51.8892L108.2 57.024H107.136L106.317 51.9596V57.024H105.292V49.8608H106.858L107.677 54.9472Z" fill="#263238"/>
<path d="M111.967 52.8792H113.52V53.9044H111.976V56.0032H113.92V57.024H110.84V49.8608H113.92V50.886H111.976L111.967 52.8792Z" fill="#263238"/>
<path d="M115.632 51.8364H115.61V57.024H114.598V49.8608H116.011L117.146 54.1508V49.8608H118.149V57.024H116.996L115.632 51.8364Z" fill="#263238"/>
<path d="M118.65 49.8608H122.131V50.886H120.952V57.024H119.825V50.886H118.65V49.8608Z" fill="#263238"/>
<path d="M124.137 49.7817C125.229 49.7817 125.792 50.4373 125.792 51.5813V51.8057H124.727V51.5109C124.727 50.9961 124.525 50.8025 124.164 50.8025C123.803 50.8025 123.605 50.9961 123.605 51.5109C123.605 52.0257 123.829 52.4217 124.564 53.0641C125.506 53.8957 125.805 54.4853 125.805 55.3037C125.805 56.4521 125.229 57.1077 124.124 57.1077C123.02 57.1077 122.448 56.4521 122.448 55.3037V54.8637H123.513V55.3785C123.513 55.8889 123.737 56.0737 124.093 56.0737C124.45 56.0737 124.679 55.8889 124.679 55.3785C124.679 54.8681 124.454 54.4677 123.715 53.8209C122.773 52.9937 122.479 52.3997 122.479 51.5813C122.479 50.4373 123.042 49.7817 124.137 49.7817Z" fill="#263238"/>
<path d="M133.289 66.6555H86.2004V73.6911H133.289V66.6555Z" fill="white" stroke="#263238" stroke-linecap="round" stroke-linejoin="round"/>
<path d="M133.289 79.8513H86.2004V86.8869H133.289V79.8513Z" fill="white" stroke="#263238" stroke-linecap="round" stroke-linejoin="round"/>
<path d="M133.289 91.8501H86.2004V98.8857H133.289V91.8501Z" fill="white" stroke="#263238" stroke-linecap="round" stroke-linejoin="round"/>
<path d="M108.495 101.451H86.2004V109.688H108.495V101.451Z" fill="white" stroke="#263238" stroke-linecap="round" stroke-linejoin="round"/>
<path d="M133.294 101.451H110.999V109.688H133.294V101.451Z" fill="white" stroke="#263238" stroke-linecap="round" stroke-linejoin="round"/>
<path d="M89.1351 65.4281V65.6173H87.6611V63.5361H89.0911V63.7253H87.8855V64.4689H88.9591V64.6537H87.8855V65.4281H89.1351Z" fill="#263238"/>
<path d="M92.1888 64.7108V65.6172H91.9599V64.7372C91.9599 64.4072 91.7927 64.2356 91.5199 64.2356C91.4465 64.2325 91.3733 64.2454 91.3054 64.2735C91.2374 64.3015 91.1764 64.344 91.1266 64.398C91.0768 64.4521 91.0393 64.5163 91.0168 64.5863C90.9943 64.6562 90.9873 64.7302 90.9963 64.8032V65.6216H90.7852V64.7416C90.7852 64.4116 90.618 64.24 90.3452 64.24C90.2717 64.2369 90.1985 64.2498 90.1306 64.2779C90.0626 64.3059 90.0016 64.3484 89.9518 64.4024C89.902 64.4565 89.8645 64.5207 89.842 64.5907C89.8195 64.6606 89.8125 64.7346 89.8215 64.8076V65.626H89.6104V64.064H89.8127V64.35C89.8729 64.2527 89.9582 64.1736 90.0597 64.1209C90.1612 64.0682 90.275 64.044 90.3891 64.0508C90.5044 64.0411 90.6199 64.0677 90.7193 64.1268C90.8187 64.186 90.8971 64.2748 90.9436 64.3808C91.0076 64.275 91.0991 64.1885 91.2083 64.1304C91.3175 64.0723 91.4404 64.0448 91.564 64.0508C91.6506 64.045 91.7374 64.0583 91.8183 64.09C91.8991 64.1216 91.972 64.1707 92.0317 64.2337C92.0914 64.2968 92.1364 64.3722 92.1636 64.4547C92.1907 64.5372 92.1993 64.6246 92.1888 64.7108Z" fill="#263238"/>
<path d="M93.9445 64.6491V65.6171H93.7421V65.3751C93.6827 65.4622 93.6014 65.5321 93.5064 65.5777C93.4114 65.6233 93.306 65.643 93.2009 65.6347C92.8489 65.6347 92.6333 65.4499 92.6333 65.1947C92.6333 64.9395 92.7873 64.7547 93.2361 64.7547H93.7201V64.6579C93.7201 64.3895 93.5661 64.2443 93.2801 64.2443C93.0904 64.2414 92.9061 64.307 92.7609 64.4291L92.6641 64.2707C92.8465 64.1297 93.0716 64.0552 93.3021 64.0595C93.385 64.046 93.4698 64.0514 93.5503 64.0754C93.6308 64.0994 93.7047 64.1414 93.7666 64.1982C93.8285 64.255 93.8766 64.3251 93.9075 64.4032C93.9383 64.4813 93.9509 64.5654 93.9445 64.6491ZM93.7333 65.1507V64.8911H93.2405C92.9369 64.8911 92.8401 65.0099 92.8401 65.1727C92.8401 65.3355 92.9853 65.4675 93.2361 65.4675C93.3395 65.4705 93.4413 65.4418 93.5278 65.3851C93.6144 65.3285 93.6815 65.2467 93.7201 65.1507H93.7333Z" fill="#263238"/>
<path d="M94.468 63.5624C94.4692 63.5224 94.4859 63.4843 94.5147 63.4564C94.5434 63.4284 94.5819 63.4128 94.622 63.4128C94.6617 63.4128 94.6997 63.4286 94.7278 63.4567C94.7559 63.4847 94.7716 63.5228 94.7716 63.5624C94.7716 63.6021 94.7559 63.6402 94.7278 63.6682C94.6997 63.6963 94.6617 63.712 94.622 63.712C94.5819 63.7121 94.5434 63.6964 94.5147 63.6685C94.4859 63.6406 94.4692 63.6025 94.468 63.5624ZM94.5164 64.0552H94.7276V65.6172H94.5164V64.0552Z" fill="#263238"/>
<path d="M95.3174 63.4128H95.5286V65.6128H95.3174V63.4128Z" fill="#263238"/>
<path d="M90.5917 70.84V71.0292H89.1177V68.948H90.5477V69.1372H89.3201V69.8764H90.3981V70.0656H89.3201V70.84H90.5917Z" fill="#263238"/>
<path d="M93.6453 70.1141V71.0205H93.4341V70.1405C93.4341 69.8105 93.2669 69.6389 92.9941 69.6389C92.9209 69.6352 92.8477 69.6475 92.7798 69.675C92.7118 69.7025 92.6508 69.7446 92.6008 69.7983C92.5509 69.852 92.5134 69.916 92.4909 69.9858C92.4683 70.0555 92.4614 70.1294 92.4705 70.2021V71.0249H92.2593V70.1449C92.2593 69.8149 92.0921 69.6433 91.8193 69.6433C91.7461 69.6396 91.6729 69.6519 91.605 69.6794C91.537 69.7069 91.4759 69.749 91.426 69.8027C91.3761 69.8564 91.3386 69.9204 91.3161 69.9902C91.2935 70.0599 91.2866 70.1338 91.2957 70.2065V71.0293H91.0801V69.4629H91.2825V69.7489C91.3435 69.6528 91.4292 69.5748 91.5305 69.523C91.6319 69.4711 91.7452 69.4474 91.8589 69.4541C91.974 69.4457 92.0889 69.4729 92.188 69.5319C92.2872 69.5909 92.3658 69.679 92.4133 69.7841C92.477 69.678 92.5684 69.5912 92.6777 69.5331C92.787 69.4749 92.9101 69.4477 93.0337 69.4541C93.1192 69.4503 93.2046 69.4652 93.2838 69.4977C93.363 69.5302 93.4342 69.5796 93.4924 69.6424C93.5506 69.7052 93.5945 69.7799 93.6209 69.8614C93.6473 69.9429 93.6556 70.0291 93.6453 70.1141Z" fill="#263238"/>
<path d="M95.3964 70.0525V71.0205H95.194V70.7785C95.1355 70.8651 95.0548 70.9345 94.9604 70.9794C94.866 71.0242 94.7613 71.043 94.6572 71.0337C94.3052 71.0337 94.0852 70.8489 94.0852 70.5937C94.0852 70.3385 94.2436 70.1537 94.6924 70.1537H95.1896V70.0613C95.1896 69.7929 95.0356 69.6477 94.7496 69.6477C94.5587 69.6453 94.3731 69.7108 94.226 69.8325L94.1336 69.6741C94.3146 69.5305 94.5407 69.4556 94.7716 69.4629C94.8531 69.4523 94.936 69.4599 95.0143 69.4852C95.0925 69.5106 95.1641 69.553 95.2239 69.6094C95.2837 69.6659 95.3303 69.7349 95.3601 69.8116C95.3899 69.8882 95.4023 69.9705 95.3964 70.0525ZM95.1896 70.5497V70.2945H94.6968C94.3932 70.2945 94.2964 70.4133 94.2964 70.5761C94.2964 70.7389 94.4416 70.8709 94.6924 70.8709C94.7986 70.877 94.9041 70.8492 94.9934 70.7915C95.0828 70.7337 95.1515 70.6491 95.1896 70.5497Z" fill="#263238"/>
<path d="M95.9202 68.9612C95.9213 68.9211 95.938 68.8831 95.9668 68.8551C95.9956 68.8272 96.0341 68.8116 96.0742 68.8116C96.0942 68.811 96.1141 68.8144 96.1328 68.8217C96.1514 68.8289 96.1684 68.8399 96.1828 68.8538C96.1972 68.8678 96.2086 68.8845 96.2164 68.9029C96.2242 68.9213 96.2282 68.9412 96.2282 68.9612C96.2282 69.002 96.2119 69.0412 96.1831 69.0701C96.1542 69.099 96.115 69.1152 96.0742 69.1152C96.0333 69.1152 95.9942 69.099 95.9653 69.0701C95.9364 69.0412 95.9202 69.002 95.9202 68.9612ZM95.9686 69.454H96.1798V71.0204H95.9686V69.454Z" fill="#263238"/>
<path d="M96.7737 68.8115H96.9805V71.0115H96.7737V68.8115Z" fill="#263238"/>
<path d="M99.0001 70.1141V71.0205H98.7889V70.1405C98.7982 70.0755 98.7929 70.0092 98.7733 69.9465C98.7537 69.8838 98.7203 69.8263 98.6756 69.7782C98.6309 69.7301 98.5759 69.6926 98.5148 69.6685C98.4537 69.6444 98.388 69.6343 98.3225 69.6389C98.2475 69.6326 98.1721 69.643 98.1016 69.6693C98.0311 69.6955 97.9673 69.7371 97.9148 69.7909C97.8622 69.8447 97.8222 69.9095 97.7976 69.9806C97.773 70.0516 97.7644 70.1273 97.7725 70.2021V71.0249H97.5613V69.4585H97.7637V69.7489C97.8273 69.6509 97.9159 69.5715 98.0202 69.519C98.1246 69.4664 98.241 69.4425 98.3577 69.4497C98.4457 69.4426 98.5343 69.4551 98.617 69.4863C98.6996 69.5176 98.7743 69.5667 98.8357 69.6302C98.8972 69.6937 98.9437 69.7701 98.9722 69.8537C99.0006 69.9374 99.0101 70.0263 99.0001 70.1141Z" fill="#263238"/>
<path d="M100.76 70.0524V71.0204H100.558V70.7784C100.499 70.865 100.419 70.9343 100.324 70.9792C100.23 71.0241 100.125 71.0429 100.021 71.0336C99.6646 71.0336 99.449 70.8488 99.449 70.5936C99.449 70.3384 99.603 70.1536 100.052 70.1536H100.549V70.0612C100.549 69.7928 100.399 69.6476 100.109 69.6476C99.9193 69.6447 99.7349 69.7103 99.5898 69.8324L99.493 69.674C99.6743 69.531 99.9001 69.4563 100.131 69.4628C100.213 69.4514 100.296 69.4585 100.375 69.4835C100.454 69.5085 100.526 69.5509 100.586 69.6074C100.647 69.6639 100.694 69.7332 100.724 69.8102C100.754 69.8872 100.766 69.97 100.76 70.0524ZM100.549 70.5496V70.2944H100.061C99.757 70.2944 99.6558 70.4132 99.6558 70.576C99.6558 70.7388 99.801 70.8708 100.052 70.8708C100.159 70.8779 100.265 70.8505 100.355 70.7927C100.446 70.7349 100.515 70.6497 100.553 70.5496H100.549Z" fill="#263238"/>
<path d="M103.919 70.1141V71.0205H103.708V70.1405C103.708 69.8105 103.541 69.6389 103.268 69.6389C103.195 69.6351 103.122 69.6474 103.054 69.675C102.986 69.7025 102.925 69.7446 102.875 69.7983C102.825 69.852 102.787 69.916 102.765 69.9857C102.742 70.0555 102.735 70.1294 102.744 70.2021V71.0249H102.52V70.1449C102.52 69.8149 102.353 69.6433 102.08 69.6433C102.007 69.6395 101.934 69.6518 101.866 69.6794C101.798 69.7069 101.737 69.749 101.687 69.8027C101.637 69.8564 101.599 69.9204 101.577 69.9901C101.554 70.0599 101.547 70.1338 101.556 70.2065V71.0293H101.345V69.4629H101.548V69.7489C101.609 69.6528 101.694 69.5748 101.796 69.523C101.897 69.4711 102.01 69.4474 102.124 69.4541C102.239 69.4444 102.355 69.471 102.454 69.5302C102.554 69.5893 102.632 69.6781 102.678 69.7841C102.742 69.6783 102.834 69.5918 102.943 69.5337C103.052 69.4756 103.175 69.4481 103.299 69.4541C103.385 69.449 103.471 69.4628 103.552 69.4948C103.632 69.5267 103.704 69.5759 103.764 69.6388C103.823 69.7018 103.867 69.777 103.894 69.8592C103.921 69.9413 103.93 70.0283 103.919 70.1141Z" fill="#263238"/>
<path d="M105.86 70.3032H104.54C104.551 70.4566 104.623 70.5993 104.739 70.6999C104.855 70.8005 105.007 70.8509 105.16 70.84C105.25 70.8425 105.34 70.8253 105.423 70.7896C105.505 70.7538 105.58 70.7005 105.64 70.6332L105.758 70.7696C105.646 70.8875 105.502 70.9696 105.343 71.0057C105.184 71.0418 105.018 71.0302 104.866 70.9724C104.714 70.9146 104.582 70.8132 104.487 70.6809C104.392 70.5485 104.339 70.3911 104.333 70.2284C104.327 70.1252 104.343 70.022 104.379 69.9252C104.416 69.8284 104.471 69.7401 104.543 69.6658C104.615 69.5914 104.701 69.5327 104.797 69.4933C104.892 69.4538 104.995 69.4345 105.098 69.4364C105.201 69.4344 105.304 69.4537 105.399 69.4933C105.494 69.5328 105.58 69.5917 105.651 69.6662C105.722 69.7406 105.777 69.829 105.812 69.9258C105.847 70.0226 105.862 70.1257 105.855 70.2284C105.855 70.2284 105.86 70.2812 105.86 70.3032ZM104.54 70.1448H105.648C105.648 69.9978 105.59 69.8568 105.486 69.7528C105.382 69.6488 105.241 69.5904 105.094 69.5904C104.947 69.5904 104.806 69.6488 104.702 69.7528C104.598 69.8568 104.54 69.9978 104.54 70.1448Z" fill="#263238"/>
<path d="M108.922 70.2327C108.922 70.7387 108.733 71.0335 108.425 71.0335C108.381 71.036 108.338 71.0294 108.297 71.0143C108.256 70.9992 108.219 70.9758 108.188 70.9457C108.156 70.9156 108.132 70.8793 108.115 70.8392C108.098 70.799 108.09 70.7558 108.09 70.7123C108.029 70.8141 107.942 70.8975 107.837 70.954C107.733 71.0105 107.615 71.038 107.496 71.0335C107.293 71.0335 107.099 70.9529 106.955 70.8093C106.812 70.6657 106.731 70.471 106.731 70.2679C106.731 70.0649 106.812 69.8702 106.955 69.7266C107.099 69.583 107.293 69.5023 107.496 69.5023C107.614 69.4973 107.73 69.5236 107.834 69.5785C107.937 69.6335 108.024 69.715 108.086 69.8147V69.5199H108.28V70.6463C108.28 70.8135 108.363 70.8751 108.464 70.8751C108.645 70.8751 108.764 70.6463 108.764 70.2459C108.768 70.087 108.74 69.9288 108.679 69.7817C108.619 69.6345 108.529 69.5017 108.414 69.3917C108.299 69.2818 108.162 69.1973 108.012 69.1435C107.863 69.0898 107.703 69.0682 107.545 69.0799C107.388 69.0799 107.232 69.1109 107.087 69.171C106.942 69.2312 106.81 69.3193 106.699 69.4305C106.587 69.5416 106.499 69.6735 106.439 69.8187C106.379 69.9639 106.348 70.1196 106.348 70.2767C106.348 70.4339 106.379 70.5895 106.439 70.7347C106.499 70.8799 106.587 71.0119 106.699 71.123C106.81 71.2341 106.942 71.3223 107.087 71.3824C107.232 71.4426 107.388 71.4735 107.545 71.4735C107.743 71.473 107.939 71.4279 108.117 71.3415L108.165 71.4867C107.971 71.578 107.759 71.6246 107.545 71.6231C107.188 71.6231 106.845 71.4813 106.593 71.2288C106.34 70.9763 106.198 70.6338 106.198 70.2767C106.198 69.9197 106.34 69.5772 106.593 69.3247C106.845 69.0722 107.188 68.9303 107.545 68.9303C107.723 68.9175 107.901 68.9418 108.069 69.0017C108.237 69.0616 108.391 69.1558 108.52 69.2783C108.65 69.4008 108.752 69.5489 108.822 69.7132C108.891 69.8776 108.925 70.0545 108.922 70.2327ZM108.086 70.2635C108.093 70.1851 108.084 70.1061 108.058 70.0315C108.033 69.9569 107.992 69.8884 107.939 69.8303C107.886 69.7722 107.821 69.7259 107.749 69.6941C107.677 69.6624 107.599 69.646 107.521 69.646C107.442 69.646 107.364 69.6624 107.292 69.6941C107.22 69.7259 107.155 69.7722 107.102 69.8303C107.049 69.8884 107.008 69.9569 106.983 70.0315C106.958 70.1061 106.948 70.1851 106.955 70.2635C106.948 70.342 106.958 70.421 106.983 70.4956C107.008 70.5702 107.049 70.6387 107.102 70.6968C107.155 70.7548 107.22 70.8012 107.292 70.833C107.364 70.8647 107.442 70.8811 107.521 70.8811C107.599 70.8811 107.677 70.8647 107.749 70.833C107.821 70.8012 107.886 70.7548 107.939 70.6968C107.992 70.6387 108.033 70.5702 108.058 70.4956C108.084 70.421 108.093 70.342 108.086 70.2635Z" fill="#263238"/>
<path d="M110.726 70.3032H109.406C109.411 70.3795 109.43 70.4542 109.464 70.523C109.497 70.5917 109.544 70.6532 109.601 70.7039C109.658 70.7546 109.725 70.7935 109.797 70.8184C109.869 70.8432 109.946 70.8536 110.022 70.8488C110.112 70.8513 110.202 70.8341 110.285 70.7983C110.368 70.7626 110.442 70.7093 110.502 70.642L110.621 70.7784C110.508 70.8963 110.364 70.9784 110.205 71.0145C110.046 71.0506 109.88 71.039 109.728 70.9812C109.576 70.9234 109.444 70.822 109.349 70.6897C109.254 70.5573 109.201 70.3999 109.195 70.2372C109.189 70.134 109.205 70.0308 109.241 69.934C109.278 69.8372 109.333 69.7489 109.405 69.6745C109.477 69.6002 109.563 69.5415 109.659 69.5021C109.755 69.4626 109.857 69.4433 109.961 69.4452C110.063 69.4432 110.166 69.4625 110.261 69.5021C110.356 69.5416 110.442 69.6005 110.513 69.6749C110.584 69.7494 110.639 69.8378 110.674 69.9346C110.709 70.0314 110.724 70.1345 110.717 70.2372C110.717 70.2372 110.726 70.2812 110.726 70.3032ZM109.406 70.1448H110.515C110.515 69.9978 110.456 69.8568 110.353 69.7528C110.249 69.6488 110.108 69.5904 109.961 69.5904C109.813 69.5904 109.672 69.6488 109.568 69.7528C109.465 69.8568 109.406 69.9978 109.406 70.1448Z" fill="#263238"/>
<path d="M113.744 70.114V71.0204H113.52V70.1404C113.52 69.8104 113.353 69.6388 113.08 69.6388C113.007 69.635 112.934 69.6473 112.866 69.6749C112.798 69.7024 112.737 69.7445 112.687 69.7982C112.637 69.8519 112.599 69.9159 112.577 69.9856C112.554 70.0554 112.547 70.1292 112.556 70.202V71.0248H112.345V70.1448C112.345 69.8148 112.178 69.6432 111.905 69.6432C111.832 69.6394 111.759 69.6517 111.691 69.6793C111.623 69.7068 111.562 69.7489 111.512 69.8026C111.462 69.8563 111.425 69.9203 111.402 69.99C111.379 70.0598 111.373 70.1336 111.382 70.2064V71.0292H111.17V69.4628H111.373V69.7488C111.433 69.6531 111.518 69.5752 111.619 69.5234C111.719 69.4715 111.832 69.4476 111.945 69.454C112.061 69.4453 112.176 69.4722 112.276 69.5312C112.376 69.5903 112.455 69.6785 112.504 69.784C112.566 69.6779 112.657 69.591 112.765 69.5328C112.874 69.4746 112.997 69.4474 113.12 69.454C113.206 69.4482 113.293 69.4615 113.374 69.4932C113.455 69.5248 113.528 69.5739 113.587 69.6369C113.647 69.7 113.692 69.7754 113.719 69.8579C113.746 69.9404 113.755 70.0278 113.744 70.114Z" fill="#263238"/>
<path d="M115.496 70.0525V71.0205H115.28V70.7785C115.221 70.8648 115.14 70.9339 115.046 70.9787C114.952 71.0236 114.847 71.0426 114.743 71.0337C114.387 71.0337 114.171 70.8489 114.171 70.5937C114.171 70.3385 114.325 70.1537 114.774 70.1537H115.28V70.0613C115.28 69.7929 115.13 69.6477 114.84 69.6477C114.65 69.6448 114.466 69.7104 114.321 69.8325L114.224 69.6741C114.405 69.5312 114.631 69.4564 114.862 69.4629C114.944 69.4508 115.028 69.4574 115.107 69.4821C115.187 69.5068 115.26 69.549 115.32 69.6056C115.381 69.6622 115.428 69.7317 115.459 69.8091C115.489 69.8865 115.502 69.9697 115.496 70.0525ZM115.284 70.5497V70.2945H114.796C114.492 70.2945 114.391 70.4133 114.391 70.5761C114.391 70.7389 114.536 70.8709 114.787 70.8709C114.893 70.8761 114.997 70.8478 115.086 70.7902C115.174 70.7325 115.242 70.6483 115.28 70.5497H115.284Z" fill="#263238"/>
<path d="M116.024 68.9611C116.024 68.9307 116.033 68.9009 116.05 68.8756C116.067 68.8502 116.091 68.8305 116.119 68.8189C116.147 68.8072 116.178 68.8041 116.208 68.8101C116.238 68.816 116.265 68.8307 116.287 68.8522C116.308 68.8738 116.323 68.9012 116.329 68.9311C116.335 68.961 116.332 68.9919 116.32 69.0201C116.308 69.0482 116.289 69.0723 116.263 69.0892C116.238 69.1061 116.208 69.1151 116.178 69.1151C116.137 69.1151 116.098 69.0989 116.069 69.07C116.04 69.0411 116.024 69.002 116.024 68.9611ZM116.068 69.4539H116.279V71.0203H116.068V69.4539Z" fill="#263238"/>
<path d="M116.868 68.8115H117.08V71.0115H116.868V68.8115Z" fill="#263238"/>
<path d="M117.533 70.8709C117.532 70.8499 117.536 70.829 117.544 70.8095C117.551 70.79 117.563 70.7723 117.578 70.7575C117.593 70.7427 117.61 70.731 117.63 70.7233C117.649 70.7155 117.67 70.7119 117.691 70.7125C117.733 70.7125 117.773 70.7292 117.803 70.7589C117.833 70.7886 117.85 70.8289 117.85 70.8709C117.85 70.9133 117.833 70.954 117.803 70.9845C117.774 71.0149 117.734 71.0325 117.691 71.0337C117.67 71.0337 117.649 71.0294 117.63 71.0212C117.61 71.013 117.592 71.0009 117.578 70.9857C117.563 70.9706 117.551 70.9526 117.544 70.9328C117.536 70.9131 117.532 70.892 117.533 70.8709Z" fill="#263238"/>
<path d="M118.096 70.2373C118.093 70.1313 118.112 70.0258 118.151 69.9274C118.191 69.8291 118.25 69.7399 118.326 69.6655C118.401 69.5912 118.491 69.5333 118.59 69.4954C118.689 69.4575 118.795 69.4404 118.901 69.4453C119.022 69.4374 119.143 69.4617 119.251 69.5158C119.359 69.57 119.451 69.6519 119.517 69.7533L119.359 69.8589C119.309 69.7882 119.243 69.7305 119.167 69.6907C119.09 69.6508 119.005 69.6301 118.919 69.6301C118.766 69.6431 118.624 69.7129 118.52 69.8258C118.416 69.9386 118.359 70.0863 118.359 70.2395C118.359 70.3927 118.416 70.5404 118.52 70.6533C118.624 70.7661 118.766 70.8359 118.919 70.8489C119.005 70.8497 119.091 70.8293 119.167 70.7894C119.244 70.7495 119.31 70.6914 119.359 70.6201L119.517 70.7257C119.45 70.8265 119.358 70.9079 119.25 70.962C119.142 71.016 119.022 71.0407 118.901 71.0337C118.795 71.0386 118.689 71.0215 118.589 70.9833C118.49 70.9452 118.4 70.8868 118.324 70.812C118.248 70.7372 118.189 70.6475 118.15 70.5486C118.111 70.4496 118.092 70.3437 118.096 70.2373Z" fill="#263238"/>
<path d="M119.746 70.2373C119.746 70.0798 119.793 69.9258 119.88 69.7949C119.968 69.6639 120.092 69.5618 120.238 69.5015C120.383 69.4413 120.543 69.4255 120.698 69.4562C120.852 69.487 120.994 69.5628 121.106 69.6742C121.217 69.7856 121.293 69.9275 121.324 70.0819C121.354 70.2364 121.339 70.3966 121.278 70.5421C121.218 70.6876 121.116 70.812 120.985 70.8995C120.854 70.987 120.7 71.0337 120.542 71.0337C120.437 71.0374 120.332 71.0193 120.233 70.9806C120.135 70.9419 120.046 70.8834 119.971 70.8087C119.896 70.734 119.838 70.6447 119.799 70.5464C119.76 70.4481 119.742 70.3429 119.746 70.2373ZM121.123 70.2373C121.12 70.1215 121.082 70.0093 121.014 69.915C120.947 69.8207 120.853 69.7486 120.745 69.7077C120.636 69.6668 120.518 69.6591 120.405 69.6855C120.292 69.7118 120.19 69.7711 120.111 69.8558C120.032 69.9405 119.979 70.0468 119.961 70.1612C119.942 70.2755 119.958 70.3929 120.006 70.4983C120.054 70.6038 120.132 70.6925 120.231 70.7534C120.33 70.8142 120.444 70.8444 120.56 70.8401C120.637 70.839 120.713 70.8224 120.784 70.7912C120.854 70.7601 120.917 70.715 120.97 70.6587C121.023 70.6024 121.063 70.536 121.09 70.4636C121.116 70.3912 121.127 70.3143 121.123 70.2373Z" fill="#263238"/>
<path d="M124.348 70.114V71.0204H124.137V70.1404C124.137 69.8104 123.97 69.6388 123.697 69.6388C123.624 69.635 123.551 69.6473 123.483 69.6749C123.415 69.7024 123.354 69.7445 123.304 69.7982C123.254 69.8519 123.216 69.9159 123.194 69.9856C123.171 70.0554 123.164 70.1292 123.174 70.202V71.0248H122.962V70.1448C122.962 69.8148 122.795 69.6432 122.522 69.6432C122.449 69.6394 122.376 69.6517 122.308 69.6793C122.24 69.7068 122.179 69.7489 122.129 69.8026C122.079 69.8563 122.042 69.9203 122.019 69.99C121.997 70.0598 121.99 70.1336 121.999 70.2064V71.0292H121.788V69.4628H121.99V69.7488C122.05 69.6531 122.135 69.5752 122.236 69.5234C122.336 69.4715 122.449 69.4476 122.562 69.454C122.678 69.4453 122.793 69.4722 122.893 69.5312C122.993 69.5903 123.073 69.6785 123.121 69.784C123.184 69.6782 123.274 69.5916 123.383 69.5335C123.492 69.4753 123.614 69.4478 123.737 69.454C123.822 69.4502 123.908 69.465 123.987 69.4975C124.066 69.5301 124.137 69.5794 124.196 69.6423C124.254 69.7051 124.298 69.7798 124.324 69.8613C124.35 69.9427 124.359 70.029 124.348 70.114Z" fill="#263238"/>
<path d="M89.4915 83.4064L89.8611 83.6176L89.7951 83.7409L89.4211 83.5253V83.9653H89.2847V83.5253L88.9107 83.7409L88.8403 83.6176L89.2143 83.4064L88.8403 83.1996L88.9107 83.0721L89.2847 83.2921V82.8521H89.4211V83.2921L89.7951 83.0721L89.8611 83.1996L89.4915 83.4064Z" fill="#263238"/>
<path d="M90.7017 83.4064L91.0713 83.6176L91.0009 83.7409L90.6313 83.5253V83.9653H90.4905V83.5253L90.1209 83.7409L90.0461 83.6176L90.4201 83.4064L90.0461 83.1996L90.1209 83.0721L90.4905 83.2921V82.8521H90.6401V83.2921L91.0097 83.0721L91.0801 83.1996L90.7017 83.4064Z" fill="#263238"/>
<path d="M91.9073 83.4064L92.2769 83.6176L92.2065 83.7409L91.8369 83.5253V83.9653H91.7005V83.5253L91.3309 83.7409L91.2605 83.6176L91.6301 83.4064L91.2605 83.1996L91.3309 83.0721L91.7005 83.2921V82.8521H91.8369V83.2921L92.2065 83.0721L92.2769 83.1996L91.9073 83.4064Z" fill="#263238"/>
<path d="M93.1129 83.4064L93.4825 83.6176L93.4165 83.7409L93.0425 83.5253V83.9653H92.9061V83.5253L92.5321 83.7409L92.4617 83.6176L92.8357 83.4064L92.4617 83.1996L92.5321 83.0721L92.9061 83.2921V82.8521H93.0425V83.2921L93.4165 83.0721L93.4825 83.1996L93.1129 83.4064Z" fill="#263238"/>
<path d="M94.3228 83.4064L94.6924 83.6176L94.622 83.7409L94.2524 83.5253V83.9653H94.1116V83.5253L93.742 83.7409L93.6672 83.6176L94.0412 83.4064L93.6672 83.1996L93.742 83.0721L94.1116 83.2921V82.8521H94.2524V83.2921L94.622 83.0721L94.6924 83.1996L94.3228 83.4064Z" fill="#263238"/>
<path d="M95.5284 83.4064L95.898 83.6176L95.8276 83.7409L95.458 83.5253V83.9653H95.3216V83.5253L94.952 83.7409L94.8816 83.6176L95.2512 83.4064L94.8816 83.1996L94.952 83.0721L95.3216 83.2921V82.8521H95.48V83.2921L95.8496 83.0721L95.92 83.1996L95.5284 83.4064Z" fill="#263238"/>
<path d="M96.734 83.4064L97.1036 83.6176L97.0376 83.7409L96.6636 83.5253V83.9653H96.5272V83.5253L96.1532 83.7409L96.0828 83.6176L96.4568 83.4064L96.0828 83.1996L96.1532 83.0721L96.5272 83.2921V82.8521H96.6636V83.2921L97.0376 83.0721L97.1036 83.1996L96.734 83.4064Z" fill="#263238"/>
<path d="M97.9442 83.4064L98.3138 83.6176L98.2434 83.7409L97.8694 83.5253V83.9653H97.733V83.5253L97.3634 83.7409L97.2886 83.6176L97.6626 83.4064L97.2886 83.1996L97.3634 83.0721L97.733 83.2921V82.8521H97.8694V83.2921L98.2434 83.0721L98.3138 83.1996L97.9442 83.4064Z" fill="#263238"/>
<path d="M99.1497 83.4064L99.5193 83.6176L99.4489 83.7409L99.0793 83.5253V83.9653H98.9429V83.5253L98.5733 83.7409L98.5029 83.6176L98.8725 83.4064L98.5029 83.1996L98.5733 83.0721L98.9429 83.2921V82.8521H99.0793V83.2921L99.4489 83.0721L99.5193 83.1996L99.1497 83.4064Z" fill="#263238"/>
<path d="M100.355 83.4064L100.725 83.6176L100.659 83.7409L100.285 83.5253V83.9653H100.148V83.5253L99.7745 83.7409L99.7041 83.6176L100.074 83.4064L99.7041 83.1996L99.7745 83.0721L100.148 83.2921V82.8521H100.285V83.2921L100.659 83.0721L100.725 83.1996L100.355 83.4064Z" fill="#263238"/>
<path d="M101.565 83.4064L101.93 83.6176L101.864 83.7409L101.49 83.5253V83.9653H101.354V83.5253L100.984 83.7409L100.91 83.6176L101.284 83.4064L100.91 83.1996L100.984 83.0721L101.354 83.2921V82.8521H101.49V83.2921L101.864 83.0721L101.93 83.1996L101.565 83.4064Z" fill="#263238"/>
<path d="M89.2935 77.4401C89.2935 77.8801 88.9723 78.1529 88.4443 78.1529H87.8855V78.8085H87.6611V76.7361H88.4399C88.9723 76.7361 89.2935 77.0001 89.2935 77.4401ZM89.0735 77.4401C89.0735 77.1057 88.8535 76.9165 88.4355 76.9165H87.8855V77.9593H88.4399C88.8535 77.9681 89.0735 77.7789 89.0735 77.4401Z" fill="#263238"/>
<path d="M90.8908 77.8493V78.8173H90.6884V78.5753C90.6288 78.6619 90.5474 78.7312 90.4523 78.776C90.3572 78.8208 90.2519 78.8396 90.1472 78.8305C89.7952 78.8305 89.5796 78.6501 89.5796 78.3905C89.5796 78.1309 89.7336 77.9505 90.1824 77.9505H90.6796V77.8581C90.6796 77.5897 90.5256 77.4445 90.2396 77.4445C90.0499 77.4415 89.8656 77.5071 89.7204 77.6293L89.6236 77.4709C89.8049 77.3279 90.0307 77.2531 90.2616 77.2597C90.3435 77.2483 90.4269 77.2554 90.5056 77.2804C90.5844 77.3054 90.6566 77.3477 90.717 77.4042C90.7773 77.4608 90.8242 77.5301 90.8543 77.6071C90.8843 77.6841 90.8968 77.7668 90.8908 77.8493ZM90.6796 78.3465V78.0913H90.2C89.8964 78.0913 89.7996 78.2101 89.7996 78.3729C89.7996 78.5357 89.9448 78.6677 90.1956 78.6677C90.2996 78.671 90.4021 78.6418 90.4888 78.5843C90.5755 78.5267 90.6422 78.4436 90.6796 78.3465Z" fill="#263238"/>
<path d="M91.2473 78.6412L91.3397 78.474C91.5033 78.589 91.6985 78.6505 91.8985 78.65C92.1933 78.65 92.3165 78.5488 92.3165 78.3904C92.3165 77.9856 91.3045 78.3068 91.3045 77.6864C91.3045 77.4312 91.5245 77.2464 91.9205 77.2464C92.115 77.2439 92.3066 77.2941 92.4749 77.3916L92.3825 77.5588C92.2452 77.4696 92.0843 77.4236 91.9205 77.4268C91.6389 77.4268 91.5157 77.5368 91.5157 77.6864C91.5157 78.1264 92.5277 77.792 92.5277 78.3904C92.5277 78.6632 92.2901 78.8304 91.8809 78.8304C91.6548 78.8378 91.4324 78.7714 91.2473 78.6412Z" fill="#263238"/>
<path d="M92.6992 78.6413L92.796 78.4741C92.9577 78.5895 93.1517 78.6511 93.3504 78.6501C93.6496 78.6501 93.7904 78.5489 93.7904 78.3905C93.7904 77.9857 92.7784 78.3069 92.7784 77.6865C92.7784 77.4313 92.9984 77.2465 93.3988 77.2465C93.592 77.2434 93.7823 77.2937 93.9488 77.3917L93.8564 77.5589C93.7255 77.4735 93.5727 77.4277 93.4164 77.4269C93.1304 77.4269 93.0072 77.5369 93.0072 77.6865C93.0072 78.1265 94.0192 77.7921 94.0192 78.3905C94.0192 78.6633 93.7816 78.8305 93.3768 78.8305C93.1359 78.8474 92.8965 78.7806 92.6992 78.6413Z" fill="#263238"/>
<path d="M96.6372 77.2551L96.0432 78.8171H95.8452L95.3524 77.5367L94.8596 78.8171H94.6572L94.072 77.2551H94.2744L94.7628 78.5751L95.2644 77.2551H95.4492L95.9464 78.5751L96.4436 77.2551H96.6372Z" fill="#263238"/>
<path d="M96.7517 78.034C96.7517 77.8764 96.7984 77.7225 96.8859 77.5915C96.9734 77.4605 97.0978 77.3584 97.2433 77.2982C97.3888 77.2379 97.549 77.2221 97.7035 77.2529C97.8579 77.2836 97.9998 77.3594 98.1112 77.4708C98.2226 77.5822 98.2985 77.7241 98.3292 77.8786C98.3599 78.0331 98.3441 78.1932 98.2839 78.3387C98.2236 78.4842 98.1215 78.6086 97.9905 78.6961C97.8596 78.7836 97.7056 78.8303 97.5481 78.8303C97.4425 78.834 97.3373 78.816 97.239 78.7772C97.1407 78.7385 97.0515 78.68 96.9768 78.6053C96.9021 78.5306 96.8435 78.4413 96.8048 78.343C96.7661 78.2447 96.748 78.1395 96.7517 78.034ZM98.1289 78.034C98.1289 77.8799 98.0677 77.7322 97.9588 77.6233C97.8499 77.5143 97.7021 77.4531 97.5481 77.4531C97.3941 77.4531 97.2463 77.5143 97.1374 77.6233C97.0285 77.7322 96.9673 77.8799 96.9673 78.034C96.9673 78.188 97.0285 78.3357 97.1374 78.4446C97.2463 78.5536 97.3941 78.6147 97.5481 78.6147C97.7021 78.6147 97.8499 78.5536 97.9588 78.4446C98.0677 78.3357 98.1289 78.188 98.1289 78.034Z" fill="#263238"/>
<path d="M99.5632 77.2419V77.4399H99.5104C99.4362 77.4366 99.3621 77.4497 99.2934 77.4783C99.2248 77.5068 99.1633 77.5502 99.1133 77.6052C99.0633 77.6602 99.0261 77.7256 99.0042 77.7967C98.9823 77.8677 98.9764 77.9427 98.9868 78.0163V78.8127H98.7756V77.2507H99V77.5543C99.0531 77.4529 99.1347 77.3692 99.2348 77.3137C99.3349 77.2582 99.4491 77.2332 99.5632 77.2419Z" fill="#263238"/>
<path d="M101.354 76.6128V78.8128H101.152V78.5048C101.089 78.6072 101 78.691 100.894 78.7475C100.788 78.804 100.669 78.8311 100.549 78.826C100.348 78.8111 100.161 78.7209 100.024 78.5736C99.8875 78.4263 99.8115 78.2328 99.8115 78.0318C99.8115 77.8308 99.8875 77.6373 100.024 77.49C100.161 77.3427 100.348 77.2525 100.549 77.2376C100.666 77.2331 100.782 77.2592 100.886 77.3132C100.991 77.3672 101.079 77.4472 101.143 77.5456V76.6084L101.354 76.6128ZM101.147 78.034C101.141 77.9206 101.102 77.8115 101.035 77.7201C100.967 77.6288 100.875 77.5591 100.768 77.5199C100.662 77.4806 100.546 77.4734 100.435 77.4992C100.325 77.5249 100.224 77.5825 100.146 77.6649C100.068 77.7472 100.016 77.8506 99.9955 77.9623C99.9755 78.0741 99.9886 78.1892 100.033 78.2936C100.078 78.3979 100.152 78.4869 100.247 78.5495C100.342 78.612 100.453 78.6454 100.566 78.6456C100.646 78.647 100.724 78.6319 100.798 78.6013C100.871 78.5706 100.937 78.5251 100.991 78.4676C101.046 78.4101 101.088 78.3418 101.115 78.2672C101.142 78.1925 101.153 78.1131 101.147 78.034Z" fill="#263238"/>
<path d="M104.483 94.6001V96.6857H104.28V94.7937H103.787V94.6001H104.483Z" fill="#263238"/>
<path d="M106.401 96.4832V96.6768H104.94V96.5228L105.82 95.6736C106.053 95.4448 106.102 95.304 106.102 95.1632C106.102 94.9212 105.93 94.7716 105.613 94.7716C105.507 94.7648 105.401 94.7822 105.302 94.8226C105.204 94.863 105.116 94.9253 105.046 95.0048L104.892 94.8728C104.985 94.7718 105.1 94.6927 105.228 94.6411C105.356 94.5894 105.493 94.5663 105.631 94.5736C106.071 94.5736 106.322 94.7892 106.322 95.1368C106.315 95.2637 106.281 95.3876 106.221 95.5C106.162 95.6124 106.079 95.7106 105.978 95.788L105.27 96.4832H106.401Z" fill="#263238"/>
<path d="M108.047 96.0785C108.047 96.4261 107.791 96.6945 107.29 96.6945C107.015 96.7031 106.748 96.6072 106.542 96.4261L106.643 96.2545C106.819 96.4161 107.051 96.5029 107.29 96.4965C107.637 96.4965 107.827 96.3381 107.827 96.0785C107.827 95.8189 107.651 95.6649 107.263 95.6649H107.114V95.5065L107.69 94.7849H106.625V94.6001H107.945V94.7541L107.36 95.4801C107.822 95.5109 108.047 95.7441 108.047 96.0785Z" fill="#263238"/>
<path d="M110.115 96.1269H109.697V96.6769H109.485V96.1269H108.311V95.9729L109.415 94.5913H109.653L108.588 95.9201H109.49V95.4361H109.697V95.9201H110.115V96.1269Z" fill="#263238"/>
<path d="M112.504 96.0609C112.504 96.4173 112.257 96.6945 111.747 96.6945C111.473 96.7027 111.205 96.6068 110.999 96.4261L111.104 96.2545C111.189 96.3353 111.289 96.3983 111.399 96.4399C111.509 96.4814 111.625 96.5007 111.742 96.4965C112.099 96.4965 112.284 96.3249 112.284 96.0565C112.284 95.7881 112.116 95.6165 111.588 95.6165H111.148L111.258 94.5693H112.398V94.7629H111.443L111.373 95.4229H111.641C112.266 95.4449 112.504 95.6957 112.504 96.0609Z" fill="#263238"/>
<path d="M114.338 96.0521C114.338 96.1423 114.318 96.2314 114.281 96.3136C114.244 96.3959 114.19 96.4696 114.123 96.53C114.056 96.5904 113.977 96.6362 113.892 96.6645C113.806 96.6928 113.715 96.703 113.626 96.6945C113.071 96.6945 112.772 96.3073 112.772 95.6517C112.772 94.9961 113.159 94.5737 113.722 94.5737C113.895 94.5671 114.067 94.6066 114.22 94.6881L114.132 94.8597C114.009 94.7893 113.868 94.7557 113.727 94.7629C113.287 94.7629 112.988 95.0489 112.988 95.6165C112.988 95.6649 112.988 95.7221 112.988 95.7837C113.048 95.6692 113.141 95.5746 113.254 95.5114C113.367 95.4482 113.496 95.419 113.626 95.4273C113.714 95.4161 113.805 95.4239 113.89 95.4501C113.976 95.4763 114.055 95.5204 114.122 95.5795C114.19 95.6385 114.244 95.7112 114.281 95.7926C114.318 95.8741 114.338 95.9625 114.338 96.0521ZM114.127 96.0521C114.127 95.7749 113.925 95.6121 113.604 95.6121C113.539 95.6042 113.474 95.6094 113.412 95.6275C113.349 95.6455 113.291 95.6761 113.241 95.7172C113.191 95.7583 113.149 95.8092 113.12 95.8668C113.09 95.9244 113.072 95.9874 113.067 96.0521C113.067 96.2809 113.256 96.4921 113.617 96.4921C113.679 96.5023 113.744 96.4987 113.805 96.4818C113.866 96.4648 113.923 96.4348 113.971 96.3939C114.02 96.3529 114.059 96.302 114.086 96.2445C114.113 96.187 114.127 96.1244 114.127 96.0609V96.0521Z" fill="#263238"/>
<path d="M116.028 94.6001V94.7541L115.148 96.6857H114.915L115.773 94.7937H114.704V95.1809H114.492V94.6001H116.028Z" fill="#263238"/>
<path d="M117.854 96.0961C117.854 96.4657 117.542 96.6945 117.044 96.6945C116.547 96.6945 116.244 96.4657 116.244 96.0961C116.242 95.9777 116.281 95.8623 116.354 95.7688C116.427 95.6753 116.529 95.6092 116.644 95.5813C116.548 95.5555 116.464 95.498 116.405 95.4181C116.345 95.3382 116.315 95.2406 116.318 95.1413C116.318 94.8025 116.604 94.5913 117.044 94.5913C117.484 94.5913 117.779 94.8025 117.779 95.1413C117.778 95.2407 117.744 95.337 117.684 95.4162C117.624 95.4953 117.54 95.5532 117.445 95.5813C117.561 95.6082 117.665 95.6737 117.739 95.7672C117.814 95.8607 117.854 95.9767 117.854 96.0961ZM117.634 96.0961C117.634 95.8409 117.414 95.6781 117.044 95.6781C116.675 95.6781 116.459 95.8409 116.459 96.0961C116.459 96.3513 116.675 96.5361 117.044 96.5361C117.414 96.5361 117.634 96.3601 117.634 96.0917V96.0961ZM117.04 95.5065C117.366 95.5065 117.559 95.3613 117.559 95.1325C117.559 94.9037 117.352 94.7585 117.04 94.7585C116.728 94.7585 116.525 94.8993 116.525 95.1325C116.525 95.3657 116.719 95.5065 117.04 95.5065Z" fill="#263238"/>
<path d="M120.432 95.6165C120.432 96.3249 120.045 96.6945 119.478 96.6945C119.306 96.7005 119.136 96.6611 118.985 96.5801L119.073 96.4085C119.196 96.4789 119.336 96.5125 119.478 96.5053C119.918 96.5053 120.212 96.2149 120.212 95.6517C120.216 95.5961 120.216 95.5402 120.212 95.4845C120.153 95.5994 120.062 95.6945 119.949 95.7578C119.836 95.8212 119.708 95.8501 119.579 95.8409C119.491 95.8508 119.401 95.842 119.317 95.8152C119.232 95.7883 119.154 95.744 119.088 95.6851C119.021 95.6262 118.968 95.554 118.931 95.4733C118.895 95.3925 118.875 95.3049 118.875 95.2161C118.876 95.1259 118.895 95.0368 118.932 94.9546C118.969 94.8723 119.023 94.7987 119.09 94.7383C119.157 94.6779 119.236 94.6321 119.321 94.6037C119.407 94.5754 119.498 94.5652 119.588 94.5737C120.12 94.5737 120.432 94.9609 120.432 95.6165ZM120.138 95.2029C120.138 94.9741 119.948 94.7629 119.588 94.7629C119.524 94.7526 119.459 94.7564 119.397 94.7738C119.336 94.7913 119.278 94.8221 119.23 94.864C119.181 94.9059 119.142 94.958 119.116 95.0165C119.09 95.0751 119.076 95.1387 119.077 95.2029C119.077 95.4801 119.28 95.6429 119.601 95.6429C119.728 95.6527 119.854 95.612 119.951 95.5296C120.048 95.4472 120.109 95.3298 120.12 95.2029H120.138Z" fill="#263238"/>
<path d="M121.312 94.6001V96.6857H121.097V94.7937H120.604V94.6001H121.312Z" fill="#263238"/>
<path d="M121.805 95.6341C121.805 94.9697 122.157 94.5737 122.637 94.5737C123.116 94.5737 123.468 94.9697 123.468 95.6341C123.468 96.2985 123.121 96.6945 122.637 96.6945C122.153 96.6945 121.805 96.2985 121.805 95.6341ZM123.248 95.6341C123.248 95.0797 123.002 94.7541 122.637 94.7541C122.272 94.7541 122.025 95.0621 122.025 95.6341C122.025 96.2061 122.276 96.5141 122.637 96.5141C122.998 96.5141 123.248 96.1885 123.248 95.6341Z" fill="#263238"/>
<path d="M124.349 94.6001V96.6857H124.133V94.7937H123.64V94.6001H124.349Z" fill="#263238"/>
<path d="M126.201 94.6001V96.6857H125.985V94.7937H125.492V94.6001H126.201Z" fill="#263238"/>
<path d="M127.27 94.6001V96.6857H127.059V94.7937H126.566V94.6001H127.27Z" fill="#263238"/>
<path d="M129.188 96.4832V96.6768H127.728V96.5228L128.608 95.6736C128.841 95.4448 128.889 95.304 128.889 95.1632C128.889 94.9212 128.718 94.7716 128.401 94.7716C128.295 94.7648 128.188 94.7823 128.09 94.8227C127.992 94.8631 127.904 94.9254 127.833 95.0048L127.679 94.8728C127.773 94.7724 127.888 94.6936 128.016 94.6419C128.144 94.5903 128.281 94.567 128.418 94.5736C128.858 94.5736 129.109 94.7892 129.109 95.1368C129.102 95.2637 129.068 95.3876 129.009 95.5C128.95 95.6124 128.867 95.7107 128.766 95.788L128.04 96.4832H129.188Z" fill="#263238"/>
<path d="M130.033 94.6001V96.6857H129.8V94.7937H129.312V94.6001H130.033Z" fill="#263238"/>
<path d="M94.9476 94.1161V93.7993C94.9476 93.6522 94.8892 93.5112 94.7852 93.4073C94.6812 93.3033 94.5402 93.2449 94.3932 93.2449H88.7744C88.6273 93.2449 88.4863 93.3033 88.3824 93.4073C88.2784 93.5112 88.22 93.6522 88.22 93.7993V94.1161H94.9476Z" fill="#263238"/>
<path d="M88.22 94.5515V96.8835C88.22 97.0306 88.2784 97.1716 88.3824 97.2755C88.4863 97.3795 88.6273 97.4379 88.7744 97.4379H94.3932C94.5402 97.4379 94.6812 97.3795 94.7852 97.2755C94.8892 97.1716 94.9476 97.0306 94.9476 96.8835V94.5515H88.22Z" fill="#263238"/>
<path d="M88.3037 106.832C88.3037 106.168 88.6513 105.776 89.1353 105.776C89.6193 105.776 89.9669 106.168 89.9669 106.832C89.9669 107.497 89.6149 107.893 89.1353 107.893C88.6557 107.893 88.3037 107.497 88.3037 106.832ZM89.7469 106.832C89.7469 106.278 89.4961 105.952 89.1353 105.952C88.7745 105.952 88.5237 106.26 88.5237 106.832C88.5237 107.404 88.7701 107.712 89.1353 107.712C89.5005 107.712 89.7601 107.391 89.7601 106.832H89.7469Z" fill="#263238"/>
<path d="M91.8719 107.294C91.8719 107.664 91.5595 107.893 91.0623 107.893C90.5651 107.893 90.2615 107.664 90.2615 107.294C90.2596 107.176 90.2983 107.061 90.3712 106.968C90.4441 106.875 90.5468 106.81 90.6619 106.784C90.5686 106.753 90.487 106.695 90.4286 106.616C90.3703 106.537 90.338 106.442 90.3363 106.344C90.3363 106.005 90.6223 105.794 91.0623 105.794C91.5023 105.794 91.7971 106.005 91.7971 106.344C91.7945 106.442 91.7614 106.537 91.7023 106.616C91.6431 106.695 91.561 106.754 91.4671 106.784C91.5827 106.81 91.6859 106.875 91.7595 106.968C91.8332 107.06 91.8728 107.176 91.8719 107.294ZM91.6519 107.294C91.6519 107.039 91.4319 106.881 91.0623 106.881C90.6927 106.881 90.4771 107.039 90.4771 107.294C90.4771 107.549 90.6971 107.734 91.0623 107.734C91.4275 107.734 91.6519 107.549 91.6519 107.29V107.294ZM91.0799 106.704C91.4055 106.704 91.5991 106.559 91.5991 106.335C91.5991 106.11 91.3923 105.956 91.0799 105.956C90.7675 105.956 90.5651 106.097 90.5651 106.331C90.5651 106.564 90.7411 106.704 91.0799 106.704Z" fill="#263238"/>
<path d="M92.9236 105.371H93.1172L92.1316 108.17H91.96L92.9236 105.371Z" fill="#263238"/>
<path d="M94.6 107.681V107.875H93.1392V107.721L94.0192 106.876C94.2524 106.643 94.2964 106.502 94.2964 106.361C94.2964 106.119 94.1292 105.97 93.8124 105.97C93.7057 105.963 93.5987 105.98 93.4997 106.02C93.4006 106.061 93.312 106.123 93.2404 106.203L93.0908 106.071C93.1847 105.97 93.2996 105.891 93.4274 105.841C93.5552 105.79 93.6927 105.767 93.83 105.776C94.27 105.776 94.5164 105.987 94.5164 106.335C94.5119 106.462 94.4792 106.586 94.4206 106.699C94.362 106.811 94.279 106.909 94.1776 106.986L93.4692 107.681H94.6Z" fill="#263238"/>
<path d="M96.2677 107.259C96.2677 107.615 96.0213 107.893 95.5109 107.893C95.2367 107.901 94.9694 107.805 94.7629 107.624L94.8685 107.453C94.9534 107.533 95.0536 107.596 95.1631 107.638C95.2727 107.679 95.3894 107.699 95.5065 107.695C95.8629 107.695 96.0477 107.523 96.0477 107.255C96.0477 106.986 95.8849 106.815 95.3525 106.815H94.9125L95.0181 105.772H96.1577V105.961H95.2029L95.1325 106.625H95.4009C96.0301 106.647 96.2677 106.894 96.2677 107.259Z" fill="#263238"/>
<path d="M89.276 104.452V104.57H88.3608V103.277H89.2408V103.4H88.4928V103.84H89.1616V103.959H88.4928V104.438L89.276 104.452Z" fill="#263238"/>
<path d="M90.3892 104.57L89.9756 103.998L89.5356 104.57H89.3772L89.87 103.906L89.43 103.277H89.584L89.9756 103.805L90.3628 103.277H90.508L90.068 103.902L90.5608 104.57H90.3892Z" fill="#263238"/>
<path d="M91.762 103.721C91.762 103.994 91.5596 104.161 91.234 104.161H90.8864V104.57H90.75V103.277H91.234C91.5596 103.277 91.762 103.444 91.762 103.721ZM91.6256 103.721C91.6256 103.514 91.4892 103.396 91.2296 103.396H90.8864V104.042H91.2296C91.4892 104.042 91.6256 103.924 91.6256 103.721Z" fill="#263238"/>
<path d="M92.5627 103.277H93.0863C93.2579 103.277 93.4224 103.345 93.5437 103.466C93.665 103.588 93.7331 103.752 93.7331 103.924C93.7331 104.095 93.665 104.26 93.5437 104.381C93.4224 104.502 93.2579 104.57 93.0863 104.57H92.5627V103.277ZM93.0775 104.452C93.2176 104.452 93.3519 104.396 93.4509 104.297C93.5499 104.198 93.6055 104.064 93.6055 103.924C93.6055 103.784 93.5499 103.649 93.4509 103.55C93.3519 103.451 93.2176 103.396 93.0775 103.396H92.6991V104.452H93.0775Z" fill="#263238"/>
<path d="M94.7937 103.968V104.57H94.6661V104.416C94.6304 104.471 94.5804 104.516 94.5215 104.544C94.4626 104.573 94.397 104.585 94.3317 104.579C94.1161 104.579 93.9797 104.465 93.9797 104.298C93.9797 104.13 94.0765 104.02 94.3537 104.02H94.6617V103.963C94.6655 103.927 94.661 103.89 94.6484 103.856C94.6358 103.822 94.6156 103.791 94.5892 103.766C94.5629 103.741 94.5311 103.722 94.4964 103.712C94.4616 103.701 94.4249 103.698 94.3889 103.704C94.2702 103.702 94.1547 103.742 94.0633 103.818L94.0061 103.721C94.1186 103.632 94.2587 103.585 94.4021 103.589C94.4542 103.581 94.5074 103.586 94.5575 103.602C94.6076 103.618 94.6534 103.645 94.6912 103.682C94.7291 103.718 94.758 103.763 94.7758 103.813C94.7936 103.862 94.7997 103.915 94.7937 103.968ZM94.6617 104.276V104.117H94.3581C94.1689 104.117 94.1073 104.192 94.1073 104.293C94.1073 104.394 94.1997 104.474 94.3537 104.474C94.419 104.478 94.484 104.462 94.5394 104.427C94.5948 104.392 94.6376 104.341 94.6617 104.28V104.276Z" fill="#263238"/>
<path d="M95.6605 104.509C95.6045 104.557 95.5321 104.582 95.4581 104.579C95.4199 104.583 95.3813 104.579 95.3451 104.566C95.3088 104.553 95.2758 104.533 95.2485 104.506C95.2211 104.479 95.2001 104.446 95.1869 104.41C95.1737 104.374 95.1686 104.336 95.1721 104.297V103.708H95.0005V103.598H95.1721V103.4H95.3041V103.611H95.5989V103.721H95.3041V104.28C95.3006 104.303 95.3025 104.327 95.3095 104.349C95.3166 104.371 95.3286 104.392 95.3447 104.409C95.3609 104.426 95.3806 104.439 95.4026 104.447C95.4245 104.455 95.448 104.458 95.4713 104.456C95.5238 104.457 95.5751 104.44 95.6165 104.407L95.6605 104.509Z" fill="#263238"/>
<path d="M96.7121 104.126H95.9201C95.9269 104.221 95.9709 104.309 96.0426 104.372C96.1143 104.435 96.2079 104.466 96.3029 104.46C96.3591 104.463 96.4151 104.452 96.4669 104.43C96.5187 104.408 96.5648 104.375 96.6021 104.333L96.6769 104.421C96.6289 104.473 96.5703 104.514 96.505 104.541C96.4397 104.569 96.3692 104.582 96.2985 104.579C96.2318 104.583 96.1651 104.573 96.1026 104.549C96.0401 104.526 95.9832 104.489 95.9356 104.442C95.888 104.396 95.8506 104.339 95.826 104.277C95.8013 104.215 95.7899 104.149 95.7925 104.082C95.7889 104.018 95.7984 103.954 95.8205 103.894C95.8426 103.834 95.8768 103.78 95.9209 103.733C95.9651 103.687 96.0182 103.651 96.0771 103.626C96.136 103.601 96.1994 103.589 96.2633 103.589C96.3283 103.584 96.3937 103.594 96.4546 103.617C96.5155 103.64 96.5705 103.677 96.6156 103.724C96.6606 103.771 96.6947 103.828 96.7152 103.89C96.7356 103.952 96.7421 104.017 96.7341 104.082L96.7121 104.126ZM95.8981 104.025H96.5889C96.5793 103.94 96.5388 103.862 96.4751 103.805C96.4114 103.748 96.3289 103.716 96.2435 103.716C96.1581 103.716 96.0756 103.748 96.0119 103.805C95.9482 103.862 95.9077 103.94 95.8981 104.025Z" fill="#263238"/>
<path d="M112.878 105.794V107.875H112.666V105.983H112.174V105.794H112.878Z" fill="#263238"/>
<path d="M114.796 107.681V107.875H113.335V107.721L114.215 106.876C114.448 106.643 114.497 106.502 114.497 106.361C114.497 106.119 114.325 105.97 114.008 105.97C113.902 105.963 113.796 105.98 113.698 106.021C113.599 106.061 113.512 106.123 113.441 106.203L113.287 106.071C113.381 105.971 113.496 105.892 113.624 105.841C113.751 105.79 113.889 105.768 114.026 105.776C114.466 105.776 114.717 105.987 114.717 106.335C114.71 106.462 114.676 106.586 114.617 106.698C114.557 106.81 114.474 106.909 114.374 106.986L113.665 107.681H114.796Z" fill="#263238"/>
<path d="M116.442 107.276C116.442 107.624 116.186 107.893 115.685 107.893C115.41 107.901 115.143 107.805 114.937 107.624L115.042 107.453C115.128 107.534 115.229 107.597 115.339 107.639C115.449 107.68 115.567 107.699 115.685 107.694C116.032 107.694 116.222 107.536 116.222 107.276C116.222 107.017 116.046 106.863 115.658 106.863H115.509V106.704L116.085 105.983H115.02V105.794H116.34V105.943L115.751 106.683C116.217 106.709 116.442 106.942 116.442 107.276Z" fill="#263238"/>
<path d="M112.244 103.924C112.243 103.835 112.259 103.747 112.293 103.666C112.327 103.584 112.377 103.51 112.441 103.448C112.504 103.386 112.579 103.338 112.662 103.306C112.745 103.275 112.833 103.26 112.922 103.264C113.009 103.261 113.096 103.276 113.177 103.309C113.258 103.341 113.331 103.39 113.392 103.453L113.309 103.541C113.259 103.491 113.199 103.451 113.133 103.425C113.067 103.398 112.997 103.385 112.926 103.387C112.852 103.38 112.777 103.389 112.706 103.413C112.635 103.437 112.57 103.475 112.515 103.525C112.46 103.575 112.416 103.637 112.386 103.705C112.356 103.773 112.341 103.847 112.341 103.922C112.341 103.996 112.356 104.07 112.386 104.138C112.416 104.206 112.46 104.268 112.515 104.318C112.57 104.368 112.635 104.406 112.706 104.43C112.777 104.454 112.852 104.463 112.926 104.456C112.997 104.459 113.068 104.446 113.134 104.42C113.2 104.393 113.259 104.353 113.309 104.302L113.392 104.39C113.331 104.454 113.257 104.504 113.175 104.536C113.093 104.569 113.005 104.584 112.917 104.579C112.829 104.583 112.742 104.569 112.659 104.537C112.577 104.506 112.502 104.458 112.439 104.396C112.376 104.335 112.327 104.262 112.293 104.18C112.259 104.099 112.243 104.012 112.244 103.924Z" fill="#263238"/>
<path d="M115.447 103.277L115.007 104.57H114.862L114.484 103.466L114.105 104.57H113.96L113.52 103.277H113.661L114.035 104.39L114.422 103.277H114.55L114.928 104.394L115.306 103.277H115.447Z" fill="#263238"/>
<path d="M101.337 119.055H100.175L99.9241 119.614H99.6953L100.646 117.533H100.866L101.816 119.614H101.583L101.337 119.055ZM101.253 118.879L100.76 117.762L100.259 118.879H101.253Z" fill="#263238"/>
<path d="M101.944 118.831C101.94 118.724 101.958 118.618 101.997 118.52C102.037 118.421 102.096 118.331 102.172 118.256C102.247 118.181 102.338 118.123 102.437 118.085C102.536 118.047 102.642 118.029 102.749 118.034C102.869 118.027 102.99 118.052 103.097 118.107C103.205 118.162 103.296 118.245 103.36 118.347L103.206 118.452C103.157 118.381 103.091 118.323 103.015 118.282C102.938 118.242 102.853 118.22 102.766 118.219C102.604 118.219 102.449 118.284 102.334 118.398C102.219 118.513 102.155 118.669 102.155 118.831C102.155 118.993 102.219 119.149 102.334 119.263C102.449 119.378 102.604 119.442 102.766 119.442C102.853 119.442 102.937 119.421 103.014 119.381C103.09 119.341 103.156 119.284 103.206 119.214L103.36 119.319C103.294 119.42 103.203 119.501 103.096 119.555C102.988 119.609 102.869 119.634 102.749 119.627C102.642 119.632 102.536 119.615 102.437 119.577C102.338 119.539 102.247 119.48 102.172 119.405C102.096 119.331 102.037 119.241 101.997 119.142C101.958 119.043 101.94 118.937 101.944 118.831Z" fill="#263238"/>
<path d="M104.615 119.517C104.522 119.593 104.404 119.632 104.285 119.627C104.226 119.631 104.167 119.622 104.112 119.602C104.057 119.581 104.006 119.549 103.965 119.507C103.923 119.465 103.891 119.415 103.87 119.36C103.849 119.305 103.841 119.246 103.845 119.187V118.228H103.567V118.048H103.84V117.704H104.051V118.048H104.531V118.228H104.051V119.161C104.046 119.198 104.049 119.237 104.061 119.273C104.072 119.31 104.092 119.343 104.118 119.37C104.144 119.398 104.177 119.419 104.212 119.432C104.248 119.446 104.286 119.45 104.324 119.447C104.409 119.448 104.491 119.42 104.557 119.368L104.615 119.517Z" fill="#263238"/>
<path d="M104.953 117.555C104.953 117.514 104.97 117.475 104.998 117.446C105.027 117.417 105.067 117.401 105.107 117.401C105.148 117.401 105.187 117.417 105.216 117.446C105.245 117.475 105.261 117.514 105.261 117.555C105.261 117.596 105.245 117.635 105.216 117.664C105.187 117.693 105.148 117.709 105.107 117.709C105.067 117.709 105.027 117.693 104.998 117.664C104.97 117.635 104.953 117.596 104.953 117.555ZM105.002 118.048H105.213V119.614H105.002V118.048Z" fill="#263238"/>
<path d="M105.64 118.831C105.64 118.673 105.686 118.52 105.774 118.389C105.861 118.258 105.985 118.156 106.13 118.095C106.276 118.035 106.436 118.019 106.59 118.049C106.744 118.08 106.886 118.155 106.998 118.266C107.109 118.377 107.185 118.519 107.217 118.673C107.248 118.827 107.233 118.987 107.173 119.133C107.114 119.278 107.012 119.403 106.882 119.491C106.751 119.579 106.598 119.626 106.441 119.627C106.335 119.631 106.229 119.613 106.131 119.574C106.032 119.535 105.943 119.477 105.868 119.402C105.793 119.328 105.734 119.239 105.695 119.14C105.655 119.042 105.637 118.937 105.64 118.831ZM107.017 118.831C107.011 118.717 106.972 118.608 106.904 118.517C106.837 118.425 106.744 118.355 106.637 118.316C106.53 118.277 106.414 118.27 106.304 118.296C106.193 118.322 106.092 118.381 106.014 118.463C105.936 118.546 105.884 118.65 105.865 118.762C105.845 118.874 105.859 118.989 105.904 119.093C105.95 119.198 106.025 119.286 106.12 119.348C106.215 119.41 106.327 119.443 106.441 119.442C106.519 119.443 106.598 119.428 106.67 119.397C106.743 119.366 106.808 119.32 106.863 119.263C106.917 119.205 106.958 119.137 106.985 119.063C107.012 118.989 107.022 118.91 107.017 118.831Z" fill="#263238"/>
<path d="M109.12 118.708V119.614H108.909V118.734C108.917 118.669 108.912 118.603 108.891 118.54C108.871 118.478 108.837 118.421 108.792 118.373C108.747 118.325 108.692 118.288 108.63 118.265C108.569 118.241 108.503 118.232 108.438 118.237C108.363 118.231 108.288 118.242 108.218 118.269C108.149 118.295 108.085 118.337 108.033 118.391C107.981 118.444 107.942 118.509 107.917 118.58C107.893 118.65 107.884 118.726 107.892 118.8V119.623H107.681V118.056H107.884V118.36C107.947 118.261 108.035 118.182 108.14 118.128C108.244 118.075 108.361 118.05 108.478 118.056C108.564 118.05 108.651 118.063 108.732 118.094C108.814 118.125 108.887 118.173 108.948 118.234C109.009 118.296 109.056 118.371 109.086 118.452C109.116 118.534 109.127 118.621 109.12 118.708Z" fill="#263238"/>
<path d="M110.722 117.722V118.54H111.795V118.73H110.722V119.61H110.502V117.528H111.927V117.718L110.722 117.722Z" fill="#263238"/>
<path d="M112.262 117.555C112.262 117.514 112.278 117.475 112.307 117.446C112.336 117.417 112.375 117.401 112.416 117.401C112.457 117.401 112.496 117.417 112.525 117.446C112.553 117.475 112.57 117.514 112.57 117.555C112.57 117.596 112.553 117.635 112.525 117.664C112.496 117.693 112.457 117.709 112.416 117.709C112.375 117.709 112.336 117.693 112.307 117.664C112.278 117.635 112.262 117.596 112.262 117.555ZM112.306 118.048H112.517V119.614H112.306V118.048Z" fill="#263238"/>
<path d="M114.554 118.048V119.425C114.57 119.531 114.562 119.639 114.528 119.741C114.495 119.843 114.438 119.936 114.362 120.012C114.286 120.088 114.194 120.145 114.092 120.178C113.99 120.211 113.881 120.22 113.775 120.204C113.511 120.215 113.252 120.131 113.045 119.966L113.15 119.803C113.323 119.946 113.542 120.023 113.766 120.019C114.162 120.019 114.343 119.834 114.343 119.451V119.24C114.276 119.339 114.185 119.418 114.079 119.472C113.973 119.525 113.854 119.55 113.736 119.544C113.631 119.552 113.526 119.538 113.427 119.503C113.328 119.469 113.237 119.414 113.16 119.343C113.083 119.272 113.022 119.185 112.98 119.089C112.938 118.993 112.917 118.889 112.917 118.785C112.917 118.68 112.938 118.576 112.98 118.48C113.022 118.384 113.083 118.298 113.16 118.226C113.237 118.155 113.328 118.1 113.427 118.066C113.526 118.031 113.631 118.018 113.736 118.026C113.856 118.021 113.976 118.047 114.084 118.102C114.192 118.156 114.284 118.238 114.352 118.338V118.039L114.554 118.048ZM114.352 118.791C114.355 118.673 114.323 118.557 114.26 118.457C114.197 118.357 114.105 118.278 113.997 118.23C113.889 118.182 113.769 118.168 113.653 118.189C113.536 118.21 113.429 118.265 113.344 118.347C113.259 118.43 113.201 118.535 113.177 118.651C113.152 118.767 113.163 118.887 113.207 118.997C113.252 119.106 113.328 119.2 113.426 119.266C113.524 119.332 113.639 119.368 113.758 119.368C113.835 119.373 113.912 119.361 113.984 119.335C114.057 119.308 114.123 119.267 114.179 119.214C114.235 119.161 114.279 119.096 114.309 119.025C114.338 118.954 114.353 118.877 114.352 118.8V118.791Z" fill="#263238"/>
<path d="M116.556 118.048V119.614H116.354V119.328C116.295 119.424 116.212 119.502 116.113 119.555C116.014 119.608 115.902 119.633 115.79 119.627C115.7 119.636 115.61 119.624 115.525 119.593C115.44 119.562 115.363 119.512 115.3 119.448C115.237 119.383 115.189 119.305 115.159 119.22C115.13 119.135 115.12 119.044 115.13 118.954V118.048H115.342V118.928C115.332 118.993 115.337 119.06 115.357 119.123C115.377 119.186 115.411 119.244 115.456 119.292C115.501 119.34 115.557 119.377 115.619 119.401C115.68 119.425 115.746 119.435 115.812 119.429C115.886 119.433 115.96 119.42 116.029 119.393C116.097 119.365 116.159 119.323 116.21 119.269C116.261 119.215 116.299 119.15 116.322 119.08C116.345 119.01 116.353 118.935 116.345 118.862V118.039L116.556 118.048Z" fill="#263238"/>
<path d="M117.92 118.034V118.241H117.867C117.793 118.238 117.718 118.251 117.649 118.28C117.58 118.309 117.518 118.352 117.467 118.408C117.417 118.463 117.379 118.529 117.357 118.601C117.335 118.672 117.329 118.748 117.339 118.822V119.618H117.128V118.052H117.331V118.36C117.385 118.253 117.471 118.165 117.576 118.107C117.681 118.049 117.801 118.024 117.92 118.034Z" fill="#263238"/>
<path d="M119.68 118.897H118.36C118.364 118.973 118.384 119.048 118.417 119.117C118.451 119.185 118.497 119.247 118.555 119.297C118.612 119.348 118.679 119.387 118.751 119.412C118.823 119.437 118.9 119.447 118.976 119.442C119.066 119.445 119.156 119.428 119.239 119.392C119.321 119.356 119.395 119.303 119.456 119.236L119.574 119.372C119.462 119.49 119.317 119.572 119.159 119.608C119 119.644 118.834 119.632 118.682 119.575C118.53 119.517 118.398 119.416 118.303 119.283C118.208 119.151 118.155 118.993 118.149 118.831C118.143 118.727 118.159 118.624 118.195 118.527C118.231 118.43 118.287 118.341 118.359 118.267C118.431 118.192 118.517 118.133 118.613 118.093C118.708 118.053 118.811 118.033 118.914 118.034C119.018 118.032 119.12 118.052 119.216 118.092C119.311 118.131 119.397 118.191 119.468 118.266C119.54 118.34 119.594 118.429 119.629 118.527C119.664 118.624 119.679 118.728 119.671 118.831C119.671 118.831 119.68 118.87 119.68 118.897ZM118.36 118.738H119.469C119.469 118.591 119.41 118.45 119.306 118.346C119.202 118.242 119.061 118.184 118.914 118.184C118.767 118.184 118.626 118.242 118.522 118.346C118.418 118.45 118.36 118.591 118.36 118.738Z" fill="#263238"/>
<path d="M102.269 127.961V128.876H101.455V127.996C100.728 127.973 100.022 127.746 99.418 127.34L99.858 126.346C100.328 126.674 100.875 126.874 101.446 126.927V125.563C100.536 125.338 99.5236 125.039 99.5236 123.869C99.5236 122.989 100.153 122.258 101.446 122.109V121.202H102.26V122.082C102.845 122.116 103.414 122.288 103.919 122.584L103.51 123.587C103.127 123.36 102.702 123.21 102.26 123.147V124.538C103.167 124.749 104.166 125.052 104.166 126.205C104.174 127.072 103.554 127.807 102.269 127.961ZM101.455 124.353V123.2C101.015 123.297 100.848 123.534 100.848 123.803C100.848 124.071 101.094 124.238 101.455 124.353ZM102.859 126.32C102.859 126.034 102.621 125.88 102.269 125.756V126.883C102.678 126.795 102.859 126.584 102.859 126.32Z" fill="#263238"/>
<path d="M108.993 126.817V127.899H104.672V127.041L106.872 124.956C107.382 124.472 107.47 124.181 107.47 123.9C107.47 123.46 107.158 123.191 106.555 123.191C106.326 123.182 106.098 123.23 105.892 123.329C105.685 123.429 105.507 123.578 105.371 123.763L104.408 123.143C104.668 122.791 105.012 122.509 105.408 122.324C105.805 122.138 106.241 122.053 106.678 122.078C107.954 122.078 108.803 122.734 108.803 123.772C108.803 124.326 108.645 124.832 107.844 125.576L106.524 126.817H108.993Z" fill="#263238"/>
<path d="M109.525 125.039C109.525 123.152 110.572 122.078 111.976 122.078C113.379 122.078 114.427 123.152 114.427 125.039C114.427 126.927 113.388 127.996 111.976 127.996C110.563 127.996 109.525 126.927 109.525 125.039ZM113.098 125.039C113.098 123.719 112.658 123.2 111.976 123.2C111.294 123.2 110.867 123.737 110.867 125.039C110.867 126.342 111.307 126.874 111.976 126.874C112.645 126.874 113.08 126.337 113.08 125.039H113.098Z" fill="#263238"/>
<path d="M115.073 125.039C115.073 123.152 116.12 122.078 117.524 122.078C118.928 122.078 119.975 123.152 119.975 125.039C119.975 126.927 118.936 127.996 117.524 127.996C116.112 127.996 115.073 126.927 115.073 125.039ZM118.642 125.039C118.642 123.719 118.202 123.2 117.524 123.2C116.846 123.2 116.411 123.737 116.411 125.039C116.411 126.342 116.851 126.874 117.524 126.874C118.197 126.874 118.642 126.337 118.642 125.039Z" fill="#263238"/>
<path d="M118.866 142.463H100.624C99.4921 142.462 98.4072 142.012 97.6071 141.212C96.8069 140.412 96.3569 139.327 96.3557 138.195C96.3557 137.063 96.8052 135.977 97.6055 135.176C98.4058 134.375 99.4914 133.924 100.624 133.923H118.866C119.427 133.923 119.982 134.033 120.5 134.248C121.019 134.463 121.489 134.778 121.886 135.174C122.282 135.571 122.596 136.042 122.81 136.561C123.025 137.079 123.135 137.634 123.134 138.195C123.134 139.327 122.684 140.413 121.884 141.213C121.084 142.014 119.998 142.463 118.866 142.463Z" fill="#263238"/>
<path d="M103.893 137.72C103.893 138.257 103.506 138.578 102.868 138.578H102.19V139.37H101.926V136.862H102.868C103.506 136.88 103.893 137.201 103.893 137.72ZM103.624 137.72C103.624 137.32 103.36 137.091 102.859 137.091H102.19V138.345H102.859C103.36 138.362 103.624 138.134 103.624 137.72Z" fill="white"/>
<path d="M105.816 138.217V139.388H105.574V139.093C105.503 139.198 105.405 139.283 105.291 139.338C105.176 139.393 105.049 139.416 104.922 139.405C104.482 139.405 104.236 139.185 104.236 138.855C104.236 138.525 104.421 138.323 104.962 138.323H105.56V138.208C105.56 137.887 105.38 137.711 105.028 137.711C104.799 137.708 104.576 137.786 104.399 137.931L104.284 137.742C104.503 137.57 104.776 137.479 105.054 137.487C105.155 137.472 105.258 137.481 105.355 137.512C105.452 137.543 105.54 137.596 105.613 137.666C105.687 137.737 105.743 137.823 105.778 137.918C105.813 138.014 105.826 138.116 105.816 138.217ZM105.56 138.82V138.512H104.971C104.606 138.512 104.487 138.657 104.487 138.851C104.487 139.044 104.663 139.207 104.962 139.207C105.09 139.215 105.217 139.182 105.325 139.113C105.433 139.043 105.515 138.94 105.56 138.82Z" fill="white"/>
<path d="M108.055 137.5L107.114 139.612C106.955 139.982 106.757 140.1 106.489 140.1C106.322 140.1 106.161 140.036 106.04 139.92L106.159 139.731C106.203 139.777 106.256 139.814 106.315 139.839C106.374 139.864 106.438 139.876 106.502 139.876C106.674 139.876 106.788 139.797 106.894 139.559L106.977 139.374L106.132 137.491H106.401L107.109 139.097L107.8 137.5H108.055Z" fill="white"/>
<path d="M110.207 139.405V139.819H110.026V139.41C109.711 139.407 109.406 139.292 109.168 139.084L109.274 138.877C109.482 139.063 109.748 139.17 110.026 139.181V138.239C109.63 138.142 109.23 138.019 109.23 137.544C109.23 137.201 109.476 136.902 110.026 136.862V136.448H110.207V136.84C110.465 136.844 110.716 136.921 110.933 137.06L110.845 137.271C110.652 137.151 110.433 137.08 110.207 137.064V138.015C110.612 138.112 111.038 138.226 111.038 138.706C111.038 139.071 110.774 139.374 110.207 139.405ZM110.026 137.988V137.108C109.657 137.139 109.49 137.328 109.49 137.548C109.49 137.768 109.732 137.909 110.026 137.988ZM110.774 138.741C110.774 138.455 110.515 138.358 110.207 138.301V139.181C110.598 139.15 110.774 138.97 110.774 138.741Z" fill="white"/>
<path d="M113.107 139.159V139.388H111.347V139.207L112.389 138.182C112.671 137.905 112.724 137.742 112.724 137.562C112.724 137.271 112.521 137.095 112.139 137.095C112.011 137.089 111.883 137.11 111.765 137.158C111.646 137.206 111.54 137.279 111.452 137.372L111.267 137.214C111.38 137.095 111.517 137.001 111.668 136.94C111.82 136.878 111.984 136.85 112.147 136.858C112.653 136.858 112.979 137.117 112.979 137.535C112.973 137.688 112.932 137.838 112.861 137.974C112.789 138.109 112.688 138.227 112.565 138.318L111.712 139.159H113.107Z" fill="white"/>
<path d="M113.415 138.134C113.415 137.333 113.833 136.858 114.413 136.858C114.994 136.858 115.417 137.333 115.417 138.134C115.417 138.934 114.977 139.41 114.413 139.41C113.85 139.41 113.415 138.934 113.415 138.134ZM115.153 138.134C115.153 137.465 114.853 137.095 114.413 137.095C113.973 137.095 113.674 137.465 113.674 138.134C113.674 138.802 113.978 139.172 114.413 139.172C114.849 139.172 115.153 138.802 115.153 138.134Z" fill="white"/>
<path d="M115.786 138.134C115.786 137.333 116.226 136.858 116.789 136.858C117.353 136.858 117.793 137.333 117.793 138.134C117.793 138.934 117.353 139.41 116.789 139.41C116.226 139.41 115.786 138.934 115.786 138.134ZM117.546 138.134C117.546 137.465 117.247 137.095 116.811 137.095C116.376 137.095 116.072 137.465 116.072 138.134C116.072 138.802 116.371 139.172 116.811 139.172C117.251 139.172 117.524 138.802 117.524 138.134H117.546Z" fill="white"/>
<path d="M82.1436 129.026C82.8036 139.168 78.1044 150.462 78.1044 150.462L52.7208 143.317L48.2944 142.067C52.6944 135.956 54.7888 123.917 53.6404 114.176C53.5524 113.441 53.4996 112.75 53.46 112.09C53.02 104.056 56.3596 101.706 59.18 98.1551C62.26 94.3095 69.1152 79.7895 69.1152 76.3531C69.1152 72.9167 77.7172 64.5039 75.8032 54.9559C75.8032 54.9559 78.4036 53.3411 81.0172 54.6655C82.2052 55.2639 83.3888 56.4651 84.3436 58.6915C86.5832 63.9231 83.4372 78.7115 80.762 82.3371L75.6096 103.668C75.6096 103.668 77.3476 106.665 79.0548 112.103C80.7519 117.601 81.7888 123.282 82.1436 129.026Z" fill="white"/>
<path opacity="0.4" d="M53.46 112.09C54.8988 116.028 56.4256 118.69 56.2936 124.208C56.1616 129.725 53.2136 138.217 54.054 142.63C53.5739 142.772 53.1257 143.005 52.734 143.317L48.3076 142.067C52.7076 135.956 54.802 123.917 53.6536 114.176C53.5524 113.441 53.4996 112.75 53.46 112.09Z" fill="#FFC700"/>
<path opacity="0.4" d="M80.7621 82.3371L75.6097 103.668C75.6097 103.668 77.3477 106.665 79.0549 112.103C75.5657 106.48 72.6001 104.799 72.6001 104.799C74.9233 102.014 76.7141 81.6419 76.7141 81.6419C76.7141 81.6419 83.9961 73.0839 83.3141 64.1299C83.0952 60.867 82.3184 57.6658 81.0173 54.6655C82.2053 55.2639 83.3889 56.4651 84.3437 58.6915C86.5833 63.9231 83.4373 78.7115 80.7621 82.3371Z" fill="#FFC700"/>
<path d="M48.2944 142.067C52.6944 135.956 54.7888 123.917 53.6448 114.176C52.5008 104.434 56.1264 101.996 59.1844 98.1508C62.2424 94.3052 69.1152 79.7896 69.1152 76.3488C69.1152 72.908 77.7128 64.5084 75.8032 54.956C75.8032 54.956 81.29 51.5548 84.3436 58.6916C86.5832 63.9276 83.4372 78.7116 80.762 82.3416L75.614 103.668C75.614 103.668 81.1096 113.15 82.1436 129.026C82.8036 139.168 78.1044 150.467 78.1044 150.467" stroke="#263238" stroke-linecap="round" stroke-linejoin="round"/>
<path d="M65.2609 158.58C65.2609 158.58 71.0381 162.136 74.4085 167.759" stroke="#263238" stroke-linecap="round" stroke-linejoin="round"/>
<path d="M81.4881 165.308C81.4881 165.308 76.5117 166.017 72.0149 160.635C69.1329 157.19 60.3813 155.633 58.3749 146.621" stroke="#263238" stroke-linecap="round" stroke-linejoin="round"/>
<path opacity="0.2" d="M153.815 191.954C141.077 185.86 148.791 180.976 131.265 173.413C113.74 165.849 113.564 159.386 115.676 144.522C117.788 129.659 116.116 113.85 121.211 112.508C126.307 111.166 117.225 90.6665 123.165 83.4197L152.398 140.285L153.815 191.954Z" fill="black" fill-opacity="0.7"/>
<path d="M201.278 191.36C200.68 189.649 200.073 187.779 199.602 186.08C198.995 183.88 198.519 182.12 197.402 180.074C197.226 179.749 197.037 179.406 196.825 179.036C195.633 176.911 194.001 174.002 193.046 170.43C192.403 168.023 193.046 162.096 193.644 156.35C194.084 152.222 194.485 148.328 194.366 146.12L194.331 145.336C194.031 139.559 193.407 127.538 192.131 124.216C190.877 121.013 189.706 120.534 187.572 119.68C187.352 119.583 187.132 119.495 186.877 119.39C186.076 119.055 184.712 118.351 183.141 117.537C179.599 115.702 175.191 113.419 172.951 113.137C170.856 112.902 168.737 113 166.672 113.428C163.913 111.311 159.219 108.588 157.819 108.53C156.675 108.473 154.176 109.19 152.979 109.564L152.377 109.758C151.619 109.17 150.815 108.643 149.974 108.183C149.917 108.152 149.86 108.13 149.811 108.108C148.258 107.47 145.913 107.448 144.633 107.483C144.245 107.483 143.942 107.523 143.805 107.536C141.39 103.818 139.014 100.118 137.98 98.494C135.824 95.0796 129.149 81.0304 129.083 80.894C129.075 80.8759 129.063 80.8599 129.048 80.8477C129.032 80.8354 129.014 80.8271 128.995 80.8236C128.975 80.8207 128.954 80.8207 128.933 80.8236C128.414 80.674 124.591 79.7016 123.055 83.4064C121.374 87.4412 123.772 96.2984 126.113 99.5148C127.239 101.064 130.315 107.382 133.435 113.92C132.634 114.664 126.227 120.582 123.117 121.686C120.569 122.588 121.167 135.648 121.647 146.133C121.827 150.005 121.977 153.336 121.933 155.338C121.845 159.21 128.889 164.542 135.718 169.699C141.878 174.372 148.267 179.199 149.015 182.706C149.222 183.691 149.811 184.492 150.515 185.394C151.69 186.89 153.204 188.654 153.846 191.994C154.035 192.997 155.646 194.308 156.926 196.451H203.144C202.757 195.408 202.026 193.508 201.278 191.36ZM137.183 121.796C139.423 126.487 140.809 129.276 141.143 129.589C141.478 129.901 141.456 131.388 141.447 132.836C141.399 134.103 141.443 135.372 141.579 136.633C141.033 137.113 137.588 140.25 136.893 142.793L133.967 139.348L133.228 128.537C133.668 128.071 136.677 124.89 137.183 121.796Z" fill="white"/>
<path opacity="0.4" d="M188.016 151.936C189.103 162.078 189.116 167.578 190.335 170.513C192.394 175.468 195.426 176.471 195.426 176.471C194.418 174.551 193.617 172.528 193.037 170.438C192.399 168.032 193.037 162.105 193.635 156.358C194.075 152.231 194.48 148.333 194.366 146.124L194.326 145.341C194.027 139.568 193.402 127.547 192.126 124.221C190.876 121.018 189.702 120.538 187.568 119.68C187.348 119.588 187.128 119.5 186.872 119.394C186.072 119.06 184.712 118.356 183.137 117.542C179.595 115.707 175.186 113.423 172.946 113.142C170.851 112.903 168.732 113.002 166.668 113.432C163.909 111.316 159.214 108.592 157.815 108.535C156.671 108.478 153.569 109.38 152.363 109.762C157.643 114.07 165.246 119.442 165.246 119.442C171.261 120.639 170.491 123.248 172.924 124.722C175.124 126.042 177.228 122.179 179.084 121.84C181.513 121.4 184.272 123.961 184.149 127.068C183.77 135.626 187.084 143.229 188.016 151.936Z" fill="#FFC700"/>
<path opacity="0.4" d="M157.613 120.507C157.613 120.507 152.847 116.547 150.573 115.227C148.298 113.907 147.933 109.358 149.728 108.253C149.796 108.212 149.873 108.188 149.952 108.183L149.789 108.108C148.236 107.47 145.891 107.444 144.611 107.483C147.251 112.398 149.358 116.169 149.926 116.996C151.84 119.759 157.613 120.507 157.613 120.507Z" fill="#FFC700"/>
<path opacity="0.4" d="M150.383 182.09C150.586 181.038 148.852 177.958 148.091 176.708C146.362 173.857 126.285 156.116 129.193 151.382C132.101 146.648 134.759 150.15 136.598 150.458C137.918 150.678 141.544 148.518 141.526 148.337C141.113 144.69 144.479 142.318 144.479 142.318C144.479 142.318 144.171 127.798 143.396 128.044C142.622 128.291 133.355 106.242 133.355 106.242C133.355 106.242 123.561 93.2184 124.115 87.142C124.67 81.0656 128.92 80.96 128.92 80.96V80.7972C128.401 80.6476 124.577 79.6752 123.042 83.38C121.361 87.4148 123.759 96.272 126.1 99.4884C127.226 101.037 130.302 107.356 133.421 113.894C132.621 114.638 126.214 120.556 123.103 121.66C120.556 122.562 121.154 135.621 121.634 146.106C121.814 149.978 121.964 153.309 121.92 155.311C121.832 159.183 128.876 164.516 135.705 169.673C141.865 174.346 148.254 179.172 149.002 182.679C149.209 183.665 149.798 184.466 150.502 185.368C150.362 184.281 150.322 183.184 150.383 182.09ZM137.183 121.81C139.423 126.5 140.809 129.29 141.143 129.602C141.478 129.914 141.456 131.402 141.447 132.849C141.399 134.116 141.443 135.386 141.579 136.646C141.033 137.126 137.588 140.263 136.893 142.806L133.967 139.361L133.228 128.55C133.668 128.071 136.677 124.89 137.183 121.796V121.81Z" fill="#FFC700"/>
<path d="M154.88 120.45C152.914 119.831 151.187 118.62 149.935 116.983C147.924 114.29 140.026 102.023 137.839 98.5643C135.652 95.1059 128.92 80.9599 128.92 80.9599C128.92 80.9599 124.784 79.5739 123.174 83.4371C121.563 87.3003 123.768 96.0299 126.218 99.3915C128.669 102.753 140.316 128.638 141.24 129.474C142.164 130.31 140.778 137.218 142.631 138.89" stroke="#263238" stroke-linecap="round" stroke-linejoin="round"/>
<path d="M141.742 136.695C141.742 136.695 137.474 140.413 136.972 143.128L133.804 139.401L133.056 128.48C133.056 128.48 136.88 124.652 137.091 121.246" stroke="#263238" stroke-linecap="round" stroke-linejoin="round"/>
<path d="M133.597 113.907C133.597 113.907 126.509 120.595 123.139 121.788C119.768 122.98 122.228 148.038 122.061 155.294C121.893 162.549 147.559 175.19 149.134 182.618C149.759 185.574 152.346 186.177 153.925 191.858" stroke="#263238" stroke-linecap="round" stroke-linejoin="round"/>
<path d="M143.687 107.681C143.687 107.681 147.545 107.334 149.719 108.24C151.893 109.146 160.719 116.728 162.849 118.175C164.978 119.623 168.181 120.173 168.789 121.735" stroke="#263238" stroke-linecap="round" stroke-linejoin="round"/>
<path d="M152.315 109.916C152.315 109.916 156.275 108.596 157.789 108.671C159.302 108.746 164.996 112.103 167.548 114.347C169.503 116.082 171.755 117.45 174.196 118.386" stroke="#263238" stroke-linecap="round" stroke-linejoin="round"/>
<path d="M166.619 113.586C168.686 113.141 170.812 113.039 172.911 113.282C176.132 113.722 184.219 118.474 186.798 119.548C189.376 120.622 190.608 120.82 191.963 124.287C193.319 127.754 193.939 140.936 194.212 146.146C194.485 151.356 191.77 166.276 192.892 170.474C194.014 174.671 196.038 177.91 197.265 180.154" stroke="#263238" stroke-linecap="round" stroke-linejoin="round"/>
<path d="M133.056 128.48C133.056 128.48 132.44 125.906 131.56 125.576" stroke="#263238" stroke-linecap="round" stroke-linejoin="round"/>
<path d="M133.804 139.401C134.101 140.901 134.502 142.379 135.005 143.823C135.639 145.385 134.653 147.646 134.653 147.646" stroke="#263238" stroke-linecap="round" stroke-linejoin="round"/>
<path d="M136.972 143.128C136.871 145.627 139.357 148.548 139.96 148.135" stroke="#263238" stroke-linecap="round" stroke-linejoin="round"/>
<path d="M149.631 128.48C149.631 128.48 152.302 124.159 154.862 123.948C157.423 123.737 160.38 127.371 161.96 127.028C163.539 126.685 165.528 124.362 168.186 123.948C170.843 123.534 172.088 124.802 174.196 124.907C176.304 125.013 176.519 122.197 179.036 121.827C181.553 121.458 182.411 122.707 184.1 123.033C185.79 123.358 186.212 122.025 187.581 121.273" stroke="#263238" stroke-linecap="round" stroke-linejoin="round"/>
</svg>
